<?xml version="1.0" encoding="UTF-8"?>
<!DOCTYPE svg PUBLIC "-//W3C//DTD SVG 1.1//EN" "http://www.w3.org/Graphics/SVG/1.1/DTD/svg11.dtd">
<!-- Creator: CorelDRAW -->
<svg xmlns="http://www.w3.org/2000/svg" xml:space="preserve" width="7.9059mm" height="9.452mm" version="1.1" style="shape-rendering:geometricPrecision; text-rendering:geometricPrecision; image-rendering:optimizeQuality; fill-rule:evenodd; clip-rule:evenodd"
viewBox="0 0 4.01 4.8"
 xmlns:xlink="http://www.w3.org/1999/xlink"
 xmlns:xodm="http://www.corel.com/coreldraw/odm/2003">
 <defs>
  <style type="text/css">
   <![CDATA[
    .fil6 {fill:#010101;fill-rule:nonzero}
    .fil9 {fill:#020202;fill-rule:nonzero}
    .fil0 {fill:#040506;fill-rule:nonzero}
    .fil4 {fill:#61B6FB;fill-rule:nonzero}
    .fil2 {fill:#63B2F3;fill-rule:nonzero}
    .fil3 {fill:#63B3F6;fill-rule:nonzero}
    .fil8 {fill:#87C7FB;fill-rule:nonzero}
    .fil7 {fill:#88C5F7;fill-rule:nonzero}
    .fil10 {fill:#E7E7E7;fill-rule:nonzero}
    .fil1 {fill:#E8E8E8;fill-rule:nonzero}
    .fil5 {fill:#FDDA31;fill-rule:nonzero}
   ]]>
  </style>
 </defs>
 <g id="Camada_x0020_1">
  <metadata id="CorelCorpID_0Corel-Layer"/>
  <path class="fil0" d="M2.92 0.01c0.07,0.04 0.12,0.09 0.15,0.17 0,0.05 0,0.1 -0,0.15 -0,0.02 -0,0.03 -0,0.05 -0.03,0.48 -0.11,0.97 -0.29,1.42 -0.03,0.08 -0.05,0.14 -0.02,0.23 0.01,0.03 0.03,0.06 0.04,0.09 0.01,0.04 0.01,0.08 0.01,0.13 0,0.07 0.01,0.09 0.06,0.14 0.05,0.04 0.11,0.08 0.16,0.12 0.06,0.05 0.11,0.09 0.17,0.15 0.02,0.02 0.02,0.02 0.03,0.03 0.09,0.08 0.16,0.17 0.24,0.27 0.04,0.05 0.09,0.11 0.13,0.16 0.11,0.13 0.2,0.26 0.3,0.4 0.02,0.03 0.04,0.06 0.07,0.1 0.05,0.08 0.05,0.13 0.03,0.22 -0.04,0.08 -0.08,0.13 -0.17,0.17 -0.12,0.02 -0.19,-0.02 -0.29,-0.09 -0.02,-0.01 -0.04,-0.03 -0.06,-0.04 -0.01,-0.01 -0.02,-0.02 -0.04,-0.03 -0.29,-0.22 -0.57,-0.44 -0.82,-0.7 -0.01,0.21 0.01,0.41 0.03,0.62 0.03,0.39 0.03,0.39 0.03,0.56 0.01,0 0.02,0 0.04,0 0.12,0.01 0.12,0.01 0.17,0.05 0.04,0.08 0.04,0.14 0.04,0.23 -0,0.02 -0,0.03 -0,0.05 -0,0.11 -0,0.11 -0.02,0.14 -0.04,0 -0.08,0 -0.12,0 -0.01,0 -0.03,0 -0.04,0 -0.04,0 -0.08,0 -0.13,0 -0.03,0 -0.06,0 -0.09,0 -0.06,0 -0.12,0 -0.18,0 -0.08,0 -0.16,0 -0.24,0 -0.06,0 -0.12,0 -0.18,0 -0.03,0 -0.06,0 -0.09,0 -0.04,0 -0.08,0 -0.12,0 -0.02,0 -0.05,0 -0.07,0 -0.02,-0 -0.04,-0 -0.05,-0.01 -0.05,-0.07 -0.04,-0.1 -0.04,-0.18 -0,-0.02 -0,-0.05 -0,-0.07 0.01,-0.08 0.04,-0.13 0.1,-0.19 0.1,-0.06 0.1,-0.06 0.17,-0.06 -0,-0.01 -0,-0.03 -0,-0.04 -0,-0.17 0.01,-0.33 0.02,-0.5 0,-0.03 0,-0.06 0.01,-0.08 0.01,-0.07 0.01,-0.15 0.02,-0.22 0.01,-0.07 0.01,-0.15 0.02,-0.22 0.01,-0.15 0.02,-0.29 0.03,-0.44 -0.1,-0 -0.17,0.02 -0.26,0.05 -0.43,0.15 -0.87,0.2 -1.32,0.24 -0.02,0 -0.04,0 -0.06,0.01 -0.08,0 -0.14,-0.02 -0.21,-0.07 -0.06,-0.07 -0.07,-0.13 -0.06,-0.22 0.01,-0.08 0.04,-0.14 0.1,-0.19 0.04,-0.02 0.08,-0.03 0.12,-0.04 0.08,-0.03 0.16,-0.06 0.23,-0.1 0.03,-0.01 0.06,-0.03 0.09,-0.04 0.02,-0.01 0.03,-0.01 0.05,-0.02 0.02,-0.01 0.03,-0.01 0.05,-0.02 0.02,-0.01 0.03,-0.01 0.05,-0.02 0.01,-0.01 0.03,-0.01 0.04,-0.02 0.01,-0.01 0.03,-0.01 0.04,-0.02 0.04,-0.02 0.07,-0.02 0.11,-0.03 0.03,-0.01 0.06,-0.02 0.09,-0.03 0.18,-0.06 0.37,-0.11 0.56,-0.15 0.02,-0 0.02,-0 0.05,-0.01 0.07,-0.01 0.14,-0.02 0.22,-0.02 0,-0.01 0.01,-0.02 0.01,-0.04 0.03,-0.08 0.08,-0.14 0.14,-0.21 0.01,0 0.02,0 0.04,0 0.01,-0.01 0.02,-0.02 0.04,-0.04 0.01,0.01 0.02,0.01 0.04,0.02 0,-0.02 0,-0.03 0,-0.05 0.05,-0.49 0.23,-1.39 0.61,-1.72 0.07,-0.05 0.16,-0.04 0.24,-0.02z"/>
  <path class="fil1" d="M2.08 2.76c0.05,0 0.09,0.01 0.14,0.01 0.01,0 0.03,0 0.04,0 0.1,0.01 0.1,0.01 0.14,0.05 0.03,0.06 0.04,0.11 0.04,0.17 0,0.01 0,0.03 0,0.04 0,0.04 0.01,0.08 0.01,0.13 0,0.03 0,0.06 0.01,0.09 0.02,0.27 0.04,0.53 0.05,0.8 0.01,0.1 0.02,0.2 0.02,0.29 -0.18,0 -0.37,0 -0.56,0 0,-0.22 0,-0.22 0.02,-0.32 0,-0.05 0.01,-0.1 0.01,-0.15 0,-0.02 0,-0.03 0,-0.05 0,-0.05 0.01,-0.1 0.01,-0.15 0,-0.03 0,-0.07 0.01,-0.1 0.01,-0.1 0.01,-0.2 0.02,-0.3 0,-0.03 0,-0.06 0.01,-0.09 0.01,-0.15 0.02,-0.29 0.03,-0.44z"/>
  <path class="fil2" d="M1.76 2.23c0,0.02 0,0.02 0,0.04 0.01,0.1 0.02,0.17 0.07,0.26 0,0.02 0,0.04 0,0.06 -0.39,0.14 -0.76,0.24 -1.17,0.29 -0.01,0 -0.03,0 -0.04,0 -0.38,0.04 -0.38,0.04 -0.45,0 -0.02,-0.03 -0.02,-0.03 -0.02,-0.08 0.02,-0.06 0.05,-0.07 0.1,-0.1 0.01,-0.01 0.02,-0.01 0.04,-0.02 0.01,-0.01 0.03,-0.01 0.04,-0.02 0.96,-0.45 0.96,-0.45 1.43,-0.44z"/>
  <path class="fil3" d="M2.88 0.18c0.02,0.02 0.02,0.02 0.02,0.06 -0,0.52 -0.09,1.13 -0.32,1.6 -0.11,-0.04 -0.11,-0.04 -0.15,-0.06 -0.03,-0 -0.07,-0.01 -0.1,-0.01 -0.03,-0 -0.03,-0 -0.06,-0 -0.01,-0 -0.03,-0 -0.04,-0 0.04,-0.53 0.26,-1.03 0.49,-1.51 0.01,-0.01 0.01,-0.03 0.02,-0.04 0.04,-0.07 0.08,-0.05 0.15,-0.03z"/>
  <path class="fil4" d="M2.73 2.51c0.09,0.02 0.13,0.07 0.19,0.12 0.02,0.02 0.04,0.04 0.07,0.06 0.01,0.01 0.02,0.02 0.03,0.03 0.03,0.03 0.07,0.06 0.1,0.09 0.07,0.06 0.13,0.13 0.19,0.2 0.01,0.02 0.03,0.03 0.05,0.05 0.14,0.16 0.26,0.32 0.38,0.49 0.02,0.03 0.04,0.05 0.06,0.08 0.07,0.09 0.07,0.09 0.06,0.15 -0.02,0.04 -0.02,0.04 -0.04,0.06 -0.06,0.01 -0.1,0.01 -0.15,-0.02 -0.05,-0.03 -0.09,-0.07 -0.13,-0.1 -0.02,-0.01 -0.03,-0.02 -0.05,-0.04 -0.04,-0.03 -0.09,-0.07 -0.13,-0.1 -0.02,-0.01 -0.04,-0.03 -0.06,-0.04 -0.04,-0.03 -0.09,-0.07 -0.13,-0.11 -0.01,-0.01 -0.02,-0.02 -0.03,-0.02 -0.47,-0.39 -0.47,-0.39 -0.62,-0.63 0.02,-0.06 0.04,-0.07 0.09,-0.11 0.06,-0.04 0.1,-0.08 0.13,-0.15z"/>
  <path class="fil5" d="M2.48 1.95c0.09,0.07 0.15,0.15 0.17,0.26 0,0.11 0,0.19 -0.06,0.28 -0.09,0.09 -0.17,0.15 -0.3,0.16 -0.13,-0 -0.2,-0.06 -0.3,-0.14 -0.07,-0.09 -0.08,-0.19 -0.08,-0.3 0.02,-0.12 0.09,-0.2 0.18,-0.27 0.12,-0.06 0.28,-0.05 0.4,0.01z"/>
  <path class="fil6" d="M3.26 1.02c0.21,0.07 0.37,0.37 0.47,0.56 0.17,0.36 0.2,0.79 0.09,1.17 -0.02,0.06 -0.04,0.09 -0.08,0.14 -0.05,0.01 -0.05,0.01 -0.09,0 -0.05,-0.07 -0.04,-0.1 -0.02,-0.19 0.01,-0.04 0.02,-0.08 0.03,-0.12 0.08,-0.37 0.01,-0.75 -0.18,-1.07 -0.09,-0.13 -0.2,-0.25 -0.31,-0.36 -0.01,-0.05 -0.01,-0.05 0,-0.09 0.06,-0.04 0.06,-0.04 0.1,-0.04z"/>
  <path class="fil6" d="M2.06 0.7c0.04,0.05 0.04,0.05 0.06,0.09 -0.03,0.06 -0.05,0.07 -0.11,0.09 -0.02,0 -0.05,0.01 -0.07,0.01 -0.38,0.09 -0.67,0.32 -0.89,0.65 -0.06,0.1 -0.09,0.2 -0.12,0.31 -0.06,0.2 -0.06,0.2 -0.1,0.23 -0.05,0 -0.05,0 -0.09,0 -0.04,-0.04 -0.04,-0.04 -0.04,-0.07 0.04,-0.4 0.27,-0.76 0.57,-1.01 0.16,-0.12 0.32,-0.21 0.5,-0.27 0.01,-0 0.03,-0.01 0.04,-0.01 0.08,-0.03 0.16,-0.04 0.25,-0.03z"/>
  <path class="fil7" d="M2.88 0.18c-0.02,0.04 -0.02,0.04 -0.05,0.06 -0.03,0.04 -0.04,0.06 -0.05,0.11 -0,0.02 -0.01,0.03 -0.01,0.05 -0,0.02 -0.01,0.03 -0.01,0.05 -0.02,0.1 -0.04,0.18 -0.07,0.27 -0.01,0.04 -0.01,0.09 -0.02,0.13 -0.01,0 -0.02,0 -0.04,0 0,0.02 0,0.04 0,0.06 0,0.1 -0.03,0.2 -0.06,0.29 -0.01,0 -0.02,0 -0.04,0 -0,0.02 -0.01,0.05 -0.01,0.07 -0.02,0.1 -0.04,0.2 -0.06,0.29 -0,0.02 -0.01,0.03 -0.01,0.05 -0.02,0.11 -0.02,0.11 -0.05,0.13 -0.06,0 -0.11,0 -0.17,0 -0,-0.12 0.01,-0.23 0.04,-0.35 0,-0.02 0.01,-0.03 0.01,-0.05 0.1,-0.38 0.25,-0.74 0.42,-1.09 0.01,-0.01 0.01,-0.03 0.02,-0.04 0.04,-0.07 0.08,-0.05 0.15,-0.03z"/>
  <path class="fil8" d="M1.74 2.4c0.04,0.04 0.07,0.08 0.09,0.13 0,0.02 0,0.04 0,0.06 -0.55,0.19 -1.04,0.29 -1.62,0.28 0,-0.03 0,-0.06 0,-0.09 0.08,-0.02 0.16,-0.02 0.25,-0.03 0.05,-0.01 0.09,-0.02 0.14,-0.04 0.03,-0 0.03,-0 0.06,-0.01 0.07,-0.01 0.07,-0.01 0.12,-0.04 0.09,-0.04 0.19,-0.05 0.29,-0.05 0.06,-0.01 0.11,-0.03 0.16,-0.05 0.09,-0.03 0.18,-0.05 0.27,-0.07 0.04,-0.01 0.08,-0.02 0.12,-0.03 0.03,-0.01 0.03,-0.01 0.05,-0.01 0.04,-0.01 0.04,-0.01 0.06,-0.03z"/>
  <path class="fil7" d="M2.73 2.51c0.09,0.02 0.13,0.06 0.19,0.12 0.02,0.02 0.04,0.04 0.07,0.06 0.01,0.01 0.02,0.02 0.03,0.03 0.03,0.03 0.07,0.06 0.1,0.09 0.07,0.06 0.13,0.13 0.19,0.2 0.02,0.02 0.03,0.03 0.05,0.05 0.1,0.11 0.19,0.23 0.28,0.36 0.01,0.02 0.01,0.02 0.03,0.04 0.05,0.08 0.08,0.13 0.07,0.22 0.02,0.01 0.04,0.01 0.06,0.02 -0.01,0.04 -0.01,0.04 -0.02,0.07 -0.08,-0.04 -0.11,-0.08 -0.15,-0.15 -0.03,-0.02 -0.06,-0.04 -0.09,-0.06 -0.07,-0.08 -0.07,-0.08 -0.07,-0.13 -0.01,0 -0.02,0 -0.04,0 -0.01,-0.02 -0.01,-0.04 -0.02,-0.06 -0.03,-0.03 -0.03,-0.03 -0.07,-0.06 -0.05,-0.04 -0.08,-0.06 -0.11,-0.11 -0.03,-0.01 -0.03,-0.01 -0.06,-0.02 -0.06,-0.06 -0.06,-0.06 -0.06,-0.11 -0.01,0 -0.02,0 -0.04,0 -0.01,-0.01 -0.02,-0.03 -0.02,-0.04 -0.04,-0.06 -0.07,-0.07 -0.12,-0.11 -0.01,-0.02 -0.03,-0.05 -0.04,-0.07 -0.02,-0.01 -0.05,-0.03 -0.07,-0.04 -0.04,-0.04 -0.04,-0.04 -0.07,-0.07 0,-0.01 0,-0.02 0,-0.04 -0.02,-0.01 -0.04,-0.01 -0.06,-0.02 0,-0.01 0,-0.02 0,-0.04 -0.01,-0.01 -0.02,-0.01 -0.04,-0.02 0.03,-0.04 0.06,-0.09 0.09,-0.13z"/>
  <path class="fil6" d="M3.07 1.52c0.06,0 0.09,0.01 0.13,0.05 0.16,0.21 0.23,0.44 0.23,0.7 0,0.02 0,0.03 0,0.05 -0,0.02 -0,0.03 -0,0.05 -0,0.01 -0,0.03 -0,0.04 -0,0.04 -0,0.04 -0.04,0.09 -0.06,0.01 -0.06,0.01 -0.11,0 -0.05,-0.07 -0.04,-0.12 -0.04,-0.2 0,-0.23 -0.05,-0.41 -0.18,-0.61 -0.03,-0.05 -0.03,-0.08 -0.03,-0.14 0.01,-0.01 0.02,-0.02 0.04,-0.04z"/>
  <path class="fil9" d="M1.95 1.21c0.01,0.06 0.01,0.06 0.02,0.13 -0.03,0.01 -0.03,0.01 -0.05,0.03 -0.27,0.15 -0.43,0.31 -0.56,0.59 -0.02,0.02 -0.02,0.02 -0.06,0.02 -0.05,-0 -0.05,-0 -0.09,-0.04 0,-0.19 0.14,-0.36 0.26,-0.49 0.14,-0.13 0.3,-0.24 0.48,-0.24z"/>
  <path class="fil10" d="M1.73 4.49c0.34,0 0.69,0 1.05,0 0,0.05 0,0.1 0,0.15 -0.34,0 -0.69,0 -1.05,0 0,-0.05 0,-0.1 0,-0.15z"/>
  <path class="fil9" d="M1.09 3.15c0.09,0.02 0.13,0.07 0.19,0.14 0.07,0.08 0.14,0.13 0.24,0.18 0.07,0.03 0.12,0.07 0.16,0.14 0,0.02 0.01,0.03 0.01,0.05 -0.01,0.02 -0.02,0.04 -0.04,0.06 -0.13,0.02 -0.22,-0.06 -0.32,-0.13 -0.06,-0.05 -0.13,-0.11 -0.19,-0.17 -0.01,-0.01 -0.02,-0.02 -0.04,-0.03 -0.05,-0.05 -0.07,-0.07 -0.09,-0.14 0.01,-0.05 0.01,-0.05 0.07,-0.09z"/>
 </g>
</svg>
