<?xml version="1.0" encoding="UTF-8"?>
<!DOCTYPE svg PUBLIC "-//W3C//DTD SVG 1.1//EN" "http://www.w3.org/Graphics/SVG/1.1/DTD/svg11.dtd">
<!-- Creator: CorelDRAW -->
<svg xmlns="http://www.w3.org/2000/svg" xml:space="preserve" width="10.1703mm" height="11.0109mm" version="1.1" style="shape-rendering:geometricPrecision; text-rendering:geometricPrecision; image-rendering:optimizeQuality; fill-rule:evenodd; clip-rule:evenodd"
viewBox="0 0 6.65 7.2"
 xmlns:xlink="http://www.w3.org/1999/xlink"
 xmlns:xodm="http://www.corel.com/coreldraw/odm/2003">
 <defs>
  <style type="text/css">
   <![CDATA[
    .fil9 {fill:black;fill-rule:nonzero}
    .fil0 {fill:#010102;fill-rule:nonzero}
    .fil7 {fill:#020100;fill-rule:nonzero}
    .fil10 {fill:#163245;fill-rule:nonzero}
    .fil3 {fill:#4296CE;fill-rule:nonzero}
    .fil5 {fill:#4296CF;fill-rule:nonzero}
    .fil6 {fill:#4297CF;fill-rule:nonzero}
    .fil4 {fill:#4297D0;fill-rule:nonzero}
    .fil8 {fill:#B0B0B0;fill-rule:nonzero}
    .fil12 {fill:#B1B1B1;fill-rule:nonzero}
    .fil11 {fill:#CD9326;fill-rule:nonzero}
    .fil2 {fill:#CFCFCF;fill-rule:nonzero}
    .fil1 {fill:#FBB52E;fill-rule:nonzero}
   ]]>
  </style>
 </defs>
 <g id="Camada_x0020_1">
  <metadata id="CorelCorpID_0Corel-Layer"/>
  <g id="_2763552029216">
   <path class="fil0" d="M1.16 2.79c0.01,-0 0.02,-0 0.02,-0 0.03,-0 0.05,0 0.08,0 0.02,-0 0.04,-0 0.06,-0 0.04,-0 0.08,-0 0.12,0 0.06,0 0.12,0 0.18,0 0.11,-0 0.21,-0 0.32,0 0.09,0 0.19,0 0.28,0 0.01,0 0.01,0 0.02,0 0.03,0 0.05,0 0.08,0 0.24,-0 0.47,0 0.71,0 0.21,0 0.42,0 0.63,0 0.01,0 0.03,0 0.04,0 0.01,0 0.01,0 0.02,0 0.03,0 0.07,0 0.1,0 0.01,0 0.01,0 0.02,-0 0.18,0 0.35,0 0.53,0 0.02,0 0.04,0 0.06,0 0.01,0 0.03,0 0.04,0 0.09,0 0.17,0 0.26,0 0.11,0 0.22,0 0.34,0 0.06,0 0.12,0 0.18,0 0.04,-0 0.08,0 0.12,0 0.02,0 0.05,0 0.07,0 0.02,-0 0.05,0 0.07,0 0.01,-0 0.01,-0 0.02,-0 0.04,0 0.06,0 0.1,0.03 0.01,0.01 0.01,0.01 0.02,0.03 0,0.01 0,0.01 0.01,0.02 0,0.01 0,0.01 0.01,0.02 0,0.01 0.01,0.01 0.01,0.02 0.01,0.02 0.02,0.04 0.02,0.06 0,0.01 0.01,0.02 0.01,0.03 0.01,0.03 0.03,0.07 0.04,0.1 0.01,0.01 0.01,0.03 0.02,0.04 0.01,0.03 0.02,0.06 0.03,0.08 0.02,0.05 0.04,0.09 0.05,0.14 0.02,0.06 0.04,0.11 0.07,0.17 0.06,0.16 0.13,0.32 0.19,0.49 0.01,0.02 0.02,0.05 0.03,0.07 0.08,0.21 0.17,0.42 0.25,0.63 0.06,0.16 0.13,0.32 0.19,0.47 0,0.01 0.01,0.02 0.01,0.02 0.01,0.02 0.02,0.04 0.03,0.06 0,0.01 0,0.01 0.01,0.02 0,0.01 0.01,0.02 0.01,0.03 0,0.01 0.01,0.02 0.01,0.03 0.03,0.06 0.02,0.13 0.02,0.2 0,0.01 0,0.03 0,0.04 -0,0.03 -0,0.05 -0,0.08 -0,0.03 -0,0.07 -0,0.1 0,0.03 -0,0.05 -0,0.08 -0,0.01 -0,0.03 -0,0.04 0,0.02 -0,0.04 -0,0.05 0,0.01 0,0.01 0,0.02 -0,0.04 -0.01,0.06 -0.03,0.09 -0.03,0.02 -0.05,0.02 -0.08,0.02 -0,0 -0.01,0 -0.01,0 -0.02,0 -0.03,0 -0.05,-0 -0.01,0 -0.02,0 -0.03,0 -0.03,0 -0.06,-0 -0.09,-0 -0.03,-0 -0.07,0 -0.1,0 -0.06,0 -0.11,-0 -0.17,-0 -0.08,-0 -0.16,-0 -0.24,-0 -0.13,-0 -0.26,-0 -0.4,-0 -0.13,-0 -0.26,-0 -0.39,-0 -0.01,0 -0.02,0 -0.02,0 -0.04,0 -0.08,0 -0.12,0 -0.33,-0 -0.66,-0 -0.99,-0 0,0.13 0,0.25 0,0.39 0.08,-0 0.08,-0 0.17,-0 0.08,-0 0.15,0.01 0.22,0.06 0.01,0.01 0.01,0.01 0.02,0.02 0.07,0.06 0.09,0.13 0.11,0.22 0,0.03 0,0.06 0,0.08 0,0.01 0,0.01 0,0.02 0,0.02 0,0.03 0,0.05 0,0.02 0,0.05 0,0.07 0,0.02 0,0.03 0,0.05 0,0.01 0,0.01 0,0.02 -0,0.04 -0,0.07 -0.02,0.11 -0.02,0.02 -0.04,0.02 -0.06,0.02 -0.01,0 -0.01,0 -0.02,0 -0.01,-0 -0.01,-0 -0.02,-0 -0.01,0 -0.02,0 -0.03,0 -0.02,0 -0.05,0 -0.07,0 -0.03,0 -0.05,0 -0.08,0 -0.05,0 -0.1,0 -0.15,0 -0.04,-0 -0.08,0 -0.12,0 -0.01,0 -0.02,0 -0.04,0 -0.01,0 -0.01,0 -0.02,0 -0.11,0 -0.23,0 -0.34,0 -0.1,-0 -0.21,0 -0.31,0 -0.11,0 -0.21,0 -0.32,0 -0.06,-0 -0.12,0 -0.18,0 -0.05,0 -0.1,0 -0.15,0 -0.03,-0 -0.05,-0 -0.08,0 -0.03,0 -0.06,0 -0.08,-0 -0.01,0 -0.02,0 -0.02,0 -0.06,-0 -0.06,-0 -0.08,-0.02 -0.02,-0.03 -0.02,-0.04 -0.02,-0.07 -0,-0.01 -0,-0.02 -0,-0.02 0,-0.01 -0,-0.02 -0,-0.03 -0,-0.01 -0,-0.02 -0,-0.03 -0,-0.02 -0,-0.04 -0,-0.06 -0,-0.02 -0,-0.04 -0,-0.06 -0,-0.03 -0,-0.06 -0,-0.08 -0,-0.01 -0,-0.02 -0,-0.03 0,-0.1 0.03,-0.18 0.1,-0.25 0.06,-0.06 0.13,-0.08 0.21,-0.08 0.01,0 0.01,0 0.02,0 0.02,0 0.04,0 0.06,0 0.04,0 0.09,0 0.13,0 0,-0.13 0,-0.25 0,-0.39 -0.05,0 -0.05,0 -0.1,0 -0.3,0 -0.61,0 -0.91,0 -0.04,0 -0.08,0 -0.12,0 -0.01,0 -0.02,0 -0.02,0 -0.13,0 -0.26,0 -0.39,0 -0.13,0 -0.26,0 -0.4,0 -0.08,0 -0.16,0 -0.24,0 -0.06,0 -0.11,0 -0.17,0 -0.03,0 -0.06,0 -0.1,0 -0.03,0 -0.06,0 -0.09,0 -0.01,0 -0.02,0 -0.03,0 -0.01,0 -0.03,0 -0.04,-0 -0.01,0 -0.01,0 -0.02,0 -0.03,-0 -0.04,-0.01 -0.06,-0.03 -0.02,-0.03 -0.02,-0.05 -0.02,-0.08 -0,-0.01 -0,-0.01 -0,-0.02 -0,-0.06 -0,-0.12 -0,-0.18 -0,-0.03 -0,-0.06 -0,-0.09 -0.01,-0.18 0.01,-0.32 0.08,-0.48 0.03,-0.06 0.06,-0.13 0.08,-0.2 0.02,-0.04 0.03,-0.08 0.05,-0.12 0.01,-0.02 0.01,-0.03 0.02,-0.05 0.1,-0.25 0.2,-0.5 0.3,-0.75 0.06,-0.14 0.11,-0.28 0.17,-0.42 0.01,-0.02 0.02,-0.04 0.02,-0.06 0.01,-0.01 0.01,-0.03 0.02,-0.04 0,-0.01 0.01,-0.02 0.01,-0.02 0.02,-0.05 0.04,-0.11 0.06,-0.16 0.03,-0.06 0.05,-0.13 0.08,-0.19 0.01,-0.04 0.03,-0.07 0.04,-0.11 0.01,-0.03 0.03,-0.07 0.04,-0.1 0.01,-0.01 0.01,-0.03 0.02,-0.04 0.01,-0.02 0.01,-0.04 0.02,-0.05 0,-0.01 0,-0.01 0.01,-0.02 0.03,-0.07 0.07,-0.09 0.15,-0.09z"/>
   <path class="fil1" d="M4.1 1.3c0.03,0.03 0.06,0.05 0.08,0.08 0,0 0.01,0.01 0.01,0.01 0.22,0.21 0.32,0.51 0.34,0.8 0,0.01 0,0.01 0,0.02 0,0.01 0,0.01 0,0.02 -0,0.03 -0.02,0.06 -0.04,0.07 -0.02,0.01 -0.04,0.01 -0.06,0.01 -0.01,0 -0.02,0 -0.02,0 -0.01,0 -0.02,0 -0.03,0 -0.01,0 -0.02,0 -0.03,0 -0.03,0 -0.05,0 -0.08,0 -0.03,0 -0.06,0 -0.08,0 -0.07,0 -0.14,0 -0.2,0 -0.03,0 -0.06,0 -0.1,0 -0.11,0 -0.21,0 -0.32,0 -0.03,0 -0.06,0 -0.08,0 -0.01,0 -0.01,0 -0.02,0 -0.11,0 -0.22,0 -0.33,0 -0.11,0 -0.23,0 -0.34,0 -0.06,0 -0.13,0 -0.19,0 -0.05,0 -0.11,0 -0.16,0 -0.03,0 -0.06,0 -0.08,0 -0.03,0 -0.05,0 -0.08,0 -0.01,0 -0.03,0 -0.04,0 -0.07,-0 -0.07,-0 -0.11,-0.03 -0.04,-0.06 -0.02,-0.19 -0,-0.27 0.04,-0.18 0.1,-0.36 0.22,-0.51 0,-0.01 0.01,-0.01 0.01,-0.02 0.05,-0.07 0.11,-0.14 0.18,-0.19 0.01,-0.01 0.01,-0.01 0.02,-0.02 0.44,-0.36 1.11,-0.36 1.54,0.02z"/>
   <path class="fil2" d="M0.17 5.53c2.08,0 4.16,0 6.3,0 0,0.13 0,0.26 0,0.39 -2.08,0 -4.16,0 -6.3,0 0,-0.13 0,-0.26 0,-0.39z"/>
   <path class="fil3" d="M2 4.24c0.41,0 0.82,0 1.24,0 0,0.37 0,0.75 0,1.13 -0.48,0 -0.96,0 -1.46,0 0,-0.04 0.01,-0.08 0.02,-0.12 0,-0 0,-0.01 0,-0.01 0,-0.02 0.01,-0.03 0.01,-0.05 0,-0.01 0,-0.02 0.01,-0.03 0.01,-0.03 0.01,-0.06 0.02,-0.09 0.01,-0.05 0.02,-0.1 0.03,-0.15 0,-0.01 0,-0.01 0,-0.02 0.02,-0.08 0.03,-0.17 0.05,-0.25 0.03,-0.14 0.05,-0.27 0.08,-0.41z"/>
   <path class="fil4" d="M3.4 4.24c0.41,0 0.82,0 1.24,0 0.02,0.06 0.03,0.12 0.04,0.19 0,0.02 0.01,0.03 0.01,0.05 0.01,0.05 0.02,0.11 0.03,0.16 0.01,0.07 0.02,0.14 0.04,0.2 0,0.01 0,0.02 0.01,0.04 0.02,0.09 0.04,0.17 0.05,0.26 0.01,0.04 0.02,0.08 0.03,0.12 0,0.01 0,0.01 0,0.02 0,0.01 0,0.01 0,0.02 0,0.01 0,0.01 0,0.01 0,0.02 0,0.04 0,0.06 -0.48,0 -0.96,0 -1.45,0 0,-0.37 0,-0.74 0,-1.12z"/>
   <path class="fil4" d="M4.8 4.24c0.39,0 0.79,0 1.19,0 0.01,0.04 0.03,0.07 0.04,0.11 0.01,0.03 0.01,0.03 0.03,0.06 0.01,0.02 0.02,0.04 0.02,0.06 0.01,0.02 0.02,0.05 0.03,0.07 0,0.01 0.01,0.02 0.01,0.03 0.01,0.02 0.01,0.03 0.02,0.05 0.02,0.06 0.05,0.12 0.07,0.19 0.01,0.02 0.02,0.04 0.03,0.06 0.01,0.03 0.02,0.06 0.04,0.09 0.02,0.04 0.03,0.08 0.05,0.13 0.01,0.02 0.01,0.03 0.02,0.05 0,0.01 0.01,0.01 0.01,0.02 0.02,0.04 0.03,0.07 0.04,0.11 0.01,0.02 0.01,0.04 0.02,0.06 0,0.01 0.01,0.03 0.01,0.04 -0.47,0 -0.94,0 -1.42,0 -0.01,-0.06 -0.02,-0.13 -0.04,-0.2 -0.01,-0.04 -0.02,-0.09 -0.03,-0.13 -0,-0.02 -0.01,-0.04 -0.01,-0.05 -0,-0.01 -0,-0.02 -0.01,-0.04 -0,-0.01 -0,-0.01 -0,-0.02 -0.01,-0.03 -0.01,-0.05 -0.02,-0.07 -0.01,-0.02 -0.01,-0.04 -0.01,-0.06 -0,-0.03 -0.01,-0.05 -0.01,-0.08 -0.01,-0.04 -0.02,-0.09 -0.03,-0.13 -0,-0.01 -0,-0.02 -0.01,-0.02 -0,-0.02 -0.01,-0.03 -0.01,-0.05 -0.01,-0.03 -0.01,-0.05 -0.02,-0.08 -0,-0.02 -0.01,-0.03 -0.01,-0.05 -0,-0.01 -0,-0.02 -0,-0.02 -0,-0.01 -0,-0.01 -0,-0.02 -0,-0.01 -0,-0.01 -0,-0.02 -0,-0.03 -0.01,-0.05 -0.01,-0.08z"/>
   <path class="fil4" d="M0.67 4.24c0.01,0 0.02,0 0.03,0 0,0 0.01,0 0.01,0 0.02,0 0.03,0 0.05,0 0.01,0 0.02,0 0.04,0 0.03,0 0.06,0 0.1,0 0.03,0 0.07,0 0.1,0 0.06,0 0.13,0 0.19,0 0.07,0 0.14,0 0.22,0 0.15,0 0.29,0 0.44,0 -0,0.05 -0.01,0.11 -0.02,0.16 -0,0.01 -0,0.02 -0.01,0.03 -0,0.02 -0.01,0.05 -0.01,0.07 -0.01,0.02 -0.01,0.05 -0.02,0.07 -0.01,0.05 -0.02,0.09 -0.03,0.14 -0.01,0.07 -0.03,0.14 -0.04,0.21 -0,0.01 -0,0.01 -0,0.02 -0,0.01 -0,0.02 -0.01,0.03 -0.01,0.03 -0.01,0.06 -0.02,0.09 -0,0.01 -0.01,0.03 -0.01,0.04 -0,0.02 -0.01,0.03 -0.01,0.05 -0.01,0.07 -0.03,0.15 -0.04,0.22 -0.47,0 -0.93,0 -1.41,0 0.01,-0.03 0.01,-0.05 0.02,-0.08 0,-0.01 0.01,-0.01 0.01,-0.02 0,-0.01 0,-0.01 0.01,-0.02 0,-0.01 0.01,-0.02 0.01,-0.02 0.01,-0.02 0.02,-0.05 0.03,-0.07 0.01,-0.02 0.01,-0.03 0.02,-0.05 0.01,-0.03 0.02,-0.06 0.04,-0.09 0.01,-0.03 0.02,-0.06 0.04,-0.09 0,-0.01 0.01,-0.02 0.01,-0.03 0.02,-0.06 0.05,-0.11 0.07,-0.17 0.02,-0.04 0.03,-0.08 0.05,-0.12 0.01,-0.03 0.03,-0.07 0.04,-0.1 0.01,-0.03 0.03,-0.07 0.04,-0.1 0.01,-0.01 0.01,-0.03 0.02,-0.04 0.01,-0.02 0.01,-0.04 0.02,-0.05 0,-0.01 0,-0.01 0.01,-0.02 0.02,-0.04 0.02,-0.04 0.04,-0.04z"/>
   <path class="fil3" d="M3.4 2.96c0.32,0 0.64,0 0.98,0 0.01,0.03 0.02,0.05 0.02,0.08 0,0.01 0,0.02 0.01,0.03 0,0.01 0,0.02 0.01,0.03 0,0.01 0,0.02 0.01,0.03 0.01,0.03 0.01,0.05 0.02,0.08 0.01,0.04 0.02,0.09 0.03,0.13 0,0.01 0.01,0.03 0.01,0.04 0,0.01 0,0.02 0.01,0.03 0,0.01 0,0.02 0,0.02 0,0.02 0,0.02 0.01,0.03 0,0.02 0,0.03 0.01,0.05 0.01,0.06 0.02,0.11 0.03,0.17 0,0 0,0.01 0,0.01 0.01,0.06 0.02,0.12 0.04,0.18 0.01,0.03 0.02,0.07 0.02,0.1 0,0.01 0,0.01 0,0.02 0,0.01 0,0.01 0,0.02 0,0 0,0.01 0,0.01 0,0.02 0,0.04 0,0.06 -0.4,0 -0.79,0 -1.2,0 0,-0.37 0,-0.75 0,-1.13z"/>
   <path class="fil4" d="M2.26 2.97c0.32,0 0.64,0 0.98,0 0,0.37 0,0.74 0,1.12 -0.39,0 -0.79,0 -1.19,0 0.02,-0.13 0.02,-0.13 0.03,-0.18 0,-0.01 0,-0.01 0,-0.02 0,-0.01 0,-0.02 0.01,-0.03 0.01,-0.03 0.01,-0.06 0.02,-0.09 0,-0.01 0,-0.01 0,-0.02 0.01,-0.05 0.02,-0.11 0.03,-0.16 0.02,-0.13 0.05,-0.25 0.07,-0.38 0,-0.02 0.01,-0.03 0.01,-0.05 0,-0.02 0.01,-0.05 0.01,-0.07 0,-0.01 0.01,-0.03 0.01,-0.04 0,-0.01 0,-0.02 0.01,-0.02 0,-0.01 0,-0.01 0,-0.02 0,-0.02 0,-0.02 0.01,-0.03z"/>
   <path class="fil5" d="M1.16 2.96c0.31,0 0.62,0 0.94,0 -0.01,0.06 -0.01,0.06 -0.01,0.08 -0,0.01 -0,0.01 -0,0.02 -0,0.01 -0,0.01 -0,0.02 -0,0.01 -0,0.01 -0,0.02 -0,0.01 -0.01,0.03 -0.01,0.04 -0,0.02 -0.01,0.05 -0.01,0.07 -0.01,0.07 -0.03,0.14 -0.04,0.2 -0.01,0.04 -0.02,0.08 -0.03,0.12 -0,0.02 -0.01,0.03 -0.01,0.05 -0.02,0.08 -0.03,0.16 -0.04,0.24 -0.01,0.04 -0.01,0.08 -0.03,0.12 -0.01,0.04 -0.02,0.07 -0.02,0.11 -0,0.02 -0,0.02 -0.01,0.03 -0.38,0 -0.76,0 -1.14,0 0.01,-0.07 0.01,-0.07 0.02,-0.1 0,-0.01 0,-0.01 0.01,-0.02 0,-0.01 0,-0.01 0.01,-0.02 0,-0.01 0.01,-0.02 0.01,-0.03 0.01,-0.02 0.02,-0.04 0.02,-0.06 0.01,-0.03 0.02,-0.06 0.04,-0.09 0,-0.01 0.01,-0.02 0.01,-0.03 0,-0.01 0,-0.01 0.01,-0.02 0.01,-0.02 0.01,-0.03 0.02,-0.05 0.05,-0.12 0.09,-0.23 0.14,-0.35 0.01,-0.03 0.02,-0.06 0.03,-0.08 0.01,-0.02 0.02,-0.04 0.03,-0.06 0,-0.01 0.01,-0.02 0.01,-0.03 0.01,-0.01 0.01,-0.03 0.02,-0.04 0,-0.01 0.01,-0.02 0.01,-0.02 0.02,-0.04 0.03,-0.08 0.05,-0.12z"/>
   <path class="fil6" d="M4.54 2.96c0.31,0 0.62,0 0.93,0 0.17,0.43 0.17,0.43 0.19,0.47 0.01,0.03 0.02,0.06 0.03,0.09 0.03,0.07 0.06,0.14 0.09,0.22 0.01,0.03 0.03,0.06 0.04,0.1 0.01,0.02 0.01,0.03 0.02,0.05 0.01,0.02 0.02,0.04 0.03,0.06 0,0.01 0,0.01 0.01,0.02 0.01,0.03 0.02,0.05 0.03,0.08 0.01,0.02 0.01,0.02 0.01,0.04 -0.38,0 -0.76,0 -1.15,0 -0.02,-0.07 -0.03,-0.14 -0.05,-0.21 -0,-0.01 -0,-0.02 -0.01,-0.03 -0,-0.02 -0.01,-0.04 -0.01,-0.06 -0.01,-0.03 -0.01,-0.06 -0.02,-0.09 -0.01,-0.06 -0.02,-0.12 -0.04,-0.18 -0.02,-0.08 -0.03,-0.15 -0.05,-0.23 -0.01,-0.03 -0.01,-0.06 -0.02,-0.09 -0,-0.01 -0.01,-0.03 -0.01,-0.04 -0,-0.02 -0.01,-0.04 -0.01,-0.05 -0,-0.01 -0,-0.01 -0,-0.02 -0,-0.01 -0,-0.01 -0,-0.02 -0,-0.02 -0,-0.02 -0.01,-0.03 0,-0.02 0,-0.04 0,-0.06z"/>
   <path class="fil7" d="M4.1 1.3c0.03,0.03 0.06,0.05 0.08,0.08 0,0 0.01,0.01 0.01,0.01 0.22,0.21 0.32,0.51 0.34,0.8 0,0.01 0,0.01 0,0.02 0,0.01 0,0.01 0,0.02 -0,0.03 -0.02,0.06 -0.04,0.07 -0.02,0.01 -0.04,0.01 -0.06,0.01 -0.01,0 -0.02,0 -0.02,0 -0.01,0 -0.02,0 -0.03,0 -0.01,0 -0.02,0 -0.03,0 -0.03,0 -0.05,0 -0.08,0 -0.03,0 -0.06,0 -0.08,0 -0.07,0 -0.14,0 -0.2,0 -0.03,0 -0.06,0 -0.1,0 -0.11,0 -0.21,0 -0.32,0 -0.03,0 -0.06,0 -0.08,0 -0.01,0 -0.01,0 -0.02,0 -0.11,0 -0.22,0 -0.33,0 -0.11,0 -0.23,0 -0.34,0 -0.06,0 -0.13,0 -0.19,0 -0.05,0 -0.11,0 -0.16,0 -0.03,0 -0.06,0 -0.08,0 -0.03,0 -0.05,0 -0.08,0 -0.01,0 -0.03,0 -0.04,0 -0.07,-0 -0.07,-0 -0.11,-0.03 -0.04,-0.06 -0.02,-0.19 -0,-0.27 0.04,-0.18 0.1,-0.36 0.22,-0.51 0,-0.01 0.01,-0.01 0.01,-0.02 0.05,-0.07 0.11,-0.14 0.18,-0.19 0.01,-0.01 0.01,-0.01 0.02,-0.02 0.44,-0.36 1.11,-0.36 1.54,0.02zm-1.05 -0.08c-0.01,0 -0.01,0 -0.02,0.01 -0.15,0.05 -0.28,0.12 -0.4,0.22 -0.01,0 -0.01,0.01 -0.02,0.01 -0.03,0.03 -0.06,0.06 -0.09,0.09 -0.01,0.01 -0.01,0.01 -0.02,0.02 -0.14,0.16 -0.23,0.37 -0.23,0.58 0.69,0 1.37,0 2.08,0 -0.01,-0.08 -0.01,-0.08 -0.02,-0.16 -0,-0.01 -0,-0.01 -0,-0.02 -0,-0.02 -0.01,-0.03 -0.01,-0.05 -0,-0.01 -0,-0.01 -0,-0.01 -0.03,-0.11 -0.08,-0.2 -0.15,-0.29 -0,-0.01 -0.01,-0.01 -0.01,-0.02 -0.11,-0.15 -0.27,-0.25 -0.44,-0.33 -0.01,-0 -0.01,-0 -0.02,-0.01 -0.04,-0.02 -0.08,-0.03 -0.12,-0.04 -0.01,-0 -0.01,-0 -0.02,-0 -0.16,-0.04 -0.35,-0.04 -0.51,0.01z"/>
   <path class="fil2" d="M2.51 6.64c0.01,-0 0.01,-0 0.02,-0 0.01,0 0.01,0 0.02,0 0.01,0 0.01,-0 0.02,-0 0.02,-0 0.05,-0 0.07,-0 0.02,-0 0.03,-0 0.05,-0 0.05,-0 0.11,-0 0.16,-0 0.02,0 0.04,-0 0.06,-0 0.08,-0 0.15,-0 0.23,-0 0.02,0 0.04,-0 0.06,-0 0.01,0 0.01,0 0.02,0 0.08,-0 0.16,-0 0.24,-0 0.08,-0 0.17,-0 0.25,-0 0.05,-0 0.09,-0 0.14,-0 0.04,-0 0.09,-0 0.13,-0 0.02,0 0.03,-0 0.05,-0 0.02,-0 0.04,-0 0.07,0 0.01,-0 0.01,-0 0.02,-0 0.05,0 0.08,0.01 0.12,0.04 0.04,0.05 0.04,0.05 0.04,0.36 -0.62,0 -1.25,0 -1.89,0 0,-0.31 0,-0.31 0.04,-0.35 0,-0 0.01,-0.01 0.01,-0.01 0,-0 0.01,-0.01 0.01,-0.01 0.02,-0.01 0.04,-0.02 0.06,-0.02z"/>
   <path class="fil8" d="M2.89 6.08c0.29,0 0.57,0 0.87,0 0,0.13 0,0.26 0,0.39 -0.29,0 -0.57,0 -0.87,0 0,-0.13 0,-0.26 0,-0.39z"/>
   <path class="fil9" d="M1.85 0.64c0.04,0.02 0.07,0.06 0.11,0.09 0.01,0.01 0.02,0.02 0.02,0.02 0.02,0.02 0.03,0.03 0.05,0.05 0.02,0.02 0.04,0.04 0.06,0.06 0.02,0.02 0.03,0.03 0.05,0.05 0.01,0.01 0.01,0.01 0.02,0.02 0.1,0.1 0.1,0.1 0.11,0.14 -0,0.03 -0,0.05 -0.02,0.07 -0.03,0.02 -0.04,0.03 -0.08,0.03 -0.03,-0 -0.04,-0.01 -0.06,-0.03 -0,-0 -0.01,-0.01 -0.01,-0.01 -0.03,-0.03 -0.06,-0.06 -0.1,-0.09 -0,-0 -0.01,-0.01 -0.01,-0.01 -0.02,-0.02 -0.04,-0.04 -0.06,-0.06 -0.02,-0.02 -0.04,-0.04 -0.06,-0.06 -0.02,-0.02 -0.03,-0.03 -0.05,-0.05 -0.01,-0.01 -0.01,-0.01 -0.02,-0.02 -0.01,-0.01 -0.02,-0.02 -0.03,-0.03 -0.01,-0.01 -0.01,-0.01 -0.02,-0.02 -0.02,-0.03 -0.04,-0.06 -0.04,-0.09 0.01,-0.03 0.02,-0.04 0.04,-0.07 0.03,-0.01 0.06,-0.01 0.09,0z"/>
   <path class="fil9" d="M4.99 2.14c0.01,-0 0.01,-0 0.02,-0 0.02,-0 0.03,-0 0.05,0 0.01,0 0.02,0 0.04,-0 0.03,0 0.05,0 0.08,0 0.03,0 0.07,0 0.1,-0 0.03,-0 0.05,-0 0.08,0 0.01,0 0.02,0 0.04,-0 0.02,-0 0.03,0 0.05,0 0,0 0.01,-0 0.01,-0 0.04,0 0.07,0.01 0.1,0.04 0.02,0.03 0.02,0.07 0.01,0.1 -0.02,0.02 -0.02,0.03 -0.05,0.04 -0.02,0 -0.04,0 -0.06,0 -0.01,0 -0.01,0 -0.02,0 -0.02,0 -0.04,0 -0.06,0 -0.01,0 -0.03,0 -0.04,0 -0.03,0 -0.06,0 -0.08,0 -0.04,-0 -0.07,0 -0.11,0 -0.03,0 -0.05,0 -0.08,0 -0.01,0 -0.03,0 -0.04,0 -0.02,0 -0.04,0 -0.05,-0 -0.01,0 -0.01,0 -0.02,0 -0.04,-0 -0.06,-0.01 -0.08,-0.04 -0.01,-0.03 -0.01,-0.06 -0.01,-0.08 0.01,-0.03 0.02,-0.03 0.04,-0.05 0.03,-0.01 0.05,-0.01 0.08,-0.01z"/>
   <path class="fil9" d="M1.22 2.14c0.01,0 0.01,-0 0.02,-0 0.02,-0 0.03,-0 0.05,0 0.01,0 0.02,0 0.04,-0 0.03,0 0.05,0 0.08,0 0.03,0 0.06,0 0.1,-0 0.02,-0 0.05,-0 0.07,0 0.01,0 0.02,0 0.04,-0 0.02,-0 0.03,0 0.05,0 0.01,-0 0.01,-0 0.01,-0 0.04,0 0.07,0.01 0.1,0.04 0.02,0.03 0.02,0.07 0.01,0.1 -0.02,0.02 -0.02,0.03 -0.05,0.04 -0.02,0 -0.04,0 -0.06,0 -0.01,0 -0.01,0 -0.02,0 -0.02,0 -0.04,0 -0.06,0 -0.01,0 -0.03,0 -0.04,0 -0.03,0 -0.06,0 -0.08,0 -0.04,-0 -0.07,0 -0.11,0 -0.03,0 -0.05,0 -0.08,0 -0.01,0 -0.03,0 -0.04,0 -0.02,0 -0.04,0 -0.05,-0 -0.01,0 -0.01,0 -0.02,0 -0.04,-0 -0.06,-0.01 -0.08,-0.04 -0.01,-0.03 -0.01,-0.06 -0.01,-0.08 0.01,-0.02 0.01,-0.02 0.02,-0.04 0.04,-0.02 0.07,-0.02 0.11,-0.02z"/>
   <path class="fil9" d="M3.36 0c0.02,0.01 0.03,0.02 0.04,0.05 0.01,0.03 0.01,0.05 0.01,0.08 0,0.01 0,0.01 0,0.02 0,0.02 0,0.03 0,0.05 0,0.01 0,0.02 0,0.04 0,0.03 0,0.05 0,0.08 -0,0.03 0,0.06 0,0.1 0,0.02 0,0.05 0,0.07 0,0.01 0,0.02 0,0.04 0,0.02 0,0.03 -0,0.05 0,0.01 0,0.01 0,0.01 -0,0.04 -0.01,0.06 -0.02,0.1 -0.02,0.02 -0.04,0.02 -0.07,0.02 -0.03,-0 -0.04,-0 -0.06,-0.02 -0.03,-0.03 -0.03,-0.05 -0.03,-0.09 0,-0.01 -0,-0.01 -0,-0.02 -0,-0.02 -0,-0.04 -0,-0.06 -0,-0.01 -0,-0.03 -0,-0.04 -0,-0.03 -0,-0.06 -0,-0.08 -0,-0.04 -0,-0.07 -0,-0.11 -0,-0.03 -0,-0.05 -0,-0.08 0,-0.01 -0,-0.03 -0,-0.04 -0,-0.02 -0,-0.04 -0,-0.06 -0,-0.01 -0,-0.01 -0,-0.02 0,-0.03 0,-0.05 0.02,-0.08 0.03,-0.02 0.07,-0.02 0.11,-0.01z"/>
   <path class="fil9" d="M4.89 0.64c0.03,0.02 0.04,0.04 0.05,0.08 0,0.04 -0.03,0.06 -0.05,0.09 -0.01,0.01 -0.01,0.01 -0.02,0.02 -0,0 -0.01,0.01 -0.01,0.01 -0.01,0.01 -0.02,0.02 -0.04,0.04 -0.01,0.01 -0.02,0.02 -0.03,0.03 -0.02,0.02 -0.04,0.04 -0.05,0.05 -0.02,0.02 -0.05,0.05 -0.07,0.07 -0.02,0.02 -0.04,0.04 -0.05,0.05 -0.01,0.01 -0.02,0.02 -0.03,0.03 -0.01,0.01 -0.02,0.02 -0.04,0.04 -0,0 -0.01,0.01 -0.01,0.01 -0.02,0.02 -0.04,0.03 -0.07,0.03 -0.03,-0 -0.05,-0.01 -0.07,-0.03 -0.02,-0.02 -0.02,-0.05 -0.02,-0.08 0.02,-0.03 0.04,-0.06 0.07,-0.08 0,-0 0.01,-0.01 0.01,-0.01 0.01,-0.01 0.02,-0.02 0.04,-0.04 0.01,-0.01 0.02,-0.02 0.03,-0.03 0.02,-0.02 0.04,-0.04 0.05,-0.05 0.02,-0.02 0.05,-0.04 0.07,-0.07 0.02,-0.02 0.03,-0.03 0.05,-0.05 0.01,-0.01 0.02,-0.02 0.02,-0.02 0.01,-0.01 0.02,-0.02 0.03,-0.03 0,-0 0.01,-0.01 0.01,-0.01 0.04,-0.04 0.07,-0.05 0.12,-0.03z"/>
   <path class="fil10" d="M2.26 2.96c0.33,0 0.65,0 0.99,0 0,0.28 0,0.28 0,0.4 0,0.08 0,0.16 0,0.25 0,0.06 0,0.12 0,0.18 0,0.03 0,0.06 0,0.09 0,0.03 0,0.06 0,0.09 0,0.01 0,0.02 0,0.03 0,0.01 0,0.03 0,0.04 0,0.01 0,0.01 0,0.03 -0,0.02 -0,0.02 -0.01,0.03 -0.02,0 -0.03,0 -0.05,0 -0,0 -0.01,0 -0.01,0 -0.02,0 -0.03,-0 -0.05,-0 -0.01,0 -0.02,0 -0.04,0 -0.03,0 -0.06,-0 -0.1,-0 -0.03,0 -0.07,0 -0.1,-0 -0.06,0 -0.13,-0 -0.19,-0 -0.07,-0 -0.15,-0 -0.22,-0 -0.15,-0 -0.3,-0 -0.45,-0 0,-0.03 0,-0.03 0.01,-0.06 0.01,0.03 0.01,0.03 0,0.04 0.39,0 0.79,0 1.19,0 0,-0.37 0,-0.74 0,-1.12 -0.32,0 -0.64,0 -0.98,0 0,-0 0,-0 0,-0.01z"/>
   <path class="fil11" d="M2.61 1.46c0,0 0.01,0 0.01,0 -0.01,0.02 -0.02,0.04 -0.04,0.05 -0.01,0.01 -0.01,0.01 -0.01,0.01 -0,0 -0.01,0.01 -0.01,0.01 -0,-0 -0.01,-0 -0.01,-0.01 0.01,-0.01 0.02,-0.02 0.03,-0.04 0.01,-0.01 0.01,-0.01 0.02,-0.02 0,-0.01 0.01,-0.01 0.02,-0.02z"/>
   <path class="fil12" d="M2.45 6.66c-0.01,0.02 -0.02,0.04 -0.04,0.06 -0,0 -0.01,0 -0.01,0 0.01,-0.02 0.03,-0.06 0.06,-0.06z"/>
  </g>
 </g>
</svg>
