<?xml version="1.0" encoding="UTF-8"?>
<!DOCTYPE svg PUBLIC "-//W3C//DTD SVG 1.1//EN" "http://www.w3.org/Graphics/SVG/1.1/DTD/svg11.dtd">
<!-- Creator: CorelDRAW -->
<svg xmlns="http://www.w3.org/2000/svg" xml:space="preserve" width="10.2258mm" height="10.2358mm" version="1.1" style="shape-rendering:geometricPrecision; text-rendering:geometricPrecision; image-rendering:optimizeQuality; fill-rule:evenodd; clip-rule:evenodd"
viewBox="0 0 6.72 6.73"
 xmlns:xlink="http://www.w3.org/1999/xlink"
 xmlns:xodm="http://www.corel.com/coreldraw/odm/2003">
 <defs>
  <style type="text/css">
   <![CDATA[
    .fil4 {fill:#2F4458;fill-rule:nonzero}
    .fil5 {fill:#304559;fill-rule:nonzero}
    .fil136 {fill:#333E45;fill-rule:nonzero}
    .fil3 {fill:#344758;fill-rule:nonzero}
    .fil69 {fill:#344758;fill-rule:nonzero}
    .fil0 {fill:#354859;fill-rule:nonzero}
    .fil139 {fill:#363E47;fill-rule:nonzero}
    .fil137 {fill:#374047;fill-rule:nonzero}
    .fil2 {fill:#384B5B;fill-rule:nonzero}
    .fil121 {fill:#393E43;fill-rule:nonzero}
    .fil88 {fill:#3A3F43;fill-rule:nonzero}
    .fil105 {fill:#3A424A;fill-rule:nonzero}
    .fil128 {fill:#3C4954;fill-rule:nonzero}
    .fil86 {fill:#3E4446;fill-rule:nonzero}
    .fil144 {fill:#40515D;fill-rule:nonzero}
    .fil78 {fill:#41443F;fill-rule:nonzero}
    .fil40 {fill:#41515F;fill-rule:nonzero}
    .fil57 {fill:#424641;fill-rule:nonzero}
    .fil53 {fill:#43403F;fill-rule:nonzero}
    .fil62 {fill:#434541;fill-rule:nonzero}
    .fil87 {fill:#435564;fill-rule:nonzero}
    .fil19 {fill:#443E42;fill-rule:nonzero}
    .fil58 {fill:#444241;fill-rule:nonzero}
    .fil77 {fill:#44453C;fill-rule:nonzero}
    .fil91 {fill:#465767;fill-rule:nonzero}
    .fil45 {fill:#474344;fill-rule:nonzero}
    .fil92 {fill:#475868;fill-rule:nonzero}
    .fil98 {fill:#4A4144;fill-rule:nonzero}
    .fil32 {fill:#4A4647;fill-rule:nonzero}
    .fil100 {fill:#4C5C69;fill-rule:nonzero}
    .fil73 {fill:#4D4546;fill-rule:nonzero}
    .fil124 {fill:#4E413B;fill-rule:nonzero}
    .fil97 {fill:#4F3C3F;fill-rule:nonzero}
    .fil118 {fill:#554C4E;fill-rule:nonzero}
    .fil104 {fill:#594F4C;fill-rule:nonzero}
    .fil90 {fill:#5A504D;fill-rule:nonzero}
    .fil27 {fill:#6EB1BA;fill-rule:nonzero}
    .fil28 {fill:#6EB2BA;fill-rule:nonzero}
    .fil33 {fill:#6EB2BB;fill-rule:nonzero}
    .fil79 {fill:#715B52;fill-rule:nonzero}
    .fil81 {fill:#72BEC7;fill-rule:nonzero}
    .fil111 {fill:#755B51;fill-rule:nonzero}
    .fil49 {fill:#78C1CB;fill-rule:nonzero}
    .fil55 {fill:#78C2CB;fill-rule:nonzero}
    .fil75 {fill:#7CCED5;fill-rule:nonzero}
    .fil84 {fill:#7CCFD6;fill-rule:nonzero}
    .fil106 {fill:#7CD0D7;fill-rule:nonzero}
    .fil54 {fill:#7ECAD3;fill-rule:nonzero}
    .fil17 {fill:#7FD8DF;fill-rule:nonzero}
    .fil15 {fill:#80D6DF;fill-rule:nonzero}
    .fil18 {fill:#80D8E1;fill-rule:nonzero}
    .fil16 {fill:#80D9E1;fill-rule:nonzero}
    .fil103 {fill:#88DBE4;fill-rule:nonzero}
    .fil94 {fill:#895D54;fill-rule:nonzero}
    .fil59 {fill:#906954;fill-rule:nonzero}
    .fil108 {fill:#949EA5;fill-rule:nonzero}
    .fil76 {fill:#966F59;fill-rule:nonzero}
    .fil89 {fill:#997058;fill-rule:nonzero}
    .fil95 {fill:#9C6F54;fill-rule:nonzero}
    .fil93 {fill:#A4806C;fill-rule:nonzero}
    .fil36 {fill:#A6704D;fill-rule:nonzero}
    .fil34 {fill:#A96F4B;fill-rule:nonzero}
    .fil125 {fill:#AC6F48;fill-rule:nonzero}
    .fil123 {fill:#AC7047;fill-rule:nonzero}
    .fil52 {fill:#AD8166;fill-rule:nonzero}
    .fil143 {fill:#ADB5BB;fill-rule:nonzero}
    .fil42 {fill:#B48567;fill-rule:nonzero}
    .fil47 {fill:#B5BEC4;fill-rule:nonzero}
    .fil130 {fill:#B6AC85;fill-rule:nonzero}
    .fil122 {fill:#B7A97D;fill-rule:nonzero}
    .fil37 {fill:#B88465;fill-rule:nonzero}
    .fil109 {fill:#B88768;fill-rule:nonzero}
    .fil101 {fill:#B99B90;fill-rule:nonzero}
    .fil39 {fill:#BA8667;fill-rule:nonzero}
    .fil129 {fill:#BA8D73;fill-rule:nonzero}
    .fil20 {fill:#BAC6CE;fill-rule:nonzero}
    .fil51 {fill:#BB6459;fill-rule:nonzero}
    .fil50 {fill:#BC6559;fill-rule:nonzero}
    .fil7 {fill:#BCC8D1;fill-rule:nonzero}
    .fil46 {fill:#BD794E;fill-rule:nonzero}
    .fil126 {fill:#BEB085;fill-rule:nonzero}
    .fil72 {fill:#C0794A;fill-rule:nonzero}
    .fil133 {fill:#C18B6A;fill-rule:nonzero}
    .fil65 {fill:#C2CACF;fill-rule:nonzero}
    .fil119 {fill:#C38C6C;fill-rule:nonzero}
    .fil60 {fill:#C3B98C;fill-rule:nonzero}
    .fil80 {fill:#C3CAD0;fill-rule:nonzero}
    .fil24 {fill:#C68760;fill-rule:nonzero}
    .fil120 {fill:#CA8C66;fill-rule:nonzero}
    .fil74 {fill:#CB895F;fill-rule:nonzero}
    .fil117 {fill:#CBA4A2;fill-rule:nonzero}
    .fil134 {fill:#CBD2D7;fill-rule:nonzero}
    .fil112 {fill:#CCD4D9;fill-rule:nonzero}
    .fil68 {fill:#CD9C7E;fill-rule:nonzero}
    .fil67 {fill:#CED5DA;fill-rule:nonzero}
    .fil138 {fill:#D0D8DE;fill-rule:nonzero}
    .fil22 {fill:#D48654;fill-rule:nonzero}
    .fil6 {fill:#D58652;fill-rule:nonzero}
    .fil13 {fill:#D58653;fill-rule:nonzero}
    .fil70 {fill:#D6946A;fill-rule:nonzero}
    .fil132 {fill:#D6CBA0;fill-rule:nonzero}
    .fil141 {fill:#D6CDA0;fill-rule:nonzero}
    .fil23 {fill:#D78279;fill-rule:nonzero}
    .fil107 {fill:#D7E0E6;fill-rule:nonzero}
    .fil25 {fill:#D7E3EB;fill-rule:nonzero}
    .fil35 {fill:#D8BA70;fill-rule:nonzero}
    .fil135 {fill:#D9DFE3;fill-rule:nonzero}
    .fil99 {fill:#D9E0E4;fill-rule:nonzero}
    .fil26 {fill:#DAE4E9;fill-rule:nonzero}
    .fil113 {fill:#DB6752;fill-rule:nonzero}
    .fil71 {fill:#DCE3E7;fill-rule:nonzero}
    .fil116 {fill:#DF9B94;fill-rule:nonzero}
    .fil110 {fill:#DFCB8B;fill-rule:nonzero}
    .fil140 {fill:#DFD3AF;fill-rule:nonzero}
    .fil63 {fill:#E09D96;fill-rule:nonzero}
    .fil38 {fill:#E0CE8E;fill-rule:nonzero}
    .fil115 {fill:#E0EAEF;fill-rule:nonzero}
    .fil1 {fill:#E0EBF2;fill-rule:nonzero}
    .fil83 {fill:#E1E7EB;fill-rule:nonzero}
    .fil102 {fill:#E7EDF0;fill-rule:nonzero}
    .fil29 {fill:#E8D38E;fill-rule:nonzero}
    .fil85 {fill:#E99688;fill-rule:nonzero}
    .fil82 {fill:#E9EDEF;fill-rule:nonzero}
    .fil142 {fill:#E9EFF2;fill-rule:nonzero}
    .fil31 {fill:#EB7C6E;fill-rule:nonzero}
    .fil61 {fill:#ECE0B5;fill-rule:nonzero}
    .fil43 {fill:#ECF0F2;fill-rule:nonzero}
    .fil12 {fill:#ED7963;fill-rule:nonzero}
    .fil131 {fill:#EDF3F6;fill-rule:nonzero}
    .fil48 {fill:#F0F4F6;fill-rule:nonzero}
    .fil96 {fill:#F1DE96;fill-rule:nonzero}
    .fil41 {fill:#F1DFAA;fill-rule:nonzero}
    .fil44 {fill:#F3F5F6;fill-rule:nonzero}
    .fil66 {fill:#F59687;fill-rule:nonzero}
    .fil8 {fill:#F5F9FA;fill-rule:nonzero}
    .fil10 {fill:#F6D780;fill-rule:nonzero}
    .fil21 {fill:#F6DF95;fill-rule:nonzero}
    .fil127 {fill:#F7E3A8;fill-rule:nonzero}
    .fil9 {fill:#F97961;fill-rule:nonzero}
    .fil56 {fill:#F97A67;fill-rule:nonzero}
    .fil64 {fill:#F9DF92;fill-rule:nonzero}
    .fil14 {fill:#FB7860;fill-rule:nonzero}
    .fil114 {fill:#FB917C;fill-rule:nonzero}
    .fil11 {fill:#FBDA7F;fill-rule:nonzero}
    .fil30 {fill:#FCDB80;fill-rule:nonzero}
    .fil145 {fill:white;fill-rule:nonzero}
   ]]>
  </style>
 </defs>
 <g id="Camada_x0020_1">
  <metadata id="CorelCorpID_0Corel-Layer"/>
  <path class="fil0" d="M3.77 0.03c0.03,0.05 0.03,0.08 0.02,0.14 -0.03,0.04 -0.06,0.06 -0.1,0.07 -0.03,0.01 -0.06,0.01 -0.09,0.01 -0,0.01 -0.01,0.02 -0.01,0.03 -0.01,0 -0.01,0 -0.02,0 -0.05,0.01 -0.09,0.04 -0.12,0.09 -0.03,0.07 -0.05,0.12 -0.05,0.2 0,0.01 0,0.03 0,0.04 0,0.03 0,0.05 0,0.08 0,0.1 0,0.1 -0.03,0.15 -0.04,0.03 -0.07,0.03 -0.12,0.03 -0.08,0 -0.15,0.02 -0.22,0.04 -0.01,0 -0.03,0.01 -0.04,0.01 -0.04,0.07 -0.07,0.16 -0.07,0.25 -0,0.05 -0.01,0.05 -0.04,0.09 -0.05,0.03 -0.1,0.04 -0.16,0.06 -0.05,0.01 -0.08,0.03 -0.11,0.06 -0.04,0.07 -0.04,0.13 -0.04,0.21 0.01,0.11 0.01,0.11 -0.02,0.15 -0.02,0.02 -0.02,0.02 -0.05,0.03 -0.03,0.01 -0.03,0.01 -0.04,0.04 -0.01,0.04 -0.01,0.07 0,0.11 0.02,0.03 0.02,0.03 0.05,0.03 0.01,-0 0.02,-0 0.03,-0 0.01,-0 0.02,-0 0.03,-0 0.01,-0 0.02,-0 0.02,-0 0,-0.01 0.01,-0.02 0.01,-0.03 0.02,-0.05 0.02,-0.05 0.05,-0.07 0.05,-0.01 0.1,-0.01 0.15,-0.01 0.06,0 0.1,-0.01 0.15,-0.05 0.04,-0.06 0.06,-0.11 0.06,-0.18 0.01,-0.05 0.01,-0.09 0.04,-0.13 0.04,-0.02 0.08,-0.03 0.12,-0.04 0.02,-0.01 0.04,-0.01 0.06,-0.02 0.01,-0 0.02,-0.01 0.03,-0.01 0.01,-0 0.02,-0.01 0.03,-0.01 0.01,-0 0.03,-0.01 0.04,-0.01 0.02,-0.04 0.03,-0.08 0.04,-0.12 0.01,0 0.02,0 0.03,0 -0,-0.01 -0,-0.01 -0.01,-0.02 -0.01,-0.03 -0.01,-0.06 -0.01,-0.09 0,-0.01 0,-0.02 0,-0.03 0,-0.01 0,-0.02 0,-0.03 0,-0.01 0,-0.02 0,-0.03 0,-0.03 0,-0.05 0,-0.08 0.01,0 0.02,0 0.03,0 0,-0.01 0,-0.02 0,-0.02 0.01,-0.03 0.01,-0.03 0.03,-0.04 0.05,-0.02 0.09,-0.01 0.14,-0.01 0.1,0 0.18,-0.01 0.27,-0.06 0.08,-0.09 0.09,-0.2 0.1,-0.31 0.01,-0.04 0.01,-0.04 0.04,-0.07 0.05,-0.03 0.08,-0.03 0.14,-0.02 0.04,0.02 0.04,0.02 0.07,0.07 0.02,0.15 -0.02,0.32 -0.1,0.44 -0.07,0.1 -0.16,0.17 -0.29,0.2 -0.04,0 -0.04,0 -0.07,0 0,0.01 0,0.02 0,0.03 -0.03,-0 -0.06,-0.01 -0.09,-0.01 -0,0.01 -0,0.02 -0,0.03 -0.01,0.14 -0.04,0.27 -0.14,0.37 -0.03,0.03 -0.03,0.03 -0.07,0.05 -0.01,0.01 -0.02,0.01 -0.02,0.02 -0.03,0.02 -0.03,0.02 -0.06,0.02 -0.04,0.01 -0.06,0.01 -0.09,0.03 -0.02,0.04 -0.03,0.08 -0.04,0.13 -0.02,0.06 -0.05,0.1 -0.09,0.15 -0.01,0.01 -0.01,0.02 -0.02,0.02 -0.07,0.07 -0.14,0.1 -0.24,0.12 -0.02,-0 -0.03,-0.01 -0.05,-0.01 0,0.02 0,0.02 0.01,0.05 0.02,0.16 0.04,0.33 0.06,0.49 0,0.03 0.01,0.05 0.01,0.08 0.01,0.07 0.01,0.14 0.02,0.21 0.01,0.07 0.01,0.14 0.02,0.22 0.01,0.12 0.02,0.24 0.04,0.36 0.02,0.17 0.03,0.34 0.05,0.51 0.01,0.12 0.02,0.24 0.04,0.36 0,0.03 0.01,0.06 0.01,0.09 0.01,0.08 0.02,0.16 0.02,0.24 0,0.02 0,0.05 0.01,0.07 0,0.03 0.01,0.07 0.01,0.1 0,0.01 0,0.02 0,0.03 0.01,0.07 0.01,0.07 0.01,0.1 0.05,0 0.09,0 0.14,0 -0,-0.02 -0,-0.03 -0,-0.05 -0,-0.06 -0,-0.12 -0,-0.18 -0,-0.03 -0,-0.05 -0,-0.08 -0,-0.09 0,-0.18 0,-0.26 0,-0.01 0,-0.02 0,-0.04 0,-0.03 0,-0.07 0,-0.1 0,-0.01 0,-0.02 0,-0.03 0,-0.07 0.03,-0.13 0.08,-0.19 0.05,-0.04 0.08,-0.05 0.14,-0.05 -0,-0.15 -0.01,-0.29 -0.01,-0.44 -0.04,-0.02 -0.09,-0.03 -0.13,-0.05 0,-0.01 0,-0.02 0,-0.03 -0.01,0 -0.02,0 -0.03,0 -0.06,-0.08 -0.11,-0.17 -0.11,-0.27 0.02,-0.1 0.09,-0.18 0.18,-0.24 0.05,-0.03 0.11,-0.05 0.16,-0.08 0.03,-0.01 0.05,-0.02 0.08,-0.03 0.12,-0.06 0.12,-0.06 0.17,-0.06 0,0.01 0,0.02 0,0.03 0.01,0.08 0.02,0.15 0.04,0.22 0.01,0 0.02,0 0.03,0 0.01,0.02 0.02,0.04 0.03,0.06 0,0.01 0.01,0.02 0.01,0.04 0.01,0.02 0.02,0.05 0.03,0.07 0.01,0 0.02,0 0.03,0 0.01,0.01 0.01,0.02 0.02,0.03 0.02,0.04 0.04,0.05 0.07,0.07 -0,0.02 -0,0.02 -0.01,0.05 -0.03,0.02 -0.03,0.02 -0.08,0.04 -0.02,0.01 -0.02,0.01 -0.04,0.02 -0.04,0.01 -0.04,0.01 -0.06,0.01 -0,0.01 -0.01,0.02 -0.01,0.03 -0.03,0.01 -0.07,0.02 -0.1,0.03 0,0.16 0.01,0.33 0.01,0.49 0.04,0.02 0.08,0.03 0.12,0.05 0.06,0.07 0.08,0.11 0.08,0.2 0,0.02 0,0.03 0,0.05 -0,0.02 -0,0.04 -0,0.05 -0,0.02 -0,0.04 -0,0.06 -0,0.05 -0,0.1 -0,0.15 -0,0.05 -0,0.1 -0,0.15 -0,0.1 -0,0.2 -0,0.29 0.06,0 0.11,0 0.17,0 0,-0.02 0,-0.04 0,-0.07 0.01,-0.16 0.01,-0.32 0.02,-0.48 0,-0.05 0,-0.09 0,-0.13 0,-0.03 0,-0.03 0.01,-0.06 0.01,-0.03 0.01,-0.07 0.01,-0.1 0,-0.01 0,-0.03 0,-0.04 0,-0.01 0,-0.03 0,-0.04 0,-0.1 0.01,-0.19 0.02,-0.28 0.01,0 0.02,0 0.03,0 0,-0.01 0,-0.02 0.01,-0.02 0.03,-0.04 0.06,-0.04 0.11,-0.05 -0,-0.01 -0,-0.03 -0,-0.04 -0,-0.02 -0,-0.02 -0,-0.05 -0,-0.02 -0,-0.03 -0,-0.05 0,-0.04 0,-0.06 0.01,-0.1 0.03,-0 0.06,-0 0.09,-0.01 0.02,-0 0.03,-0 0.05,-0 0.04,-0 0.04,-0 0.1,0.01 0,0.08 0,0.16 0,0.25 0.03,0 0.05,0 0.08,0 0.04,0.03 0.06,0.04 0.08,0.09 0,0.04 0.01,0.07 0.01,0.11 0,0.01 0,0.02 0,0.03 0,0.02 0,0.05 0,0.07 0,0.04 0,0.08 0.01,0.11 0.01,0.09 0.01,0.19 0.02,0.28 0,0.08 0.01,0.16 0.01,0.24 0,0.04 0,0.07 0.01,0.11 0,0.02 0,0.05 0,0.07 0,0.01 0,0.02 0,0.03 0,0.04 0.01,0.08 0.02,0.12 0.02,0 0.02,0 0.04,0 0.06,0 0.11,0 0.17,0 0.02,0 0.05,0 0.07,0 0.03,0 0.07,0 0.1,0 0.01,0 0.02,0 0.03,0 0.09,0 0.17,0.03 0.24,0.09 0.01,0.01 0.02,0.02 0.02,0.03 0.01,0.01 0.02,0.02 0.03,0.03 0.05,0.08 0.05,0.15 0.05,0.24 0,0.01 0,0.03 0,0.04 0,0.04 0,0.09 0,0.13 0,0.03 0,0.06 0,0.09 0,0.06 0,0.13 0,0.19 0,0.08 0,0.16 0,0.25 0,0.06 0,0.13 0,0.19 0,0.03 0,0.06 0,0.09 0,0.04 0,0.08 0,0.13 0,0.01 0,0.03 0,0.04 -0,0.09 -0,0.09 -0.03,0.13 -0.06,0.04 -0.14,0.05 -0.21,0.04 -0.01,-0 -0.02,-0.01 -0.04,-0.01 -0,0.01 -0.01,0.02 -0.01,0.03 -0.01,-0 -0.03,-0 -0.04,-0.01 -0.05,-0.01 -0.11,-0.01 -0.16,-0.01 -0.01,0 -0.02,0 -0.03,0 -0.03,0 -0.06,0 -0.1,0 -0.04,0 -0.08,0 -0.13,0 -0.01,0 -0.02,0 -0.03,0 -0.04,0 -0.08,-0 -0.11,-0.01 -0.05,-0.01 -0.1,-0.01 -0.15,-0.01 -0.02,0 -0.02,0 -0.03,-0 -0.04,0 -0.07,0 -0.11,0 -0.03,0 -0.05,-0 -0.08,-0 -0.07,-0 -0.14,-0 -0.21,0 -0.07,0 -0.14,0 -0.22,0 -0.12,-0 -0.24,0 -0.36,0 -0.14,0 -0.28,0 -0.42,-0 -0.12,-0 -0.24,-0 -0.36,0 -0.07,0 -0.14,0 -0.22,-0 -0.07,0 -0.13,0 -0.2,0 -0.02,0 -0.05,0 -0.07,0 -0.03,0 -0.07,0 -0.1,0 -0.01,0 -0.02,-0 -0.03,-0 -0.05,-0 -0.05,-0 -0.1,0.01 -0.03,0 -0.06,0 -0.09,0 -0.01,0 -0.02,0 -0.03,0 -0.02,0 -0.04,0 -0.06,-0 -0.03,-0 -0.06,0 -0.09,0 -0.02,0 -0.04,-0 -0.06,-0 -0.01,0 -0.02,0 -0.03,0 -0.04,-0 -0.08,-0 -0.12,-0.01 -0.02,0 -0.05,0.01 -0.07,0.01 -0.05,0 -0.1,0 -0.15,0 -0.01,0 -0.01,0 -0.03,0 -0.07,-0 -0.07,-0 -0.08,-0.01 -0.04,-0 -0.07,0 -0.11,0 -0.02,0 -0.05,0 -0.07,0 -0.01,0 -0.03,0 -0.04,0 -0.2,0.01 -0.4,0.01 -0.6,0.01 -0.02,0 -0.04,0 -0.06,0 -0.23,0 -0.23,0 -0.31,-0.06 -0.04,-0.05 -0.03,-0.13 -0.03,-0.19 0,-0.01 0,-0.02 -0,-0.03 -0,-0.03 0,-0.06 0,-0.09 0,-0.02 -0,-0.04 -0,-0.06 0,-0.04 0,-0.09 0,-0.13 0,-0.04 0,-0.09 0,-0.13 -0,-0.14 0,-0.29 0,-0.44 0,-0.01 0,-0.02 0,-0.03 0,-0.06 0,-0.12 0,-0.18 0,-0.01 0,-0.03 0,-0.04 0,-0.1 0.02,-0.17 0.09,-0.25 0.01,-0.01 0.02,-0.01 0.03,-0.02 0.01,-0.01 0.02,-0.01 0.03,-0.02 0.07,-0.04 0.13,-0.05 0.21,-0.05 0.01,0 0.01,0 0.03,0 0.03,0 0.06,0 0.08,0 0.02,0 0.04,0 0.06,0 0.05,0 0.09,0 0.14,0 -0,-0.01 -0,-0.03 -0,-0.04 -0,-0.02 -0,-0.04 -0,-0.05 -0,-0.01 -0,-0.01 -0,-0.03 -0,-0.02 0,-0.05 0,-0.07 0,-0 0.01,-0.01 0.01,-0.01 0,-0.02 0,-0.04 0,-0.06 0,-0.02 0,-0.02 0,-0.04 0,-0.01 0,-0.03 0,-0.04 0,-0.02 0,-0.05 0,-0.07 0,-0.01 0,-0.02 0,-0.03 0,-0.03 0.01,-0.05 0.02,-0.08 0,-0.02 0,-0.05 0,-0.07 -0,-0.02 -0,-0.04 0,-0.06 0,-0 0.01,-0.01 0.01,-0.01 0,-0.04 -0,-0.07 -0,-0.11 0,-0.03 0.01,-0.06 0.01,-0.09 0,-0.02 0,-0.05 0,-0.07 -0,-0.02 -0,-0.04 0,-0.06 0,-0 0.01,-0.01 0.01,-0.01 0,-0.04 0,-0.07 -0,-0.11 0,-0.03 0,-0.03 0.01,-0.06 0,-0.02 0,-0.04 0,-0.06 0,-0.01 0,-0.03 0,-0.04 0,-0.02 0,-0.02 0,-0.04 0,-0.03 0,-0.05 0,-0.08 0,-0.01 0,-0.02 0,-0.03 0,-0.03 0.01,-0.07 0.02,-0.1 0,-0.04 0.01,-0.09 0.01,-0.13 0,-0.04 0.01,-0.08 0.02,-0.13 0,-0.02 0,-0.05 0,-0.07 -0,-0.01 -0,-0.03 -0,-0.04 -0,-0.01 -0,-0.02 -0,-0.03 0.01,0 0.02,0 0.03,0 -0,-0.01 -0,-0.02 -0,-0.03 -0,-0.11 0,-0.23 0.04,-0.34 0.01,0 0.02,0 0.03,0 0,-0.01 0,-0.02 0,-0.03 0.01,0 0.02,0 0.03,0 -0,-0.01 -0,-0.03 -0.01,-0.04 -0.01,-0.1 -0.02,-0.21 0.01,-0.31 0,-0.01 0.01,-0.03 0.01,-0.04 -0.01,-0.01 -0.02,-0.03 -0.03,-0.04 -0.03,-0.14 -0.04,-0.27 0.03,-0.4 0.01,0 0.02,0 0.03,0 0,-0.01 0.01,-0.01 0.01,-0.02 0.03,-0.05 0.06,-0.1 0.11,-0.13 0.01,0 0.02,0 0.03,0 -0,-0.01 -0,-0.02 -0.01,-0.03 -0,-0.01 -0.01,-0.03 -0.01,-0.04 -0,-0.01 -0.01,-0.03 -0.01,-0.04 -0,-0.02 -0,-0.02 -0,-0.04 0,-0 0.01,-0.01 0.01,-0.01 0,-0.02 0,-0.02 0,-0.05 0.01,-0.11 0.06,-0.2 0.14,-0.28 0.02,-0.01 0.04,-0.03 0.05,-0.04 0.01,-0.01 0.02,-0.01 0.03,-0.02 0.09,-0.06 0.19,-0.1 0.3,-0.09 0.04,0.02 0.04,0.02 0.07,0.05 0.01,0.04 0.01,0.08 0,0.12 -0.02,0.03 -0.02,0.03 -0.05,0.05 -0.01,0 -0.02,0 -0.03,0 0,0.01 0,0.02 0,0.03 -0.02,0 -0.02,0 -0.05,0.01 -0.08,0.02 -0.14,0.06 -0.19,0.13 -0.02,0.08 -0.03,0.16 0,0.24 0.01,0.04 0.01,0.08 0,0.12 -0.03,0.03 -0.06,0.05 -0.09,0.08 -0.01,0.01 -0.02,0.02 -0.03,0.02 -0.02,0.01 -0.02,0.01 -0.05,0.01 -0.05,0.09 -0.06,0.16 -0.04,0.26 0.01,0.03 0.03,0.05 0.04,0.08 0.02,0.04 0.02,0.06 0.01,0.1 -0.01,0.02 -0.03,0.05 -0.04,0.07 -0.03,0.05 -0.02,0.11 0,0.17 0.06,0.01 0.06,0.01 0.12,0 0.03,-0.02 0.03,-0.02 0.03,-0.05 0,-0.01 0,-0.02 0.01,-0.04 0,-0.01 0,-0.02 0.01,-0.04 0,-0.01 0,-0.02 0,-0.03 0.01,0 0.02,0 0.03,0 0,-0.01 0,-0.02 0,-0.03 0.01,-0 0.02,-0.01 0.03,-0.01 0.1,-0.03 0.1,-0.03 0.19,-0.09 0.05,-0.1 0.02,-0.22 0.01,-0.33 -0,-0.04 0,-0.06 0.03,-0.09 0.04,-0.02 0.06,-0.03 0.11,-0.03 0.04,0.01 0.04,0.01 0.07,0.04 0.07,0.12 0.07,0.29 0.04,0.42 -0.03,0.08 -0.07,0.14 -0.13,0.2 -0.01,0.01 -0.01,0.01 -0.02,0.02 -0.04,0.03 -0.06,0.05 -0.11,0.06 -0.05,0.01 -0.05,0.01 -0.06,0.05 -0.01,0.05 0,0.06 0.02,0.11 0.01,0.03 0.01,0.03 0.01,0.06 0,0.02 0,0.02 0,0.04 0,0.01 0,0.03 0,0.04 0,0.02 0,0.03 0,0.05 0,0.04 0.01,0.09 0.01,0.13 0,0.03 0.01,0.07 0.01,0.1 0.02,0.17 0.04,0.35 0.05,0.52 0.01,0.06 0.01,0.11 0.02,0.17 0.01,0.07 0.01,0.14 0.02,0.21 0,0.02 0,0.02 0,0.04 0.01,0.15 0.03,0.29 0.04,0.44 0,0.02 0,0.02 0,0.04 0.01,0.06 0.01,0.12 0.02,0.18 0,0.02 0,0.04 0.01,0.06 0,0.01 0,0.02 0,0.03 0,0.04 0.01,0.08 0.02,0.12 0.04,0 0.08,0 0.12,0 0.02,-0.11 0.03,-0.22 0.03,-0.33 0,-0.03 0,-0.03 0.01,-0.06 0.01,-0.04 0.01,-0.08 0.01,-0.13 0,-0.07 0.01,-0.14 0.02,-0.21 0.01,-0.12 0.01,-0.12 0.02,-0.24 0,-0.03 0.01,-0.06 0.01,-0.1 0,-0.02 0,-0.05 0.01,-0.07 0.01,-0.07 0.01,-0.14 0.02,-0.21 0.01,-0.08 0.01,-0.16 0.01,-0.25 0,-0 0.01,-0.01 0.01,-0.01 0,-0.03 0,-0.06 -0,-0.09 0,-0.03 0,-0.03 0.01,-0.07 0,-0.02 0,-0.05 0.01,-0.07 0,-0.01 0,-0.03 0,-0.04 0,-0.02 0,-0.03 0,-0.05 0.01,-0.11 0.01,-0.22 0.03,-0.33 0,-0.01 0,-0.01 0,-0.03 0,-0.05 0.01,-0.1 0.01,-0.14 0.01,-0.09 0.02,-0.19 0.01,-0.28 0.01,0 0.02,0 0.03,0 -0,-0.01 -0,-0.02 -0,-0.02 -0,-0.07 0,-0.12 0.04,-0.19 0.03,-0.05 0.03,-0.07 0.01,-0.13 -0,-0.01 -0.01,-0.02 -0.01,-0.03 -0.02,-0.07 -0,-0.13 0.03,-0.19 0.01,-0.02 0.01,-0.02 0.02,-0.04 0.02,-0.04 0.02,-0.04 0.04,-0.06 0.03,-0.03 0.02,-0.07 0.02,-0.11 0.01,-0.12 0.02,-0.22 0.11,-0.3 0,-0.01 0.01,-0.02 0.01,-0.03 0.01,0 0.02,0 0.03,0 0,-0.01 0,-0.02 0,-0.03 0.01,-0.01 0.03,-0.01 0.04,-0.02 0.11,-0.04 0.11,-0.04 0.18,-0.12 0,-0.03 0,-0.03 0.01,-0.06 0.01,-0.06 0.04,-0.12 0.08,-0.16 0.01,0 0.02,0 0.03,0 0,-0.01 0.01,-0.03 0.01,-0.04 0.1,-0.08 0.2,-0.12 0.33,-0.13 -0,-0.02 -0.01,-0.03 -0.01,-0.05 -0.01,-0.14 0.03,-0.27 0.11,-0.38 0.01,0 0.02,0 0.03,0 0,-0.01 0.01,-0.03 0.01,-0.04 0.01,0 0.02,0 0.03,0 0,-0.01 0,-0.02 0,-0.03 0.03,-0.04 0.08,-0.06 0.13,-0.08 0.01,-0 0.02,-0.01 0.02,-0.01 0.1,-0.04 0.21,-0.07 0.3,-0.01z"/>
  <path class="fil1" d="M0.39 5.22c0.01,-0 0.01,-0 0.03,-0 0.03,-0 0.06,0 0.09,0 0.02,-0 0.04,-0 0.06,-0 0.06,-0 0.11,-0 0.17,0 0.06,0 0.12,-0 0.18,-0 0.12,-0 0.24,-0 0.36,-0 0.1,0 0.19,0 0.29,0 0.02,-0 0.02,-0 0.04,-0 0.03,0 0.06,-0 0.08,-0 0.26,-0 0.53,0 0.79,0 0.23,0 0.45,0 0.68,-0 0.26,-0 0.52,-0 0.79,-0 0.03,0 0.06,0 0.08,0 0.01,0 0.03,0 0.04,0 0.1,0 0.19,-0 0.29,-0 0.12,-0 0.24,-0 0.35,0 0.06,0 0.12,0 0.18,0 0.06,-0 0.11,-0 0.17,0 0.02,0 0.04,0 0.06,-0 0.03,-0 0.05,0 0.08,0 0.02,0 0.03,0 0.05,0 0.04,0.01 0.04,0.01 0.11,0.07 0,0.39 0,0.78 0,1.19 -1.68,0 -3.37,0 -5.11,0 0,-1.26 0,-1.26 0.15,-1.26z"/>
  <path class="fil2" d="M6.1 1.29c0.28,0.14 0.46,0.39 0.56,0.69 0.01,0.02 0.01,0.05 0.02,0.07 0,0.02 0,0.02 0.01,0.03 0.05,0.2 0.04,0.46 -0.06,0.64 -0.03,0.04 -0.05,0.06 -0.09,0.09 -0.01,0.01 -0.02,0.01 -0.03,0.02 -0.03,0.01 -0.03,0.01 -0.07,-0 0,0.79 0,1.57 0,2.38 0.06,0 0.13,0 0.2,0 0.07,0.07 0.07,0.07 0.07,0.12 0,0.01 0,0.02 0,0.03 -0,0.01 -0,0.02 -0,0.04 0,0.02 0,0.02 0,0.04 0,0.04 -0,0.09 -0,0.13 0,0.03 0,0.06 0,0.09 0,0.06 -0,0.13 -0,0.19 -0,0.08 -0,0.16 -0,0.24 0,0.06 0,0.12 -0,0.19 -0,0.03 -0,0.06 0,0.09 0,0.04 -0,0.08 -0,0.13 0,0.02 0,0.02 0,0.04 -0,0.08 -0,0.08 -0.03,0.13 -0.03,0.02 -0.03,0.02 -0.05,0.02 0,0.01 0,0.02 0,0.03 -0.07,0 -0.15,0 -0.22,0 -0.03,0 -0.05,0 -0.08,0 -0.04,0 -0.07,0 -0.11,0 -0.01,0 -0.02,0 -0.03,0 -0.08,0 -0.14,-0.01 -0.21,-0.06 -0.04,-0.04 -0.04,-0.07 -0.04,-0.13 0,-0.01 0,-0.02 0,-0.03 0,-0.02 0,-0.02 0,-0.04 0,-0.01 0,-0.03 0,-0.04 0,-0.04 0,-0.08 0,-0.12 0,-0.03 0,-0.06 0,-0.09 0,-0.06 0,-0.12 0,-0.18 0,-0.08 0,-0.15 0,-0.23 0,-0.06 0,-0.12 0,-0.18 0,-0.03 0,-0.06 0,-0.09 0,-0.04 0,-0.08 0,-0.12 0,-0.01 0,-0.02 0,-0.04 0,-0.02 0,-0.02 0,-0.03 0,-0.01 0,-0.02 0,-0.03 0,-0.03 0.01,-0.05 0.03,-0.08 0.05,-0.03 0.08,-0.03 0.14,-0.03 0.01,0 0.02,0 0.03,0 0.02,0 0.05,0 0.07,0 -0,-0.01 -0.01,-0.03 -0.01,-0.04 -0,-0.03 -0,-0.06 -0,-0.1 0,-0.01 0,-0.01 -0,-0.03 0,-0.03 0,-0.07 0,-0.1 0,-0.02 0,-0.05 0,-0.07 0,-0.06 0,-0.13 0,-0.19 0,-0.07 0,-0.13 0,-0.2 0,-0.13 0,-0.25 0,-0.38 0,-0.14 0,-0.29 0,-0.43 0,-0.3 0,-0.6 0,-0.89 -0.05,-0.02 -0.1,-0.03 -0.16,-0.03 0,-0.01 0,-0.02 0,-0.03 -0.01,0 -0.02,0 -0.03,0 -0.06,-0 -0.1,-0.02 -0.15,-0.04 -0.05,-0.02 -0.11,-0.03 -0.17,-0.04 -0.01,-0 -0.02,-0.01 -0.03,-0.01 -0.04,-0.01 -0.06,0 -0.1,0.02 -0.01,0.01 -0.03,0.01 -0.04,0.02 -0.01,0.01 -0.03,0.01 -0.04,0.02 -0.02,0.01 -0.02,0.01 -0.04,0.02 -0.04,0.02 -0.08,0.04 -0.11,0.06 -0.02,0.01 -0.04,0.02 -0.05,0.03 -0.03,0.01 -0.05,0.03 -0.08,0.04 -0.03,0.01 -0.03,0.01 -0.07,0.03 -0,0.01 -0,0.02 -0,0.03 -0.02,0.06 -0.05,0.09 -0.09,0.13 -0.04,0.02 -0.09,0.04 -0.13,0.04 -0.01,0 -0.02,0 -0.02,0.01 -0,0.01 -0.01,0.02 -0.01,0.03 -0.02,0.02 -0.04,0.04 -0.06,0.06 -0.01,0.02 -0.01,0.02 -0.03,0.03 -0.03,0.03 -0.06,0.04 -0.1,0.05 -0,0.01 -0.01,0.02 -0.01,0.03 -0.11,0.06 -0.27,0.06 -0.39,0.03 -0.03,-0.01 -0.05,-0.03 -0.08,-0.04 -0.01,-0 -0.03,-0.01 -0.04,-0.01 -0.02,-0.02 -0.02,-0.02 -0.04,-0.04 -0.01,-0.01 -0.01,-0.01 -0.02,-0.02 -0.02,-0.02 -0.02,-0.02 -0.03,-0.06 -0.01,0 -0.02,0 -0.03,0 -0.08,-0.12 -0.1,-0.25 -0.09,-0.39 0.01,0 0.02,0 0.03,0 0,-0.01 0,-0.02 0,-0.04 0.02,-0.11 0.08,-0.19 0.16,-0.25 0.09,-0.06 0.16,-0.09 0.27,-0.1 0.02,-0 0.02,-0 0.05,-0 0.03,-0 0.06,-0.01 0.09,-0.01 0.08,-0.01 0.16,-0.02 0.24,-0.05 0.03,-0.01 0.05,-0.01 0.08,-0.01 0.14,-0.01 0.29,-0.11 0.41,-0.17 0.03,-0.02 0.07,-0.03 0.1,-0.04 0.05,-0.03 0.06,-0.07 0.08,-0.12 0.04,-0.1 0.04,-0.1 0.07,-0.12 0.01,-0.02 0.01,-0.02 0.01,-0.05 0,-0.01 0,-0.02 0.01,-0.03 0,-0.01 0,-0.01 0,-0.02 0.01,0 0.02,0 0.03,0 0,-0.01 0,-0.02 0,-0.03 0.01,-0.05 0.03,-0.1 0.06,-0.15 0,-0.01 0.01,-0.02 0.01,-0.03 0.1,-0.19 0.21,-0.31 0.44,-0.21zm-0.16 0.2c-0,0.01 -0.01,0.02 -0.01,0.03 -0.01,0.03 -0.03,0.06 -0.04,0.09 -0.02,0.03 -0.03,0.07 -0.05,0.1 -0.03,0.07 -0.07,0.15 -0.11,0.22 -0.01,0.01 -0.01,0.02 -0.02,0.03 -0.01,0.02 -0.02,0.04 -0.03,0.06 -0.03,0.07 -0.04,0.13 -0.03,0.21 0.03,0.05 0.06,0.05 0.12,0.07 0,0 0.01,0.01 0.01,0.01 0.03,0.01 0.06,0.01 0.09,0.02 0.07,0.01 0.14,0.03 0.21,0.06 0.05,0.02 0.11,0.04 0.16,0.05 0.01,0 0.02,0.01 0.03,0.01 0.07,0.02 0.07,0.02 0.15,0.01 0.05,-0.05 0.05,-0.11 0.05,-0.18 -0,-0.07 -0.01,-0.13 -0.04,-0.2 -0,-0.01 -0.01,-0.03 -0.01,-0.04 -0.03,-0.09 -0.03,-0.09 -0.08,-0.16 -0.01,-0.01 -0.01,-0.03 -0.02,-0.04 -0.07,-0.13 -0.21,-0.27 -0.35,-0.32 -0.01,-0 -0.02,-0.01 -0.04,-0.01z"/>
  <path class="fil3" d="M5.71 1.97c0,0.01 0.01,0.02 0.01,0.03 -0.01,0.02 -0.01,0.02 -0.03,0.05 -0.03,0.06 -0.03,0.12 -0.03,0.19 0,0.01 0.01,0.02 0.01,0.03 0.03,0.01 0.06,0.02 0.09,0.03 0,0 0.01,0.01 0.01,0.01 0.03,0.01 0.06,0.01 0.09,0.02 0.07,0.01 0.14,0.03 0.21,0.06 0.05,0.02 0.11,0.04 0.16,0.05 0.01,0 0.02,0.01 0.03,0.01 0.07,0.02 0.07,0.02 0.15,0.01 0.05,-0.08 0.04,-0.19 0.04,-0.29 0,0 0.01,0 0.01,0 0.04,0.15 0.01,0.31 -0.03,0.46 -0.09,-0.01 -0.18,-0.04 -0.27,-0.06 -0.09,-0.03 -0.17,-0.05 -0.26,-0.07 -0.05,-0.01 -0.1,-0.03 -0.15,-0.05 -0.02,-0.01 -0.03,-0.01 -0.05,-0.01 -0.01,-0 -0.02,-0 -0.02,-0.01 -0.08,-0.01 -0.12,-0 -0.19,0.03 -0.08,0.04 -0.17,0.08 -0.26,0.12 -0.01,0 -0.02,0.01 -0.03,0.01 -0.01,0 -0.02,0.01 -0.03,0.01 -0.03,0.01 -0.05,0.02 -0.08,0.04 0.01,0.11 0.01,0.11 0.01,0.22 0.02,-0.01 0.04,-0.03 0.07,-0.04 0.02,0.01 0.02,0.01 0.04,0.01 -0.07,0.05 -0.07,0.05 -0.1,0.05 -0,0.01 -0,0.02 -0,0.03 -0.02,0.06 -0.05,0.09 -0.09,0.13 -0.04,0.02 -0.09,0.04 -0.13,0.04 -0.01,0 -0.02,0 -0.02,0.01 -0,0.01 -0.01,0.02 -0.01,0.03 -0.02,0.02 -0.04,0.04 -0.06,0.06 -0.01,0.01 -0.02,0.02 -0.03,0.03 -0.03,0.03 -0.06,0.04 -0.1,0.05 -0,0.01 -0.01,0.02 -0.01,0.03 -0.11,0.06 -0.27,0.06 -0.39,0.03 -0.03,-0.01 -0.05,-0.03 -0.08,-0.04 -0.02,-0.01 -0.02,-0.01 -0.04,-0.01 -0.02,-0.02 -0.02,-0.02 -0.04,-0.04 -0.01,-0.01 -0.01,-0.02 -0.02,-0.02 -0.02,-0.02 -0.02,-0.02 -0.03,-0.06 -0.01,0 -0.02,0 -0.03,0 -0.08,-0.12 -0.1,-0.25 -0.09,-0.39 0.01,0 0.02,0 0.03,0 0,-0.01 0,-0.02 0,-0.04 0.02,-0.11 0.08,-0.19 0.16,-0.25 0.09,-0.06 0.16,-0.09 0.27,-0.1 0.02,-0 0.02,-0 0.05,-0 0.03,-0 0.06,-0.01 0.09,-0.01 0.08,-0.01 0.16,-0.02 0.24,-0.05 0.03,-0.01 0.05,-0.01 0.08,-0.01 0.08,-0.01 0.15,-0.05 0.23,-0.08 0.03,-0.02 0.06,-0.03 0.1,-0.03 -0.03,0.03 -0.05,0.05 -0.09,0.06 -0.01,0 -0.02,0.01 -0.03,0.01 -0.01,0 -0.02,0.01 -0.03,0.01 -0.01,0 -0.02,0.01 -0.03,0.01 -0.04,0.02 -0.08,0.03 -0.13,0.04 0.01,0.02 0.01,0.02 0.03,0.03 0.01,0.01 0.02,0.03 0.03,0.04 0.01,0.01 0.02,0.03 0.03,0.04 0.03,0.03 0.03,0.03 0.03,0.06 0.02,-0.01 0.05,-0.02 0.07,-0.02 0.01,-0 0.03,-0.01 0.04,-0.01 0.04,-0.02 0.07,-0.03 0.1,-0.05 0.04,-0.02 0.08,-0.04 0.12,-0.05 0.18,-0.07 0.18,-0.07 0.3,-0.21 0.02,-0.04 0.03,-0.09 0.05,-0.13 0,-0 0.01,-0.01 0.01,-0.01z"/>
  <path class="fil4" d="M1.95 5.49c0.01,-0 0.03,-0 0.04,-0 0.01,-0 0.03,-0 0.04,-0 0.02,-0 0.02,-0 0.04,-0 0.03,-0 0.06,-0 0.09,-0 0.05,-0 0.09,-0 0.14,-0 0.03,-0 0.06,-0 0.09,-0 0.01,-0 0.03,-0 0.04,-0 0.08,0 0.13,0.01 0.19,0.06 0.06,0.06 0.07,0.1 0.07,0.19 0,0.01 0,0.02 0,0.03 0,0.02 0,0.04 0,0.06 0,0.03 0,0.06 0,0.09 0,0.02 0,0.04 0,0.06 0,0.01 0,0.02 0,0.03 -0,0.07 -0.02,0.1 -0.06,0.15 -0.05,0.05 -0.08,0.07 -0.15,0.07 -0.01,0 -0.03,0 -0.04,0 -0.01,0 -0.03,0 -0.04,0 -0.01,0 -0.03,0 -0.04,0 -0.03,0 -0.06,0 -0.09,0 -0.05,0 -0.09,0 -0.14,0 -0.03,0 -0.06,0 -0.09,0 -0.02,0 -0.02,0 -0.04,0 -0.08,-0 -0.13,-0.01 -0.19,-0.06 -0.06,-0.06 -0.07,-0.1 -0.07,-0.19 -0,-0.01 -0,-0.02 -0,-0.03 -0,-0.02 -0,-0.04 -0,-0.06 -0,-0.03 -0,-0.06 -0,-0.09 -0,-0.02 -0,-0.04 -0,-0.06 -0,-0.01 -0,-0.02 -0,-0.03 0,-0.07 0.02,-0.1 0.06,-0.15 0.05,-0.05 0.08,-0.07 0.15,-0.07z"/>
  <path class="fil4" d="M4.24 5.49c0.01,-0 0.03,-0 0.04,-0 0.01,-0 0.03,-0 0.04,-0 0.02,-0 0.02,-0 0.04,-0 0.03,-0 0.06,-0 0.09,-0 0.05,-0 0.09,-0 0.14,-0 0.03,-0 0.06,-0 0.09,-0 0.01,-0 0.03,-0 0.04,-0 0.08,0 0.13,0.01 0.19,0.06 0.06,0.06 0.07,0.1 0.07,0.19 0,0.01 0,0.02 0,0.03 0,0.02 0,0.04 0,0.06 0,0.03 0,0.06 0,0.09 0,0.02 0,0.04 0,0.06 0,0.01 0,0.02 0,0.03 -0,0.07 -0.02,0.1 -0.06,0.15 -0.05,0.05 -0.08,0.07 -0.15,0.07 -0.01,0 -0.03,0 -0.04,0 -0.01,0 -0.03,0 -0.04,0 -0.01,0 -0.03,0 -0.04,0 -0.03,0 -0.06,0 -0.09,0 -0.05,0 -0.09,0 -0.14,0 -0.03,0 -0.06,0 -0.09,0 -0.02,0 -0.02,0 -0.04,0 -0.08,-0 -0.13,-0.01 -0.19,-0.06 -0.06,-0.06 -0.07,-0.11 -0.07,-0.2 -0,-0.01 -0,-0.02 -0,-0.03 -0,-0.02 -0,-0.04 -0,-0.06 -0,-0.02 -0,-0.04 -0,-0.06 -0,-0.03 -0,-0.06 -0,-0.09 -0,-0.01 -0,-0.02 -0,-0.03 0,-0.07 0.02,-0.1 0.06,-0.15 0.05,-0.05 0.08,-0.07 0.15,-0.07z"/>
  <path class="fil5" d="M0.8 5.49c0.02,-0 0.02,-0 0.04,-0 0.06,-0 0.11,-0 0.17,-0 0.03,-0 0.06,-0 0.09,-0 0.04,-0 0.09,-0 0.13,-0 0.01,-0 0.03,-0 0.04,-0 0.09,0 0.15,0.01 0.21,0.07 0.05,0.06 0.06,0.11 0.06,0.18 0,0.01 0,0.01 0,0.03 0,0.02 -0,0.04 -0,0.06 -0,0.03 0,0.06 0,0.09 -0,0.02 -0,0.04 -0,0.06 0,0.01 0,0.02 0,0.03 -0,0.08 -0.03,0.12 -0.08,0.17 -0.07,0.06 -0.14,0.06 -0.22,0.05 -0.01,0 -0.03,0 -0.04,0 -0.03,0 -0.06,-0 -0.09,-0 -0.05,-0 -0.09,-0 -0.14,0 -0.03,-0 -0.06,-0 -0.09,-0 -0.01,0 -0.03,0 -0.04,0 -0.08,-0 -0.12,-0.01 -0.18,-0.06 -0.06,-0.06 -0.07,-0.11 -0.07,-0.2 -0,-0.01 -0,-0.02 -0,-0.03 -0,-0.02 -0,-0.04 -0,-0.06 -0,-0.02 -0,-0.04 -0,-0.06 -0,-0.03 -0,-0.06 -0,-0.09 -0,-0.01 -0,-0.02 -0,-0.03 0,-0.07 0.02,-0.1 0.06,-0.15 0.05,-0.05 0.08,-0.07 0.15,-0.07z"/>
  <path class="fil5" d="M3.1 5.49c0.02,-0 0.02,-0 0.04,-0 0.06,-0 0.11,-0 0.17,-0 0.03,-0 0.06,-0 0.09,-0 0.04,-0 0.09,-0 0.13,-0 0.01,-0 0.03,-0 0.04,-0 0.09,0 0.15,0.01 0.21,0.07 0.05,0.06 0.06,0.11 0.06,0.18 0,0.01 0,0.01 0,0.03 0,0.02 0,0.04 -0,0.06 -0,0.03 0,0.06 0,0.09 0,0.02 -0,0.04 -0,0.06 0,0.01 0,0.02 0,0.03 -0,0.08 -0.03,0.12 -0.08,0.17 -0.07,0.06 -0.14,0.06 -0.22,0.05 -0.01,0 -0.03,0 -0.04,0 -0.03,0 -0.06,-0 -0.09,-0 -0.05,-0 -0.09,-0 -0.14,0 -0.03,-0 -0.06,-0 -0.09,-0 -0.01,0 -0.03,0 -0.04,0 -0.08,-0 -0.12,-0.01 -0.18,-0.06 -0.01,-0.01 -0.02,-0.01 -0.02,-0.02 -0.06,-0.08 -0.05,-0.18 -0.05,-0.27 -0,-0.03 -0,-0.06 -0,-0.09 -0,-0.02 -0,-0.04 -0,-0.06 -0,-0.02 -0,-0.03 -0,-0.05 0.01,-0.07 0.04,-0.11 0.09,-0.16 0.04,-0.03 0.07,-0.04 0.12,-0.04z"/>
  <path class="fil6" d="M2.22 4.08c0.2,0 0.4,0 0.6,0 0.02,0.11 0.04,0.22 0.05,0.33 0,0.02 0,0.02 0,0.03 0,0.02 0,0.05 0.01,0.07 0,0.04 0.01,0.07 0.01,0.11 0.01,0.12 0.02,0.25 0.01,0.37 -0.01,0 -0.02,0 -0.03,0 -0.04,0 -0.08,0.01 -0.13,0.01 -0.01,0 -0.03,0 -0.04,0 -0.01,0 -0.03,0 -0.04,0 -0.02,0 -0.02,0 -0.04,0 -0.03,0 -0.03,0 -0.06,0.02 -0.01,-0 -0.02,-0.01 -0.03,-0.01 -0.03,-0 -0.06,-0 -0.09,-0 -0.02,0 -0.03,-0 -0.05,-0 -0.04,0 -0.04,0 -0.08,0.01 -0.05,0.01 -0.11,0.01 -0.17,0.01 -0.01,-0.23 0.02,-0.45 0.04,-0.68 0.01,-0.14 0.01,-0.14 0.03,-0.27z"/>
  <path class="fil7" d="M0.24 6.36c0.01,0.01 0.02,0.02 0.03,0.03 0.03,0 0.03,0 0.06,0 0.01,-0 0.03,-0 0.04,-0 0.01,-0 0.03,-0 0.05,-0 0.03,-0 0.07,-0 0.1,-0 0.02,-0 0.04,-0 0.05,-0 0.09,-0 0.19,-0.01 0.28,-0.01 0.01,-0 0.02,-0 0.03,-0 0.2,-0.01 0.39,-0.01 0.59,-0.01 0.02,-0 0.03,-0 0.05,-0 0.1,-0 0.2,0 0.3,0 0.08,0 0.16,0 0.24,0 0.16,0 0.32,0 0.48,0 0.15,0 0.31,0 0.46,0 0.01,0 0.02,0 0.03,0 0.01,0 0.02,0 0.03,0 0.18,0 0.35,0 0.53,0 0.06,0 0.12,0 0.19,0 0.34,0 0.68,0 1.01,0.01 0.09,0 0.19,0 0.28,0 0.03,-0 0.06,0 0.1,0 0.02,0 0.04,0 0.06,-0 0.01,0 0.02,0 0.03,0 0.05,0 0.05,0 0.09,-0.01 0,0.04 0,0.08 0,0.12 -1.68,0 -3.37,0 -5.11,0 0,-0.04 0,-0.08 0,-0.12z"/>
  <path class="fil6" d="M0.97 4.08c0.07,-0 0.14,-0 0.21,-0 0.02,-0 0.05,-0 0.07,-0 0.03,-0 0.07,-0 0.1,-0 0.01,-0 0.02,-0 0.03,-0 0.02,0 0.05,0 0.07,0 0.03,0.03 0.02,0.07 0.02,0.11 0,0.01 0,0.02 0,0.03 0,0.03 0.01,0.06 0.01,0.09 0,0.02 0,0.04 0.01,0.06 0.05,0.48 0.05,0.48 0.05,0.63 -0.04,0.01 -0.07,0.01 -0.11,0.01 -0.01,0 -0.02,0 -0.03,0 -0.01,-0 -0.02,-0 -0.04,-0 -0.01,0 -0.02,0 -0.04,0 -0.03,0 -0.05,0 -0.08,-0 -0.04,-0 -0.08,0 -0.12,0 -0.02,0 -0.05,0 -0.07,0 -0.02,0 -0.02,0 -0.04,0 -0.01,-0 -0.02,-0 -0.03,-0 -0.01,0 -0.01,0 -0.03,-0 -0.03,-0 -0.03,-0 -0.06,-0.01 -0.01,-0.2 0.01,-0.4 0.03,-0.59 0,-0.03 0.01,-0.06 0.01,-0.1 0.01,-0.08 0.02,-0.16 0.02,-0.23z"/>
  <path class="fil8" d="M5.71 1.97c0.01,0.01 0.01,0.01 0.01,0.03 -0.01,0.02 -0.01,0.02 -0.03,0.05 -0.03,0.06 -0.03,0.12 -0.03,0.19 0.01,0.01 0.01,0.01 0.01,0.03 0.03,0.01 0.06,0.02 0.09,0.03 0,0 0.01,0.01 0.01,0.01 0.03,0.01 0.06,0.01 0.09,0.02 0.07,0.01 0.14,0.03 0.21,0.06 0.05,0.02 0.11,0.04 0.16,0.05 0.01,0 0.02,0.01 0.03,0.01 0.07,0.02 0.07,0.02 0.15,0.01 0.05,-0.08 0.04,-0.19 0.04,-0.29 0,0 0.01,0 0.01,0 0.04,0.15 0.01,0.31 -0.03,0.46 -0.09,-0.01 -0.18,-0.04 -0.27,-0.06 -0.09,-0.03 -0.17,-0.05 -0.26,-0.07 -0.05,-0.01 -0.1,-0.03 -0.15,-0.05 -0.02,-0.01 -0.03,-0.01 -0.05,-0.01 -0.01,-0 -0.02,-0 -0.02,-0.01 -0.08,-0.01 -0.12,-0 -0.19,0.03 -0.08,0.04 -0.17,0.08 -0.26,0.12 -0.01,0 -0.02,0.01 -0.03,0.01 -0.01,0 -0.02,0.01 -0.03,0.01 -0.03,0.01 -0.05,0.02 -0.08,0.04 0.01,0.11 0.01,0.11 0.01,0.22 0.02,-0.01 0.04,-0.03 0.07,-0.04 0.02,0.01 0.02,0.01 0.04,0.01 -0.07,0.05 -0.07,0.05 -0.1,0.05 -0,0.01 -0,0.02 -0,0.03 -0.02,0.06 -0.05,0.09 -0.09,0.13 -0.04,0.02 -0.09,0.04 -0.13,0.04 -0.01,0 -0.01,0 -0.02,0.01 -0,0.01 -0.01,0.02 -0.01,0.03 -0.02,0.02 -0.04,0.04 -0.06,0.06 -0.01,0.01 -0.02,0.02 -0.03,0.03 -0.01,0.01 -0.02,0.02 -0.03,0.02 -0.01,-0.01 -0.01,-0.01 -0.03,-0.01 0.01,-0.01 0.01,-0.01 0.02,-0.02 0.12,-0.11 0.16,-0.21 0.17,-0.37 -0,-0.12 -0.05,-0.23 -0.14,-0.32 -0.04,-0.04 -0.08,-0.06 -0.13,-0.09 -0.01,-0 -0.02,-0.01 -0.02,-0.01 -0.09,-0.04 -0.21,-0.04 -0.31,-0.01 -0.02,0.01 -0.05,0.02 -0.07,0.03 -0.01,0 -0.02,0.01 -0.03,0.01 -0.01,-0 -0.02,-0.01 -0.03,-0.01 0.13,-0.07 0.26,-0.08 0.4,-0.09 0.07,-0.01 0.13,-0.02 0.2,-0.04 0.03,-0.01 0.05,-0.01 0.08,-0.01 0.08,-0.01 0.15,-0.05 0.23,-0.08 0.03,-0.02 0.06,-0.03 0.1,-0.03 -0.03,0.03 -0.05,0.05 -0.09,0.06 -0.01,0 -0.02,0.01 -0.03,0.01 -0.01,0 -0.02,0.01 -0.03,0.01 -0.01,0 -0.02,0.01 -0.03,0.01 -0.04,0.02 -0.08,0.03 -0.13,0.04 0.01,0.02 0.01,0.02 0.03,0.03 0.01,0.01 0.02,0.03 0.03,0.04 0.01,0.01 0.02,0.03 0.03,0.04 0.03,0.03 0.03,0.03 0.03,0.06 0.02,-0.01 0.05,-0.02 0.07,-0.02 0.01,-0 0.03,-0.01 0.04,-0.01 0.04,-0.02 0.07,-0.03 0.1,-0.05 0.04,-0.02 0.08,-0.04 0.12,-0.05 0.18,-0.07 0.18,-0.07 0.3,-0.21 0.02,-0.04 0.03,-0.09 0.05,-0.13 0,-0 0.01,-0.01 0.01,-0.01z"/>
  <path class="fil9" d="M6.18 5.44c0.1,0 0.21,0 0.31,0 0,0.13 0,0.25 0,0.38 0,0.06 0,0.12 0,0.18 0,0.06 0,0.11 0,0.17 0,0.02 0,0.04 0,0.06 0,0.03 0,0.06 0,0.09 0,0.01 0,0.02 0,0.03 -0,0.06 -0.01,0.09 -0.04,0.14 -0.09,0.02 -0.18,0.02 -0.26,-0.01 -0.02,-0.02 -0.01,-0.05 -0.01,-0.08 0,-0.01 0,-0.02 0,-0.03 0,-0.01 0,-0.02 0,-0.03 0,-0.03 0,-0.07 0,-0.1 0,-0.02 0,-0.05 0,-0.07 0,-0.06 0,-0.12 0,-0.18 0,-0.06 0,-0.12 0,-0.18 0,-0.12 0,-0.24 0,-0.36z"/>
  <path class="fil10" d="M2.27 3.46c0.16,0 0.33,0 0.49,0 0.01,0.14 0.03,0.28 0.04,0.42 -0.18,0 -0.37,0 -0.56,0 0,-0.1 0,-0.2 0.01,-0.3 0,-0.04 0.01,-0.07 0.01,-0.11z"/>
  <path class="fil11" d="M4.54 2.58c0.08,0.03 0.12,0.07 0.17,0.15 0.02,0.09 0.02,0.17 -0.03,0.25 -0.04,0.06 -0.09,0.09 -0.16,0.11 -0.09,0.01 -0.15,0.01 -0.23,-0.05 -0.06,-0.05 -0.09,-0.11 -0.1,-0.18 -0,-0.09 0.01,-0.15 0.07,-0.21 0.08,-0.08 0.17,-0.1 0.28,-0.07z"/>
  <path class="fil12" d="M4.4 3.95c0.03,0 0.07,0 0.1,0 0.02,0.19 0.03,0.38 0.04,0.57 0,0.04 0,0.08 0,0.12 0.01,0.13 0.01,0.26 0.01,0.39 -0.15,0 -0.15,0 -0.21,-0.01 0.01,-0.25 0.01,-0.5 0.03,-0.75 0,-0.01 0,-0.02 0,-0.04 0,-0.03 0,-0.07 0,-0.1 0,-0.01 0,-0.02 0,-0.03 0,-0.05 0.01,-0.1 0.02,-0.14z"/>
  <path class="fil11" d="M1.02 3.46c0.12,0 0.25,0 0.38,0 0.01,0.05 0.01,0.05 0.01,0.1 0,0.01 0,0.02 0,0.03 0.01,0.1 0.02,0.19 0.02,0.29 -0.15,0 -0.29,0 -0.44,0 0,-0.21 0,-0.21 0.01,-0.31 0,-0.03 0.01,-0.07 0.01,-0.11z"/>
  <path class="fil13" d="M2.32 2.83c0.12,0 0.25,0 0.38,0 0.01,0.05 0.01,0.1 0.02,0.15 0,0.02 0,0.03 0.01,0.05 0,0.01 0,0.02 0,0.04 0,0.01 0,0.03 0,0.04 0,0.05 0,0.1 0,0.14 -0.06,0 -0.12,0 -0.18,0 -0.02,0 -0.04,0 -0.06,0 -0.03,0 -0.06,0 -0.09,0 -0.01,0 -0.02,0 -0.03,0 -0.02,0 -0.04,-0 -0.07,-0 -0.02,-0.02 -0.02,-0.04 -0.02,-0.07 0,-0.12 0.02,-0.23 0.03,-0.35z"/>
  <path class="fil14" d="M3.52 4.24c0.07,0 0.14,0 0.21,0 0,0.1 0,0.2 0,0.31 0,0.05 0,0.09 0,0.14 0,0.05 0,0.09 0,0.14 0,0.03 0,0.05 0,0.08 0,0.02 0,0.02 0,0.05 0,0.01 0,0.03 0,0.04 -0,0.03 -0,0.03 -0.01,0.04 -0.03,0 -0.06,0 -0.09,0 -0.02,0 -0.03,0 -0.05,0 -0.04,-0 -0.04,-0 -0.05,-0.01 -0,-0.02 -0,-0.05 -0,-0.07 0,-0.02 0,-0.03 0,-0.05 0,-0.02 0,-0.03 0,-0.05 0,-0.02 0,-0.04 0,-0.05 0,-0.05 0,-0.09 0,-0.14 0,-0.05 0,-0.09 0,-0.14 0,-0.09 0,-0.18 0,-0.28z"/>
  <path class="fil15" d="M3.1 5.7c0.17,0 0.34,0 0.52,0 0,0.1 0,0.21 0,0.31 -0.17,0 -0.34,0 -0.52,0 0,-0.1 0,-0.21 0,-0.31z"/>
  <path class="fil16" d="M0.81 5.7c0.17,0 0.34,0 0.52,0 0,0.1 0,0.21 0,0.31 -0.17,0 -0.34,0 -0.52,0 0,-0.1 0,-0.21 0,-0.31z"/>
  <path class="fil17" d="M4.25 5.7c0.17,0 0.34,0 0.52,0 0,0.1 0,0.21 0,0.31 -0.17,0 -0.34,0 -0.52,0 0,-0.1 0,-0.21 0,-0.31z"/>
  <path class="fil18" d="M1.96 5.7c0.17,0 0.34,0 0.52,0 0,0.1 0,0.21 0,0.31 -0.17,0 -0.34,0 -0.52,0 0,-0.1 0,-0.21 0,-0.31z"/>
  <path class="fil19" d="M6.28 5.39c0,0.01 0,0.02 0,0.03 0.01,-0.01 0.02,-0.01 0.03,-0.02 0.06,-0.02 0.09,-0.02 0.15,-0.02 0.04,0.03 0.05,0.04 0.07,0.09 0.01,0.02 0.01,0.02 0.03,0.04 0.01,0.05 0.01,0.1 0.01,0.15 0,0.01 0,0.02 0,0.03 0,0.03 -0,0.05 -0,0.08 0,0.01 0,0.02 0,0.03 -0,0.11 -0,0.23 -0.01,0.34 -0,0.01 -0,0.01 -0,0.03 -0,0.07 -0,0.07 -0.02,0.1 -0,0.04 -0,0.07 0.01,0.11 0.01,0.04 0,0.06 -0.01,0.1 -0.01,0 -0.02,0 -0.03,0 0,0.01 0,0.03 0,0.04 -0.02,0 -0.03,0 -0.05,0 0,0.01 0,0.02 0,0.03 -0.05,0.02 -0.08,0.01 -0.13,0.01 0,-0.01 0,-0.02 0,-0.03 -0.02,0.01 -0.02,0.01 -0.04,0.01 -0.03,0 -0.03,0 -0.06,0 -0.01,0 -0.02,0 -0.03,0 -0.01,-0 -0.02,-0 -0.03,-0 -0.05,-0.07 -0.06,-0.13 -0.06,-0.21 -0,-0.01 -0,-0.02 -0,-0.03 -0,-0.03 -0,-0.06 -0,-0.09 -0,-0.02 -0,-0.04 -0,-0.06 -0,-0.04 -0,-0.08 -0,-0.13 0,-0.05 -0,-0.11 -0,-0.16 -0,-0.04 -0,-0.08 -0,-0.12 -0,-0.02 -0,-0.04 -0,-0.06 -0,-0.2 -0,-0.2 0.06,-0.28 0.04,-0.02 0.06,-0.03 0.1,-0.01zm-0.1 0.05c0,0.34 0,0.67 0,1.02 0.08,0.04 0.18,0.06 0.27,0.03 0.04,-0.05 0.04,-0.1 0.04,-0.16 0,-0.01 0,-0.02 0,-0.03 0,-0.03 -0,-0.06 -0,-0.09 -0,-0.02 -0,-0.04 -0,-0.07 -0,-0.06 -0,-0.11 -0,-0.17 -0,-0.06 -0,-0.12 -0,-0.18 -0,-0.11 -0,-0.23 -0,-0.34 -0.1,0 -0.21,0 -0.31,0z"/>
  <path class="fil20" d="M6.46 2.16c0,0 0.01,0 0.01,0 0.04,0.15 0.01,0.31 -0.03,0.46 -0.09,-0.01 -0.18,-0.04 -0.27,-0.06 -0.09,-0.03 -0.17,-0.05 -0.26,-0.07 -0.05,-0.01 -0.1,-0.03 -0.15,-0.05 -0.02,-0.01 -0.03,-0.01 -0.05,-0.01 -0.01,-0 -0.02,-0 -0.02,-0.01 -0.08,-0.01 -0.12,-0 -0.19,0.03 -0.02,0.01 -0.03,0.02 -0.05,0.02 -0.01,0 -0.02,0.01 -0.03,0.01 -0.05,0.03 -0.1,0.05 -0.15,0.07 -0.01,0 -0.02,0.01 -0.03,0.01 -0.01,0 -0.02,0.01 -0.03,0.01 -0.01,0 -0.02,0.01 -0.03,0.01 -0.03,0.01 -0.05,0.02 -0.08,0.02 -0.01,-0.04 -0.01,-0.04 -0.01,-0.08 0.03,-0.03 0.03,-0.03 0.06,-0.03 0.02,-0 0.02,-0 0.03,-0.01 0,-0.01 0.01,-0.02 0.01,-0.03 0.03,-0.01 0.03,-0.01 0.06,-0.03 0.03,-0.01 0.06,-0.03 0.09,-0.04 0.02,-0.01 0.02,-0.01 0.06,-0.01 0,-0.01 0.01,-0.02 0.01,-0.03 0.06,-0.05 0.12,-0.08 0.2,-0.09 0.11,0.01 0.22,0.05 0.32,0.09 0.06,0.02 0.12,0.03 0.18,0.04 0.04,0.01 0.07,0.02 0.1,0.04 0.02,0 0.03,0.01 0.05,0.01 0.01,0 0.01,0 0.03,0.01 0.01,0 0.02,0 0.03,0.01 0.01,0 0.02,0 0.03,0.01 0.02,0.01 0.05,0.01 0.07,0.02 0.02,-0.04 0.02,-0.08 0.02,-0.12 0,-0.01 0,-0.02 0,-0.03 0,-0.06 0.01,-0.13 0,-0.19z"/>
  <path class="fil21" d="M2.37 2.21c0.09,0 0.17,0 0.26,0 0.02,0.05 0.02,0.1 0.03,0.15 0,0.01 0,0.02 0,0.03 0,0.01 0,0.02 0,0.03 0,0.01 0,0.02 0,0.03 0,0.06 0,0.11 0,0.17 -0.11,0 -0.21,0 -0.33,0 -0,-0.14 0.01,-0.28 0.03,-0.42z"/>
  <path class="fil22" d="M1.07 2.83c0.09,0 0.17,0 0.26,0 0.02,0.14 0.03,0.28 0.04,0.42 -0.11,0 -0.21,0 -0.33,0 0,-0.06 0,-0.11 0.01,-0.17 0,-0.02 0,-0.03 0,-0.05 0,-0.02 0,-0.03 0,-0.05 0,-0.01 0,-0.03 0,-0.04 0,-0.04 0,-0.04 0.02,-0.1z"/>
  <path class="fil23" d="M6.18 5.44c0.1,0 0.21,0 0.31,0 0,0.3 0,0.6 0,0.91 -0.03,0.01 -0.03,0.01 -0.07,0.03 -0,-0.01 -0.01,-0.03 -0.01,-0.04 0,-0.01 0.01,-0.02 0.01,-0.03 0.01,0 0.02,0 0.03,0 -0,-0.01 -0.01,-0.03 -0.01,-0.04 -0.02,-0.08 -0.02,-0.17 -0.02,-0.25 -0,-0.01 -0,-0.02 -0,-0.03 -0,-0.15 -0,-0.29 0.01,-0.44 -0.06,0 -0.13,0 -0.2,0 0,0.02 0,0.05 0,0.07 0,0.08 0,0.16 0,0.24 0,0.05 0,0.1 0,0.14 0,0.05 0,0.09 0,0.14 0,0.02 0,0.04 0,0.05 0,0.02 0,0.05 0,0.07 0,0.01 0,0.03 0,0.04 -0,0.03 -0,0.03 -0.01,0.06 -0.01,-0 -0.03,-0.01 -0.04,-0.01 0,-0.31 0,-0.61 0,-0.92z"/>
  <path class="fil24" d="M0.97 4.08c0.07,-0 0.14,-0 0.21,-0 0.02,-0 0.05,-0 0.07,-0 0.03,-0 0.07,-0 0.1,-0 0.01,-0 0.02,-0 0.03,-0 0.02,0 0.05,0 0.07,0 0.03,0.03 0.02,0.07 0.02,0.11 0,0.01 0,0.02 0,0.03 0,0.03 0.01,0.06 0.01,0.09 0,0.02 0,0.04 0.01,0.06 0.05,0.48 0.05,0.48 0.05,0.63 -0.04,0.01 -0.07,0.01 -0.11,0.01 -0.01,0 -0.02,0 -0.03,0 -0.01,-0 -0.02,-0 -0.04,-0 -0.01,0 -0.02,0 -0.04,0 -0.03,0 -0.05,0 -0.08,-0 -0.04,-0 -0.08,0 -0.12,0 -0.02,0 -0.05,0 -0.07,0 -0.02,0 -0.02,0 -0.04,0 -0.01,-0 -0.02,-0 -0.03,-0 -0.01,0 -0.01,0 -0.03,-0 -0.03,-0 -0.03,-0 -0.06,-0.01 -0.01,-0.2 0.01,-0.4 0.03,-0.59 0,-0.03 0.01,-0.06 0.01,-0.1 0.01,-0.08 0.02,-0.16 0.02,-0.23zm0.05 0.07c-0.06,0.12 -0.06,0.24 -0.05,0.37 0,0.07 -0,0.11 -0.04,0.18 -0.01,0.03 -0.01,0.03 -0.01,0.06 -0,0.01 -0,0.02 -0,0.03 -0,0.05 -0,0.1 -0,0.15 0.06,0.02 0.12,0.01 0.18,0.01 0.02,0 0.02,0 0.03,0 0.02,0 0.05,0 0.07,-0 0.04,-0 0.07,0 0.11,0 0.02,0 0.05,0 0.07,-0 0.01,0 0.02,0 0.03,0 0.05,0 0.05,0 0.09,-0.01 0.01,-0.09 -0,-0.19 -0.01,-0.28 -0,-0.02 -0,-0.02 -0,-0.03 -0.01,-0.05 -0.01,-0.1 -0.03,-0.15 -0.02,-0.07 -0.02,-0.13 -0.02,-0.2 -0,-0.02 -0,-0.05 -0,-0.07 -0,-0.01 -0,-0.02 -0,-0.03 0,-0.02 0,-0.02 -0.02,-0.04 -0.09,-0.01 -0.18,-0.01 -0.27,-0.02 -0.01,-0 -0.02,-0 -0.03,-0 -0.05,-0 -0.07,0 -0.11,0.03z"/>
  <path class="fil25" d="M3.81 2.82c0,0.01 0,0.01 0,0.03 0.01,0.08 0.02,0.15 0.04,0.22 0.01,0 0.02,0 0.03,0 0.01,0.02 0.02,0.04 0.03,0.06 0.01,0.02 0.01,0.02 0.01,0.04 0.01,0.02 0.02,0.05 0.03,0.07 0.01,0 0.02,0 0.03,0 0.01,0.01 0.01,0.02 0.02,0.03 0.02,0.04 0.04,0.05 0.07,0.07 -0,0.02 -0.01,0.03 -0.01,0.05 -0.01,-0 -0.03,-0.01 -0.04,-0.01 0.01,0 0.02,0 0.03,0 -0.02,-0.02 -0.04,-0.05 -0.06,-0.07 -0.01,-0.01 -0.02,-0.03 -0.03,-0.04 -0.03,-0.03 -0.04,-0.04 -0.08,-0.05 -0.03,0.01 -0.03,0.01 -0.06,0.02 -0.01,0.01 -0.02,0.01 -0.03,0.02 -0.02,0.01 -0.04,0.02 -0.07,0.03 -0.07,0.03 -0.12,0.05 -0.2,0.06 -0.03,-0.01 -0.03,-0.01 -0.04,-0.04 -0.01,-0.04 -0.01,-0.07 0.02,-0.1 0.03,-0.03 0.05,-0.04 0.09,-0.06 0.02,-0.01 0.02,-0.01 0.04,-0.02 0.01,-0.01 0.03,-0.01 0.04,-0.02 0.01,-0.01 0.03,-0.01 0.04,-0.02 0.03,-0.01 0.07,-0.03 0.1,-0.04 -0,-0.07 -0.01,-0.14 -0.01,-0.21 -0.01,0.01 -0.03,0.02 -0.04,0.02 -0.02,0.01 -0.04,0.02 -0.06,0.03 -0.01,0.01 -0.01,0.01 -0.03,0.02 -0.01,0 -0.02,0.01 -0.03,0.01 -0.01,0 -0.02,0.01 -0.03,0.01 -0.03,0.01 -0.05,0.01 -0.08,-0 0.04,-0.02 0.08,-0.04 0.12,-0.06 0.01,-0.01 0.02,-0.01 0.03,-0.02 0.01,-0.01 0.02,-0.01 0.03,-0.02 0.02,-0.01 0.02,-0.01 0.03,-0.01 0.03,-0.01 0.03,-0.01 0.07,-0.01z"/>
  <path class="fil26" d="M5.71 1.97c0.01,0.01 0.01,0.01 0.01,0.03 -0.01,0.02 -0.01,0.02 -0.03,0.05 -0.03,0.06 -0.03,0.12 -0.03,0.19 0.01,0.01 0.01,0.01 0.01,0.03 0.03,0.01 0.06,0.02 0.09,0.03 0,0 0.01,0.01 0.01,0.01 0.03,0.01 0.06,0.01 0.09,0.02 0.07,0.01 0.14,0.03 0.21,0.06 0.05,0.02 0.11,0.04 0.16,0.05 0.01,0 0.02,0.01 0.03,0.01 0.05,0.01 0.09,0.03 0.15,0.01 0.02,-0.02 0.02,-0.02 0.04,-0.04 -0,0.03 -0.01,0.06 -0.01,0.09 -0.03,0.02 -0.04,0.01 -0.08,0 -0.01,-0 -0.02,-0.01 -0.03,-0.01 -0.01,-0 -0.02,-0.01 -0.03,-0.01 -0.01,-0 -0.02,-0.01 -0.03,-0.01 -0.09,-0.02 -0.17,-0.05 -0.26,-0.07 -0.01,-0 -0.03,-0.01 -0.04,-0.01 -0.03,-0.01 -0.05,-0.02 -0.08,-0.02 -0.03,-0.01 -0.05,-0.02 -0.08,-0.02 -0.03,-0.01 -0.05,-0.02 -0.08,-0.02 -0.08,-0.03 -0.08,-0.03 -0.17,-0.01 -0.01,0.01 -0.03,0.02 -0.04,0.03 -0.02,0.01 -0.03,0.02 -0.05,0.03 -0.01,0.01 -0.02,0.01 -0.03,0.02 -0.04,0.02 -0.08,0.04 -0.13,0.06 -0.05,0.02 -0.1,0.05 -0.15,0.07 -0.04,0.02 -0.04,0.02 -0.08,0.02 -0,-0.01 -0.01,-0.02 -0.01,-0.03 -0.03,-0.01 -0.03,-0.01 -0.05,-0.03 0.01,-0 0.01,-0.01 0.02,-0.01 0.02,-0.01 0.04,-0.02 0.07,-0.03 0.01,-0.01 0.03,-0.01 0.04,-0.02 0.01,-0.01 0.03,-0.01 0.04,-0.02 0.05,-0.03 0.11,-0.05 0.16,-0.07 0.18,-0.07 0.18,-0.07 0.3,-0.21 0.02,-0.04 0.03,-0.09 0.05,-0.13 0,-0 0.01,-0.01 0.01,-0.01z"/>
  <path class="fil27" d="M4.25 5.7c0.17,0 0.34,0 0.52,0 0,0.1 0,0.21 0,0.31 -0.17,0 -0.34,0 -0.52,0 0,-0.1 0,-0.21 0,-0.31zm0.01 0.01c0,0.06 0,0.13 0,0.2 0.16,0 0.33,0 0.49,0 0,-0.06 0,-0.13 0,-0.2 -0.16,0 -0.33,0 -0.49,0z"/>
  <path class="fil28" d="M1.96 5.7c0.17,0 0.34,0 0.52,0 0,0.1 0,0.21 0,0.31 -0.17,0 -0.34,0 -0.52,0 0,-0.1 0,-0.21 0,-0.31zm0.01 0.01c0,0.06 0,0.13 0,0.2 0.16,0 0.33,0 0.49,0 0,-0.06 0,-0.13 0,-0.2 -0.16,0 -0.33,0 -0.49,0z"/>
  <path class="fil29" d="M2.27 3.46c0.16,0 0.33,0 0.49,0 0.01,0.14 0.03,0.28 0.04,0.42 -0.18,0 -0.37,0 -0.56,0 0,-0.02 0.01,-0.04 0.01,-0.07 0,0.01 0.01,0.03 0.01,0.04 0.02,-0 0.02,-0 0.03,-0.01 0.04,-0 0.07,-0.01 0.1,-0.01 0.05,0 0.05,0 0.09,-0.01 0.02,-0 0.05,-0 0.07,-0 0.01,0 0.02,0 0.04,0 0.01,0 0.02,0 0.03,0 0,-0.01 0.01,-0.03 0.01,-0.04 0.01,0 0.02,0 0.03,0 0,-0.01 0,-0.02 0,-0.03 0.04,-0.02 0.07,-0.01 0.1,-0.01 -0.01,-0.01 -0.01,-0.01 -0.01,-0.03 -0,-0.02 -0,-0.04 -0,-0.06 -0,-0.01 -0,-0.02 -0,-0.03 -0,-0.01 -0,-0.02 -0,-0.04 -0,-0.01 -0,-0.02 -0,-0.04 -0,-0.03 -0,-0.06 -0,-0.09 -0.01,0 -0.03,0.01 -0.04,0.01 0.01,0.01 0.01,0.01 0.01,0.03 0,0.03 0,0.07 0,0.1 -0,0.01 -0,0.02 -0,0.03 -0,0.02 -0,0.05 -0,0.07 -0.01,0 -0.02,0 -0.03,0 -0.01,-0.05 -0.01,-0.1 -0.01,-0.15 0,-0.01 0,-0.03 0,-0.04 0,-0.01 0,-0.02 0,-0.03 -0.02,0.01 -0.02,0.01 -0.01,0.05 0,0.01 0,0.02 0,0.03 -0,-0.02 -0.01,-0.03 -0.01,-0.05 -0.02,0 -0.04,0.01 -0.07,0.01 0,-0.01 0,-0.03 0,-0.04 -0.15,-0.01 -0.15,-0.01 -0.3,-0.01 0,0.03 0,0.06 0,0.09 0,0.05 0,0.05 -0,0.09 -0.01,0.01 -0.02,0.02 -0.03,0.03 -0,-0.02 -0,-0.04 -0,-0.07 -0,-0.01 -0,-0.02 -0,-0.04 0,-0.04 0,-0.04 0.01,-0.12z"/>
  <path class="fil30" d="M2.5 2.31c0.01,0.01 0.01,0.01 0.02,0.02 0.03,0.02 0.03,0.02 0.07,0.04 0.04,0.02 0.04,0.02 0.05,0.04 0,0.03 0,0.05 0,0.08 0,0.02 0,0.02 0,0.04 -0,0.04 -0,0.04 -0.01,0.06 -0.03,0 -0.07,0 -0.1,0 -0.01,0 -0.02,0 -0.03,0 -0.05,0 -0.08,-0 -0.13,-0.01 0,-0.09 0.01,-0.17 0.01,-0.26 0.02,0.01 0.02,0.01 0.04,0.03 0.03,-0.01 0.05,-0.03 0.08,-0.04z"/>
  <path class="fil31" d="M3.52 4.24c0.07,0 0.14,0 0.21,0 0,0.22 0,0.44 0,0.66 -0,0 -0.01,0 -0.01,0 0,-0.18 0,-0.35 0,-0.53 -0.04,0.01 -0.09,0.02 -0.13,0.03 -0.01,0.07 -0.02,0.15 -0.01,0.22 0.01,0.05 0,0.1 -0.01,0.15 -0.01,0.07 -0.01,0.07 -0.01,0.15 -0.01,-0 -0.03,-0.01 -0.04,-0.01 0,-0.22 0,-0.44 0,-0.66z"/>
  <path class="fil32" d="M0.97 4.03c0.01,0 0.02,0 0.03,0 0.02,0 0.02,0 0.04,0 0.01,0 0.02,0 0.04,0 0.03,0 0.03,0 0.07,-0.01 0.02,-0 0.04,-0 0.05,-0 0.02,0 0.02,0 0.05,0 0,0.01 0,0.02 0,0.03 0.01,-0 0.02,-0.01 0.03,-0.01 0.06,-0.02 0.11,-0.02 0.17,-0 0.03,0.02 0.03,0.02 0.04,0.05 0,0.03 0.01,0.05 0.01,0.08 0,0.02 0,0.03 0,0.05 0,0.03 0,0.03 0.01,0.05 0,0.01 0,0.02 0,0.03 0.02,0.18 0.03,0.37 0.03,0.55 -0,0 -0.01,0 -0.01,0 -0,-0.01 -0,-0.01 -0,-0.02 -0.01,-0.08 -0.02,-0.16 -0.02,-0.24 -0,-0.03 -0.01,-0.06 -0.01,-0.09 -0,-0.04 -0.01,-0.09 -0.01,-0.13 -0,-0.01 -0,-0.03 -0,-0.04 -0,-0.01 -0,-0.03 -0,-0.04 -0,-0.02 -0,-0.02 -0,-0.03 -0.01,-0.05 -0.01,-0.1 -0.02,-0.16 -0.24,-0.01 -0.24,-0.01 -0.48,-0.01 0,0.05 0,0.09 0,0.14 -0,0.04 -0.01,0.09 -0.01,0.13 -0,0.01 -0,0.02 -0,0.04 -0,0.04 -0.01,0.08 -0.01,0.11 -0,0.03 -0.01,0.05 -0.01,0.08 -0.01,0.06 -0.01,0.13 -0.02,0.19 -0,0 -0.01,0 -0.01,0 -0,-0.05 -0,-0.09 -0,-0.14 -0,-0.01 -0,-0.03 -0,-0.04 -0,-0.01 -0,-0.03 -0,-0.04 -0,-0.01 -0,-0.02 -0,-0.04 0,-0.03 0,-0.03 0.01,-0.06 0.01,-0.04 0.01,-0.07 0.01,-0.11 0,-0.02 0,-0.03 0,-0.05 0,-0.03 0,-0.07 0,-0.1 0,-0.02 0,-0.03 0,-0.05 0,-0.01 0,-0.03 0,-0.04 0,-0.03 0,-0.03 0.02,-0.06 0.01,0 0.02,0 0.03,0 0,-0.01 0,-0.02 0,-0.03z"/>
  <path class="fil33" d="M3.61 5.88c0,0 0.01,0 0.01,0 0,0.04 0,0.09 0,0.13 -0.17,0 -0.34,0 -0.52,0 0,-0.04 0,-0.08 0,-0.12 0.07,-0 0.14,-0 0.2,-0 0.02,-0 0.05,-0 0.07,-0 0.03,-0 0.07,-0 0.1,-0 0.01,-0 0.02,-0 0.03,-0 0.07,0 0.07,0 0.1,0.01 0,-0.01 0,-0.02 0,-0.03z"/>
  <path class="fil28" d="M0.81 5.89c0.02,0 0.02,0 0.05,0 0.06,0 0.11,0 0.17,0 0.02,0 0.05,0 0.07,0 0.03,0 0.07,0 0.1,0 0.01,0 0.02,0 0.03,0 0.05,0 0.05,0 0.1,-0.01 0,0.04 0,0.08 0,0.12 -0.17,0 -0.34,0 -0.52,0 0,-0.04 0,-0.08 0,-0.12z"/>
  <path class="fil34" d="M0.91 4.67c0,0 0.01,0 0.01,0 0,0.09 0,0.17 0,0.26 0.19,0 0.38,0 0.57,0 0.01,-0.03 0.02,-0.05 0.03,-0.08 0,0 0.01,0 0.01,0 0,0.05 0,0.1 0,0.16 -0.04,0.01 -0.07,0.01 -0.11,0.01 -0.01,0 -0.02,0 -0.03,0 -0.01,-0 -0.02,-0 -0.04,-0 -0.01,0 -0.02,0 -0.04,0 -0.03,0 -0.05,0 -0.08,-0 -0.04,-0 -0.08,0 -0.12,0 -0.02,0 -0.05,0 -0.07,0 -0.02,0 -0.02,0 -0.04,0 -0.01,-0 -0.02,-0 -0.03,-0 -0.01,0 -0.01,0 -0.03,-0 -0.03,-0 -0.03,-0 -0.06,-0.01 -0,-0.04 -0,-0.07 -0,-0.11 -0,-0.01 -0,-0.02 -0,-0.03 -0,-0.07 0,-0.13 0.01,-0.2z"/>
  <path class="fil35" d="M4.2 2.75c0,0 0.01,0 0.01,0 0,0.02 0.01,0.03 0.01,0.05 0.01,0.06 0.04,0.09 0.08,0.14 0.1,0.06 0.19,0.04 0.3,0.02 0.03,-0.01 0.04,-0.03 0.05,-0.06 0.01,-0.01 0.01,-0.02 0.02,-0.03 0.02,-0.03 0.03,-0.06 0.03,-0.1 0,0 0.01,0 0.01,0 0.01,0.09 0,0.16 -0.05,0.23 -0.05,0.05 -0.11,0.09 -0.18,0.1 -0.09,0 -0.15,-0.01 -0.21,-0.07 -0.06,-0.06 -0.08,-0.12 -0.08,-0.21 0,-0.01 0,-0.03 0,-0.04 0,-0.01 0,-0.02 0,-0.03z"/>
  <path class="fil36" d="M2.15 4.77c0,0 0.01,0 0.01,0 0,0.06 0.01,0.11 0.01,0.17 0.06,0 0.06,0 0.12,-0.01 0.06,-0.01 0.13,-0.01 0.19,-0.01 0.02,-0 0.02,-0 0.04,-0 0.07,-0 0.14,0 0.21,0.03 0.01,0 0.02,0 0.03,0 0.04,0 0.09,0 0.13,0 0,0.01 0,0.03 0,0.04 -0.01,0 -0.02,0 -0.03,0 -0.04,0 -0.08,0.01 -0.13,0.01 -0.01,0 -0.03,0 -0.04,0 -0.01,0 -0.03,0 -0.04,0 -0.02,0 -0.02,0 -0.04,0 -0.03,0 -0.03,0 -0.06,0.02 -0.01,-0 -0.02,-0.01 -0.03,-0.01 -0.03,-0 -0.06,-0 -0.09,-0 -0.02,0 -0.03,-0 -0.05,-0 -0.04,0 -0.04,0 -0.08,0.01 -0.05,0.01 -0.11,0.01 -0.17,0.01 0,-0.09 0,-0.17 0,-0.26z"/>
  <path class="fil37" d="M2.22 4.08c0.2,0 0.4,0 0.6,0 0.02,0.12 0.04,0.24 0.05,0.36 0,0.01 0,0.03 0,0.04 0.01,0.11 0.01,0.21 0.01,0.32 -0.01,-0.01 -0.01,-0.01 -0.03,-0.01 -0,-0.03 -0.01,-0.07 -0.01,-0.1 -0,-0.01 -0,-0.02 -0,-0.03 -0,-0.03 -0,-0.07 -0.01,-0.1 -0,-0.03 -0,-0.07 -0.01,-0.1 -0,-0.02 -0,-0.04 -0,-0.06 -0,-0.04 -0.01,-0.08 -0.01,-0.12 -0.01,-0.03 -0.01,-0.07 -0.01,-0.1 0,-0.01 0,-0.02 0,-0.03 0,-0.01 0,-0.02 0,-0.02 -0.02,0 -0.02,0 -0.04,0 -0.05,0 -0.1,0 -0.15,0 -0.02,0 -0.04,0 -0.06,0 -0.03,0 -0.06,0 -0.09,0 -0.01,0 -0.01,0 -0.03,0 -0.07,0 -0.07,0 -0.1,-0.01 -0.02,0 -0.04,0.01 -0.07,0.01 -0.01,0.07 -0.03,0.14 -0.04,0.21 -0.01,0 -0.02,0 -0.03,0 -0,-0.09 0,-0.17 0.01,-0.26z"/>
  <path class="fil38" d="M1.02 3.46c0.12,0 0.25,0 0.38,0 0.01,0.05 0.01,0.05 0.01,0.1 0,0.01 0,0.02 0,0.03 0.01,0.1 0.02,0.19 0.02,0.29 -0.15,0 -0.29,0 -0.44,0 0,-0.21 0,-0.21 0.01,-0.31 0,-0.03 0.01,-0.07 0.01,-0.11zm0.23 0.03c-0.04,0 -0.07,0 -0.11,0 -0.01,0 -0.02,-0 -0.03,-0 -0.02,-0 -0.05,-0 -0.07,-0 -0.02,0.04 -0.02,0.07 -0.02,0.11 -0,0.01 -0,0.03 -0,0.05 0,0.04 0.01,0.06 0.03,0.09 0.01,0.02 0.01,0.03 0.02,0.05 0.01,0.02 0.01,0.02 0.02,0.04 0.04,0.01 0.04,0.01 0.09,0.01 0.01,0 0.02,0 0.03,0.01 0.05,0.01 0.11,0.01 0.17,0.01 0.02,-0.02 0.01,-0.04 0.01,-0.07 0,-0.01 0,-0.02 0,-0.03 -0,-0.02 -0,-0.02 -0,-0.04 0,-0.01 0,-0.02 0,-0.03 -0,-0.07 -0,-0.14 -0.01,-0.21 -0.02,-0 -0.03,-0 -0.05,-0 -0.01,-0 -0.02,-0 -0.03,-0 -0.03,-0 -0.03,-0 -0.05,0.01z"/>
  <path class="fil39" d="M2.32 2.83c0.12,0 0.25,0 0.38,0 0.01,0.05 0.01,0.1 0.02,0.15 0,0.02 0,0.03 0.01,0.05 0,0.01 0,0.02 0,0.04 0,0.01 0,0.03 0,0.04 0,0.05 0,0.1 0,0.14 -0.06,0 -0.12,0 -0.18,0 -0.02,0 -0.04,0 -0.06,0 -0.03,0 -0.06,0 -0.09,0 -0.01,0 -0.02,0 -0.03,0 -0.02,0 -0.04,-0 -0.07,-0 -0.02,-0.02 -0.02,-0.04 -0.02,-0.07 0,-0.12 0.02,-0.23 0.03,-0.35zm0.04 0.05c-0.05,0.1 -0.04,0.23 -0.04,0.34 0.01,-0 0.03,-0.01 0.04,-0.01 0.02,-0 0.05,-0 0.07,-0 0.01,0 0.03,0 0.04,0 0.01,0 0.03,0 0.04,0 0.02,0 0.02,0 0.04,0 0.04,0 0.07,0 0.11,0 0,-0.01 0,-0.02 0,-0.03 0.01,0 0.02,0 0.03,0 0,-0.11 0,-0.23 -0.01,-0.34 -0.17,-0.01 -0.17,-0.01 -0.33,0.04z"/>
  <path class="fil40" d="M4.57 3.48c0,0.08 0,0.16 0,0.25 0.03,0 0.05,0 0.08,0 0.02,0.02 0.02,0.02 0.04,0.04 -0.16,-0.02 -0.16,-0.02 -0.21,-0.08 -0.01,-0.06 -0,-0.11 0,-0.17 -0.03,0 -0.06,0 -0.09,0 0,0.01 0,0.03 0,0.04 0,0.02 0,0.02 0,0.05 0,0.02 0,0.03 0,0.05 -0,0.04 -0,0.04 -0.03,0.08 -0.03,0 -0.03,0 -0.05,0 -0.02,-0 -0.03,-0 -0.05,-0 0,-0 0,-0.01 0,-0.01 0.02,-0 0.04,-0.01 0.07,-0.01 -0,-0.01 -0,-0.03 -0,-0.04 -0,-0.02 -0,-0.03 -0,-0.05 -0,-0.02 -0,-0.03 -0,-0.05 0,-0.04 0,-0.06 0.01,-0.1 0.08,-0.01 0.15,-0.02 0.23,0z"/>
  <path class="fil41" d="M4.57 2.59c0.06,0.03 0.1,0.07 0.13,0.14 0,0.03 0,0.05 0,0.08 -0.06,-0.06 -0.06,-0.06 -0.08,-0.1 -0.04,-0.04 -0.07,-0.04 -0.13,-0.04 -0.02,0 -0.02,0 -0.04,0 -0.01,0 -0.02,0 -0.04,0 -0.07,0 -0.07,0 -0.14,0.02 0,0.02 0,0.04 0,0.07 -0.01,0 -0.02,0 -0.03,0 -0,0.03 -0.01,0.05 -0.01,0.08 -0.01,0 -0.02,0 -0.03,0 -0,-0.07 0,-0.11 0.04,-0.17 0.09,-0.1 0.2,-0.12 0.32,-0.07z"/>
  <path class="fil42" d="M1.07 2.83c0.09,0 0.17,0 0.26,0 0.02,0.14 0.03,0.28 0.04,0.42 -0.11,0 -0.21,0 -0.33,0 0,-0.06 0,-0.11 0.01,-0.17 0,-0.02 0,-0.03 0,-0.05 0,-0.02 0,-0.03 0,-0.05 0,-0.01 0,-0.03 0,-0.04 0,-0.04 0,-0.04 0.02,-0.1zm0.15 0.04c-0.01,0 -0.01,0 -0.03,0 -0.04,0.01 -0.04,0.01 -0.12,0.06 0,0.09 0,0.19 0,0.29 0.03,-0 0.06,-0 0.09,-0 0.01,-0 0.01,-0 0.03,-0 0.05,-0 0.1,-0.01 0.15,-0.03 0,-0.1 -0,-0.2 -0.01,-0.3 -0.04,-0.01 -0.07,-0.01 -0.11,-0.01z"/>
  <path class="fil43" d="M5.16 2.16c0.01,0 0.03,0.01 0.04,0.01 -0.13,0.07 -0.13,0.07 -0.16,0.08 -0.02,0.01 -0.04,0.02 -0.07,0.03 -0.04,0.02 -0.04,0.02 -0.07,0.02 0,0.01 0,0.02 0,0.03 -0.01,0 -0.02,0.01 -0.03,0.01 -0.01,0 -0.03,0.01 -0.04,0.01 -0.01,0 -0.03,0.01 -0.04,0.01 -0.03,0.01 -0.06,0.02 -0.09,0.04 0,0.01 0,0.02 0,0.03 -0.05,-0.02 -0.1,-0.03 -0.16,-0.05 -0.11,-0.01 -0.2,-0 -0.3,0.04 -0.01,0 -0.02,0.01 -0.03,0.01 -0.01,-0 -0.02,-0.01 -0.03,-0.01 0.13,-0.07 0.26,-0.08 0.4,-0.09 0.07,-0.01 0.13,-0.02 0.2,-0.04 0.03,-0.01 0.05,-0.01 0.08,-0.01 0.08,-0.01 0.23,-0.05 0.28,-0.11z"/>
  <path class="fil44" d="M5.12 2.74c0,0 0.01,0 0.01,0 0,0.03 0,0.07 0,0.1 0.01,-0.01 0.02,-0.01 0.03,-0.02 0.01,-0.01 0.02,-0.01 0.04,-0.02 0.01,0 0.03,0.01 0.04,0.01 -0.07,0.05 -0.07,0.05 -0.1,0.05 -0,0.01 -0,0.02 -0,0.03 -0.02,0.06 -0.05,0.09 -0.09,0.13 -0.04,0.02 -0.09,0.04 -0.13,0.04 -0.01,0 -0.02,0 -0.02,0.01 -0,0.01 -0.01,0.02 -0.01,0.03 -0.02,0.02 -0.04,0.04 -0.06,0.06 -0.01,0.01 -0.02,0.02 -0.03,0.03 -0.01,0.01 -0.02,0.02 -0.03,0.02 -0.01,-0 -0.02,-0.01 -0.03,-0.01 0.01,-0.01 0.01,-0.01 0.02,-0.02 0.09,-0.09 0.14,-0.17 0.16,-0.3 0.01,0.02 0.01,0.02 0.03,0.04 0.01,-0.01 0.02,-0.03 0.03,-0.04 0.01,0 0.01,0 0.03,0.01 0.04,0.01 0.04,0.01 0.08,-0.01 0.04,-0.04 0.05,-0.07 0.05,-0.13 0,-0.01 0,-0.02 0,-0.02z"/>
  <path class="fil45" d="M1.29 2.78c0.01,0 0.03,0 0.04,0 0.08,0.14 0.05,0.32 0.05,0.48 -0.01,0 -0.02,0 -0.03,0 0,0.01 0,0.02 0,0.03 -0.05,0.02 -0.1,0.02 -0.16,0.02 -0.01,0 -0.02,0 -0.03,0 -0.03,0 -0.03,0 -0.08,-0.01 -0.02,-0.02 -0.03,-0.03 -0.05,-0.05 0.11,0 0.21,0 0.33,0 -0,-0.04 -0,-0.04 -0.01,-0.08 -0,-0.03 -0.01,-0.05 -0.01,-0.07 -0,-0.03 -0.01,-0.05 -0.01,-0.08 -0,-0.02 -0,-0.03 -0.01,-0.05 -0,-0.01 -0,-0.03 -0,-0.05 -0,-0.04 -0,-0.04 -0,-0.09 -0.09,0 -0.17,0 -0.26,0 0.01,-0.03 0.01,-0.03 0.05,-0.04 0.03,-0 0.05,-0 0.08,0 0.03,0 0.05,0 0.08,0 0,-0 0.01,-0.01 0.01,-0.01z"/>
  <path class="fil46" d="M2.16 4.68c0,0 0.01,0 0.01,0 0,0.07 0,0.15 0,0.22 0.02,-0 0.03,-0.01 0.05,-0.01 0.03,0 0.05,0.01 0.08,0.01 0.04,0 0.09,0 0.13,0 0.02,0 0.02,0 0.04,-0 0.04,-0 0.08,-0 0.12,-0 0.03,-0 0.05,-0 0.08,-0 0.07,-0 0.13,-0 0.2,-0 0,-0.03 0,-0.05 0,-0.08 0,0 0.01,0 0.01,0 0,0.04 0,0.09 0,0.13 -0.05,0.02 -0.08,0.01 -0.13,0 -0,0.01 -0.01,0.02 -0.01,0.03 -0.01,-0 -0.02,-0.01 -0.03,-0.01 -0.1,-0.03 -0.2,-0.03 -0.3,-0.03 -0.01,0 -0.03,-0 -0.04,-0 -0.02,0 -0.02,0 -0.04,0 -0.02,0 -0.02,0 -0.03,0 -0.03,0 -0.03,0 -0.07,0.01 -0.03,0.01 -0.03,0.01 -0.08,-0.01 0,-0.09 0,-0.17 0,-0.26z"/>
  <path class="fil47" d="M3.73 3.51c0,0 0.01,0 0.01,0 0,0.16 0.01,0.33 0.01,0.49 0.06,0.03 0.06,0.03 0.12,0.05 0.06,0.07 0.08,0.11 0.08,0.2 0,0.02 0,0.03 0,0.05 -0,0.02 -0,0.04 -0,0.05 -0,0.02 -0,0.04 -0,0.06 -0,0.05 -0,0.1 -0,0.15 -0,0.05 -0,0.1 -0,0.15 -0,0.1 -0,0.2 -0,0.29 0.06,0 0.11,0 0.17,0 0,-0.08 0.01,-0.15 0.01,-0.23 0,0 0.01,0 0.01,0 0,0.09 0,0.17 0,0.26 -0.07,0 -0.14,0 -0.21,0 -0,-0.03 -0,-0.05 -0,-0.08 -0,-0.08 -0,-0.17 -0,-0.25 -0,-0.05 -0,-0.1 -0,-0.15 -0,-0.05 -0,-0.1 -0,-0.15 -0,-0.02 -0,-0.04 -0,-0.06 -0,-0.03 -0,-0.05 -0,-0.08 -0,-0.01 -0,-0.03 -0,-0.05 -0.01,-0.06 -0.03,-0.11 -0.07,-0.15 -0.04,-0.03 -0.04,-0.03 -0.13,-0.05 0,-0.17 0,-0.34 0,-0.52z"/>
  <path class="fil48" d="M5.71 1.97c0,0.01 0.01,0.02 0.01,0.03 -0.01,0.02 -0.01,0.02 -0.03,0.05 -0.03,0.06 -0.03,0.12 -0.03,0.19 0,0.01 0.01,0.02 0.01,0.03 0.03,0.01 0.06,0.02 0.09,0.03 0,0 0.01,0.01 0.01,0.01 0.03,0.01 0.06,0.01 0.09,0.02 0.07,0.01 0.14,0.03 0.21,0.06 0.05,0.02 0.11,0.04 0.16,0.05 0.02,0 0.02,0 0.03,0.01 0.05,0.01 0.09,0.03 0.15,0.01 0.02,-0.02 0.02,-0.02 0.04,-0.04 -0,0.03 -0.01,0.06 -0.01,0.09 -0.03,0.02 -0.04,0.01 -0.08,0 -0.01,-0 -0.02,-0.01 -0.03,-0.01 -0.02,-0 -0.02,-0 -0.03,-0.01 -0.01,-0 -0.02,-0.01 -0.03,-0.01 -0.09,-0.02 -0.17,-0.05 -0.26,-0.07 -0.01,-0 -0.03,-0.01 -0.04,-0.01 -0.03,-0.01 -0.06,-0.02 -0.08,-0.02 -0.07,-0.02 -0.15,-0.04 -0.22,-0.06 0,-0.01 0,-0.02 0,-0.03 -0.01,-0 -0.03,-0.01 -0.04,-0.01 -0.01,-0.12 0.01,-0.19 0.08,-0.29z"/>
  <path class="fil49" d="M4.25 5.7c0.17,0 0.34,0 0.52,0 0,0.08 0,0.15 0,0.23 -0.03,-0 -0.06,-0 -0.1,-0 -0.03,-0 -0.06,-0 -0.09,-0 -0.02,-0 -0.04,-0 -0.07,-0 -0.03,-0 -0.06,-0 -0.09,-0 -0.01,-0 -0.02,-0 -0.03,-0 -0.04,0 -0.09,0 -0.13,0.01 -0.04,-0.07 -0.01,-0.16 -0.01,-0.25zm0.01 0.01c0,0.06 0,0.13 0,0.2 0.16,0 0.33,0 0.49,0 0,-0.06 0,-0.13 0,-0.2 -0.16,0 -0.33,0 -0.49,0z"/>
  <path class="fil50" d="M4.35 4.9c0.07,0 0.14,0 0.21,0 0,0.04 0,0.09 0,0.13 -0.02,0 -0.05,0 -0.07,0 -0.02,0 -0.02,0 -0.04,0 -0.04,-0 -0.04,-0 -0.09,-0.01 0,-0.04 0,-0.08 0,-0.12z"/>
  <path class="fil51" d="M3.52 4.9c0.07,0 0.14,0 0.21,0 0,0.09 0,0.09 0,0.12 -0.01,0.01 -0.01,0.01 -0.05,0.01 -0.02,-0 -0.03,-0 -0.05,-0 -0.02,0 -0.03,0 -0.05,0 -0.04,-0 -0.04,-0 -0.05,-0.01 -0,-0.04 -0,-0.08 0,-0.12z"/>
  <path class="fil52" d="M0.97 4.08c0.07,-0 0.14,-0 0.21,-0 0.02,-0 0.05,-0 0.07,-0 0.03,-0 0.07,-0 0.1,-0 0.01,-0 0.02,-0 0.03,-0 0.02,0 0.05,0 0.07,0 0.03,0.03 0.02,0.08 0.03,0.11 0,0.01 0,0.01 0,0.03 0,0.02 0,0.04 0.01,0.06 0,0.03 0.01,0.06 0.01,0.1 0.03,0.31 0.03,0.31 0.03,0.45 -0,0.01 -0,0.03 -0,0.04 -0,0.01 -0,0.02 -0,0.03 -0,0 -0.01,0 -0.01,0 -0,-0.02 -0,-0.02 -0,-0.03 -0,-0.04 -0.01,-0.08 -0.01,-0.12 -0,-0.03 -0.01,-0.05 -0.01,-0.08 -0.01,-0.1 -0.01,-0.1 -0.03,-0.21 -0.02,-0.07 -0.02,-0.15 -0.02,-0.22 -0,-0.05 -0,-0.1 -0,-0.15 -0.15,0 -0.29,0.01 -0.44,0.01 -0.01,0.02 -0.02,0.03 -0.03,0.05 0,-0.03 0,-0.05 0,-0.08z"/>
  <path class="fil53" d="M2.43 2.78c0.02,-0 0.02,-0 0.04,-0 0.03,0 0.06,0.01 0.09,0.01 0.01,-0 0.02,-0 0.02,-0.01 0.04,-0.01 0.08,-0 0.12,0.01 0,0.01 0,0.03 0,0.04 -0.12,0 -0.25,0 -0.38,0 0,0.05 0,0.1 0,0.16 -0,0.03 -0.01,0.07 -0.01,0.1 -0,0 -0.01,0 -0.01,0 -0,-0.01 -0,-0.02 -0,-0.03 -0.01,-0.08 -0.01,-0.15 -0.04,-0.23 0.02,-0 0.04,-0.01 0.07,-0.01 0,-0.01 0,-0.02 0,-0.03 0.04,-0.01 0.07,-0.01 0.11,-0.01z"/>
  <path class="fil54" d="M0.81 5.7c0.17,0 0.34,0 0.52,0 0,0.06 0,0.13 0,0.2 -0.03,0.03 -0.03,0.03 -0.07,0.03 -0.02,-0 -0.04,-0 -0.06,-0 -0.01,-0 -0.02,-0 -0.03,-0 -0.02,-0 -0.04,-0 -0.07,-0 -0.03,-0 -0.07,-0 -0.1,-0 -0.02,-0 -0.04,-0 -0.07,-0 -0.01,-0 -0.02,-0 -0.03,-0 -0.07,-0 -0.07,-0 -0.09,-0.02 0,-0.06 0,-0.13 0,-0.2zm0.01 0.01c0,0.06 0,0.12 0,0.18 0.01,-0 0.03,-0 0.04,-0.01 0.05,-0.01 0.1,-0.01 0.15,-0.01 0.01,0 0.01,0 0.03,0 0.03,0 0.06,0 0.08,0 0.02,0 0.04,0 0.06,0 0.05,0 0.09,0 0.14,0 0,-0.06 0,-0.11 0,-0.17 -0.16,0 -0.33,0 -0.49,0z"/>
  <path class="fil55" d="M1.96 5.7c0.17,0 0.34,0 0.52,0 0,0.08 0,0.15 0,0.23 -0.03,-0 -0.05,-0 -0.08,-0 -0.03,-0 -0.05,-0 -0.08,-0 -0.03,-0 -0.05,-0 -0.08,-0 -0.02,0 -0.03,-0 -0.05,-0 -0.02,-0 -0.03,-0 -0.05,-0 -0.04,-0 -0.04,-0 -0.08,0.01 -0.1,-0 -0.1,-0 -0.12,-0.03 0,-0.07 0,-0.15 0,-0.22zm0.01 0.01c0,0.06 0,0.13 0,0.2 0.16,0 0.33,0 0.49,0 0,-0.06 0,-0.13 0,-0.2 -0.16,0 -0.33,0 -0.49,0z"/>
  <path class="fil56" d="M4.4 3.95c0.03,0 0.07,0 0.1,0 -0,0.08 -0.01,0.15 -0.01,0.23 -0.05,0.03 -0.05,0.03 -0.09,0.03 0,-0.09 0,-0.17 0,-0.26z"/>
  <path class="fil57" d="M2.23 3.77c0,0 0.01,0 0.01,0 0,0.03 0,0.07 0,0.1 0.18,0 0.36,0 0.55,0 -0,0.01 -0.01,0.03 -0.01,0.04 -0.01,-0 -0.03,-0 -0.04,-0 -0.04,-0 -0.04,-0 -0.06,0.01 -0.07,0 -0.13,-0 -0.2,-0.01 -0,0 -0.01,0.01 -0.01,0.01 -0.02,0 -0.05,0 -0.07,0 -0.01,-0 -0.03,-0 -0.04,-0 -0.02,-0 -0.02,-0 -0.03,-0 -0,-0.01 -0.01,-0.02 -0.01,-0.03 -0.04,-0.01 -0.04,-0.01 -0.08,-0.01 0,-0.04 0,-0.08 0,-0.12z"/>
  <path class="fil58" d="M2.28 3.11c0,0 0.01,0 0.01,0 0,0.04 0.01,0.09 0.01,0.13 0.21,0.01 0.21,0.01 0.43,0.01 0,-0.02 0,-0.04 0,-0.07 0,0 0.01,0 0.01,0 0,0.03 0,0.05 0,0.08 -0.07,0.04 -0.13,0.04 -0.21,0.03 -0.03,-0.01 -0.03,-0.01 -0.06,0.01 -0.06,0.01 -0.12,0.01 -0.18,-0.03 -0.02,-0.03 -0.01,-0.06 -0.01,-0.1 0,-0.01 0,-0.03 0,-0.04 0,-0.01 0,-0.02 0,-0.03z"/>
  <path class="fil59" d="M2.56 4.96c0.03,0 0.05,0.01 0.08,0.01 0.03,0 0.07,0.01 0.1,0.01 0,0.01 0,0.02 0,0.03 -0.01,0 -0.02,0 -0.03,0 -0.01,0 -0.03,0 -0.04,0 -0.02,0 -0.02,0 -0.04,0 -0.04,0 -0.04,0 -0.06,0.02 -0.01,-0 -0.02,-0.01 -0.03,-0.01 -0.03,-0 -0.06,-0 -0.09,-0 -0.02,0 -0.03,-0 -0.05,-0 -0.04,0 -0.07,0.01 -0.11,0.01 -0.02,0 -0.05,0 -0.07,0 -0.01,-0 -0.02,-0 -0.03,-0 -0.01,-0 -0.02,-0 -0.03,-0 0,-0.01 0,-0.03 0,-0.04 0.02,0 0.02,0 0.03,0 0.08,0 0.15,-0 0.23,-0.03 0.03,-0 0.07,-0 0.1,0 0.03,0 0.03,0 0.04,-0.01z"/>
  <path class="fil60" d="M2.63 2.23c0,0 0.01,0 0.01,0 0,0.04 0.01,0.08 0.01,0.12 0,0.01 0,0.02 0,0.03 0,0.01 0,0.02 0,0.03 0,0.02 0,0.02 0,0.03 0,0.06 0,0.11 0,0.17 -0.11,0 -0.21,0 -0.33,0 -0,-0.1 -0,-0.2 0.01,-0.3 0,0 0.01,0 0.01,0 0,0.1 -0,0.19 -0.01,0.29 0.09,0 0.18,0 0.27,0 0,-0.05 0,-0.05 0,-0.1 0,-0.01 0,-0.02 0,-0.03 0,-0.05 0,-0.05 -0.02,-0.1 -0.02,-0.02 -0.02,-0.02 -0.06,-0.03 -0.02,-0.01 -0.02,-0.01 -0.03,-0.01 -0,-0.01 -0.01,-0.03 -0.01,-0.04 0.04,0.01 0.08,0.03 0.12,0.04 0,-0.04 0,-0.08 0,-0.12z"/>
  <path class="fil61" d="M2.37 2.21c0.09,0 0.17,0 0.26,0 0,0.05 0,0.09 0,0.14 -0,-0.01 -0.01,-0.03 -0.01,-0.04 -0.01,0 -0.02,0 -0.03,0 0,-0.01 0,-0.02 0,-0.03 -0.02,-0 -0.04,-0 -0.06,-0.01 -0.01,-0 -0.02,-0 -0.03,-0 -0.05,-0 -0.09,0.01 -0.13,0.04 0,-0.03 0,-0.07 0,-0.1z"/>
  <path class="fil62" d="M0.98 3.81c0,0 0.01,0 0.01,0 0,0.02 0,0.04 0,0.07 0.15,0 0.29,0 0.44,0 -0.01,0.02 -0.02,0.03 -0.03,0.05 -0.1,0 -0.1,0 -0.14,-0.01 -0.04,-0.01 -0.08,0 -0.12,0.01 -0.03,-0.01 -0.03,-0.01 -0.05,-0.01 -0.02,0 -0.03,0 -0.05,0 -0.02,-0.01 -0.04,-0.02 -0.07,-0.03 0,-0.03 0,-0.05 0,-0.08z"/>
  <path class="fil63" d="M6.19 5.45c0.1,0 0.2,0 0.3,0 0,0.03 0,0.07 0,0.1 -0.01,-0 -0.02,-0.01 -0.03,-0.01 -0.11,-0.05 -0.11,-0.05 -0.22,-0.04 -0.03,0.03 -0.03,0.03 -0.05,0.05 0,-0.03 0,-0.07 0,-0.1z"/>
  <path class="fil64" d="M4.38 2.66c0.01,0 0.03,0 0.04,0 0.01,0 0.03,0 0.04,0 0.01,0 0.03,0 0.04,0 0.03,0 0.07,0 0.1,0 0.01,0.03 0.03,0.05 0.04,0.08 -0.1,-0.01 -0.1,-0.01 -0.14,-0.03 -0.06,-0.02 -0.1,-0.01 -0.16,0.02 -0.04,0.03 -0.04,0.03 -0.07,0.07 -0.01,0.01 -0.02,0.02 -0.03,0.03 -0,-0.01 -0.01,-0.03 -0.01,-0.04 0,-0.01 0.01,-0.02 0.01,-0.03 0.01,0 0.02,0 0.03,0 -0,-0.01 -0,-0.02 -0,-0.03 0,-0.01 0,-0.02 0,-0.03 0.04,-0.03 0.06,-0.03 0.11,-0.03z"/>
  <path class="fil65" d="M3.31 4.15c0.01,0.05 0.01,0.09 0.01,0.13 -0,0.02 -0,0.02 -0,0.05 -0,0.02 -0,0.04 -0,0.05 -0,0.02 -0,0.04 -0,0.06 -0,0.05 -0,0.1 -0,0.14 -0,0.05 -0,0.1 -0,0.15 -0,0.1 -0,0.19 -0.01,0.29 -0.06,0 -0.13,0 -0.2,0 0,-0.06 0,-0.12 0,-0.18 0,0 0.01,0 0.01,0 0,0.05 0.01,0.1 0.01,0.16 0.05,0 0.09,0 0.14,0 -0,-0.02 -0,-0.02 -0,-0.05 -0,-0.06 -0,-0.12 -0,-0.18 -0,-0.03 -0,-0.05 -0,-0.08 -0,-0.13 -0,-0.27 0.01,-0.4 0,-0.01 0,-0.02 0,-0.03 0,-0.07 0,-0.07 0.02,-0.1z"/>
  <path class="fil66" d="M3.53 4.25c0.06,0 0.12,0 0.18,0 0,0.03 0,0.06 0,0.09 -0.06,0 -0.12,0.01 -0.18,0.01 -0.01,-0.08 -0.01,-0.08 0,-0.1z"/>
  <path class="fil67" d="M4.57 3.48c0,0.08 0,0.16 0,0.25 0.03,0 0.05,0 0.08,0 0.01,0.01 0.03,0.03 0.04,0.04 -0.04,-0.01 -0.09,-0.02 -0.13,-0.03 0,-0.08 0,-0.15 0,-0.23 -0.07,0 -0.14,0 -0.21,0 0,0.08 0,0.15 0,0.23 -0.03,0 -0.06,0 -0.09,0 0,-0 0,-0.01 0,-0.01 0.02,-0 0.04,-0.01 0.07,-0.01 -0,-0.01 -0,-0.03 -0,-0.04 -0,-0.02 -0,-0.03 -0,-0.05 -0,-0.02 -0,-0.03 -0,-0.05 0,-0.04 0,-0.06 0.01,-0.1 0.08,-0.01 0.15,-0.02 0.23,0z"/>
  <path class="fil68" d="M1.07 2.83c0.09,0 0.17,0 0.26,0 -0,0.02 -0.01,0.04 -0.01,0.07 -0,-0.01 -0.01,-0.02 -0.01,-0.03 -0.01,0 -0.03,0.01 -0.04,0.01 -0.05,0.01 -0.05,0.01 -0.08,0.01 -0.04,0 -0.05,0.02 -0.08,0.04 -0.01,0 -0.02,0 -0.03,0 0,-0.03 0,-0.07 0,-0.1z"/>
  <path class="fil69" d="M4 2.96c0.02,0.03 0.03,0.05 0.04,0.09 0.01,-0 0.02,-0.01 0.02,-0.01 0.03,-0.01 0.03,-0.01 0.07,0 -0,0.01 -0.01,0.02 -0.01,0.03 -0.01,0 -0.02,0 -0.03,0 0.01,0.04 0.02,0.07 0.05,0.1 0.01,0 0.02,0.01 0.03,0.01 0.01,-0 0.03,-0.01 0.04,-0.01 0,0.01 0,0.02 0,0.03 0,0.01 0.01,0.02 0.01,0.03 0.01,0 0.03,0.01 0.04,0.01 0,0.01 0,0.02 0,0.03 0.04,0.01 0.08,0.02 0.12,0.03 -0.05,0.03 -0.05,0.03 -0.08,0.02 -0.01,-0 -0.02,-0.01 -0.03,-0.02 -0.03,-0.02 -0.06,-0.03 -0.1,-0.04 -0.02,-0.02 -0.02,-0.02 -0.04,-0.04 -0.01,-0.01 -0.01,-0.02 -0.02,-0.02 -0.02,-0.02 -0.02,-0.02 -0.03,-0.06 -0.01,0 -0.02,0 -0.03,0 -0.06,-0.09 -0.06,-0.09 -0.05,-0.16z"/>
  <path class="fil70" d="M1.33 2.88c0,0.05 0,0.09 0,0.14 -0,0 -0.01,0 -0.01,0 -0,-0.03 -0.01,-0.05 -0.01,-0.08 -0.06,0 -0.13,0 -0.2,0 0,0.01 0.01,0.03 0.01,0.04 -0.01,0.02 -0.01,0.02 -0.03,0.04 -0.01,0.03 -0.01,0.06 -0.01,0.09 -0,0 -0.01,0 -0.01,0 0,-0.06 0,-0.12 0,-0.18 0.09,-0.06 0.16,-0.08 0.26,-0.05z"/>
  <path class="fil71" d="M5.12 2.74c0,0 0.01,0 0.01,0 0,0.03 0,0.07 0,0.1 0.01,-0.01 0.02,-0.01 0.03,-0.02 0.01,-0.01 0.02,-0.01 0.04,-0.02 0.01,0 0.03,0.01 0.04,0.01 -0.01,0.01 -0.01,0.01 -0.03,0.02 -0.01,0.01 -0.02,0.01 -0.04,0.02 -0.01,0.01 -0.02,0.01 -0.03,0.02 -0.03,0.02 -0.03,0.02 -0.06,0.05 -0.04,0.04 -0.08,0.04 -0.13,0.05 -0.03,0.01 -0.03,0.01 -0.04,0.04 -0,0.01 -0.01,0.02 -0.01,0.03 -0.01,0 -0.02,0.01 -0.03,0.01 0.01,-0.05 0.03,-0.1 0.04,-0.16 0.01,0.02 0.01,0.02 0.03,0.04 0.01,-0.01 0.02,-0.03 0.03,-0.04 0.01,0 0.02,0.01 0.03,0.01 0.04,0.01 0.04,0.01 0.08,-0.01 0.04,-0.04 0.05,-0.07 0.05,-0.13 0,-0.01 0,-0.02 0,-0.02z"/>
  <path class="fil72" d="M1.34 4.89c0.01,0 0.02,0 0.03,0 0.05,0 0.1,0 0.14,0.02 -0,0.01 -0.01,0.03 -0.01,0.04 -0.19,0 -0.38,0 -0.57,0 0,-0.01 0,-0.02 0,-0.03 0.14,-0.02 0.27,-0.03 0.41,-0.03z"/>
  <path class="fil73" d="M2.19 4.06c0.06,-0 0.11,-0 0.17,0.01 0,0 0,0.01 0,0.01 -0.05,0 -0.09,0 -0.14,0 0,0.02 0,0.04 0,0.06 0,0.11 -0.01,0.22 -0.03,0.33 -0,0 -0.01,0 -0.01,0 -0,-0.06 -0,-0.11 -0,-0.17 -0,-0.02 -0,-0.04 -0,-0.06 -0,-0.03 -0,-0.05 -0,-0.08 -0,-0.02 -0,-0.03 -0,-0.05 0,-0.04 0,-0.04 0.01,-0.06z"/>
  <path class="fil74" d="M2.69 2.85c0,0.02 0,0.03 0,0.05 -0.04,0 -0.09,0 -0.13,-0.01 -0.05,-0.01 -0.11,-0.01 -0.16,0.01 -0.03,0.04 -0.04,0.07 -0.05,0.12 -0.02,-0.05 -0.01,-0.08 0.01,-0.13 0.1,-0.06 0.22,-0.04 0.33,-0.04z"/>
  <path class="fil75" d="M3.42 5.87c0.01,-0 0.03,-0 0.04,-0 0.01,0 0.03,0 0.04,0 0.01,0 0.02,0 0.04,0 0.03,0 0.03,0 0.07,0.01 0,0.01 0,0.02 0,0.03 -0.16,0 -0.33,0 -0.49,0 0,-0.01 0.01,-0.02 0.01,-0.03 0.09,-0.02 0.2,-0.01 0.29,-0.01z"/>
  <path class="fil76" d="M0.91 4.67c0,0 0.01,0 0.01,0 0,0.09 0,0.19 0,0.29 0.04,0 0.08,0 0.12,0 0.01,0 0.02,0.01 0.03,0.01 0,0.01 0,0.03 0,0.04 -0.02,0 -0.04,0 -0.06,0.01 -0.01,0 -0.02,0 -0.04,0 -0.03,0 -0.03,0 -0.07,-0.01 -0,-0.04 -0,-0.07 -0,-0.11 -0,-0.01 -0,-0.02 -0,-0.03 -0,-0.07 0,-0.13 0.01,-0.2z"/>
  <path class="fil77" d="M2.35 2.62c0.1,0 0.21,0 0.31,0 0,0.01 0.01,0.02 0.01,0.03 -0,0.01 -0.01,0.02 -0.01,0.03 -0.08,0 -0.08,0 -0.1,0 -0,-0 -0.01,-0.01 -0.01,-0.01 -0.03,-0 -0.07,-0 -0.1,-0 -0.01,0 -0.02,0 -0.03,0 -0.02,0 -0.05,0 -0.07,0 0,-0.01 0,-0.03 0,-0.04z"/>
  <path class="fil78" d="M1.12 3.41c0.01,0 0.03,0 0.04,0 0.01,0 0.02,0 0.03,0 0,0.01 0,0.02 0,0.03 0.06,0 0.13,0.01 0.2,0.01 0,0 0,0.01 0,0.01 -0.12,0 -0.25,0 -0.38,0 0,-0.01 0,-0.03 0,-0.04 0.04,-0.02 0.07,-0.01 0.11,-0.01z"/>
  <path class="fil79" d="M2.88 4.72c0.02,0.05 0.03,0.06 0.03,0.11 0,0.01 0,0.02 0,0.04 0,0.01 0,0.02 0,0.04 0,0.01 0,0.02 0,0.04 0,0.03 0,0.06 0,0.09 -0.04,0.02 -0.09,0.02 -0.13,0.01 -0.03,-0.02 -0.03,-0.02 -0.05,-0.04 0.03,-0.01 0.03,-0.01 0.16,-0.01 -0,-0.09 -0.01,-0.18 -0.01,-0.27z"/>
  <path class="fil80" d="M4.17 4.04c0,0 0.01,0 0.01,0 0,0.24 -0.01,0.48 -0.03,0.72 -0.01,-0 -0.02,-0.01 -0.03,-0.01 -0,-0.03 -0,-0.05 -0,-0.08 -0,-0.01 -0,-0.03 -0,-0.04 0,-0.05 0,-0.05 0.01,-0.09 0.01,-0.05 0.01,-0.1 0.01,-0.15 -0,-0.05 -0,-0.1 0.01,-0.15 0,-0.03 0.01,-0.07 0.01,-0.1 0,-0.01 0,-0.02 0,-0.03 0,-0.02 0,-0.04 0,-0.07z"/>
  <path class="fil81" d="M0.81 5.89c0.25,0.01 0.25,0.01 0.49,0.01 -0.05,0.03 -0.08,0.03 -0.14,0.03 -0.01,-0 -0.02,-0 -0.03,-0 -0.03,-0 -0.06,-0 -0.09,-0 -0.02,-0 -0.04,-0 -0.06,-0 -0.05,-0 -0.1,-0 -0.16,-0 -0,-0.01 -0.01,-0.03 -0.01,-0.04z"/>
  <path class="fil82" d="M5.71 1.97c0,0.01 0.01,0.02 0.01,0.03 -0.01,0.02 -0.01,0.02 -0.03,0.05 -0.03,0.06 -0.03,0.12 -0.03,0.19 0,0.01 0.01,0.02 0.01,0.03 0.02,0.01 0.04,0.01 0.07,0.02 0.04,0.01 0.08,0.03 0.12,0.05 -0.05,0.02 -0.08,0.01 -0.13,-0.01 -0.02,-0.01 -0.02,-0.01 -0.04,-0.01 -0.01,-0 -0.02,-0.01 -0.03,-0.01 0,-0.01 0,-0.02 0,-0.03 -0.01,-0 -0.03,-0.01 -0.04,-0.01 -0.01,-0.12 0.01,-0.19 0.08,-0.29z"/>
  <path class="fil83" d="M4.9 2.3c0,0.01 0,0.02 0,0.03 -0.01,0 -0.02,0.01 -0.03,0.01 -0.01,0 -0.03,0.01 -0.04,0.01 -0.01,0 -0.03,0.01 -0.04,0.01 -0.03,0.01 -0.06,0.02 -0.09,0.04 0,0.01 0,0.02 0,0.03 -0.02,-0.01 -0.04,-0.01 -0.06,-0.02 -0.02,-0 -0.02,-0 -0.03,-0.01 -0.03,-0.01 -0.03,-0.01 -0.07,-0.04 0.03,-0.01 0.03,-0.01 0.07,-0.01 0.07,0 0.14,-0.02 0.21,-0.04 0.04,-0.01 0.04,-0.01 0.06,-0.01z"/>
  <path class="fil84" d="M2.34 5.87c0.01,-0 0.01,-0 0.03,-0 0.07,0 0.07,0 0.1,0.01 0,0.01 0,0.02 0,0.03 -0.16,0 -0.33,0 -0.49,0 0.11,-0.05 0.25,-0.04 0.37,-0.04z"/>
  <path class="fil85" d="M4.4 3.95c0.03,0 0.07,0 0.1,0 0,0.03 0,0.07 0,0.1 -0.03,0 -0.07,0 -0.1,0 0,-0.03 0,-0.07 0,-0.1z"/>
  <path class="fil86" d="M2.37 2.16c0.05,0 0.1,0 0.16,0 0,0.01 0,0.02 0,0.03 0.03,-0 0.05,-0.01 0.08,-0.01 0.01,0.01 0.02,0.03 0.03,0.04 -0.09,0 -0.17,0 -0.26,0 0,-0.02 0,-0.03 0,-0.05z"/>
  <path class="fil81" d="M3.1 5.89c0.06,-0 0.12,-0 0.18,-0 0.02,-0 0.04,-0 0.06,-0 0.03,-0 0.06,-0 0.09,-0 0.01,-0 0.02,-0 0.03,-0 0.02,0 0.04,0 0.07,0 0.01,0.01 0.02,0.02 0.03,0.03 -0.01,0 -0.01,0 -0.02,0 -0.02,0 -0.02,0 -0.03,0 -0.01,0 -0.02,0 -0.03,0 -0.03,0 -0.03,0 -0.05,0.02 -0.03,0 -0.06,0 -0.09,0 -0.02,0 -0.03,0 -0.05,0 -0.05,-0 -0.09,-0.01 -0.14,-0.01 -0,-0.01 -0.01,-0.03 -0.01,-0.04z"/>
  <path class="fil87" d="M0.81 5.49c0.01,0 0.03,0 0.04,0 0.02,0 0.02,0 0.04,0 0.02,0 0.02,0 0.04,0 0.04,0 0.09,0 0.13,0 0.03,0 0.06,0 0.09,0 0.07,0 0.15,0 0.22,0 0,0 0,0.01 0,0.01 -0.01,0 -0.01,0 -0.02,0 -0.08,0 -0.15,0 -0.23,0 -0.03,0 -0.06,0 -0.09,0 -0.04,0 -0.08,0 -0.12,0 -0.01,0 -0.03,0 -0.04,0 -0.08,0 -0.08,0 -0.16,0.03 -0.01,-0.01 -0.02,-0.02 -0.03,-0.03 0.04,-0.02 0.07,-0.03 0.12,-0.03z"/>
  <path class="fil88" d="M1.06 3.26c0.1,0 0.2,0 0.3,0 0,0.01 0,0.02 0,0.03 -0.05,0.02 -0.1,0.02 -0.16,0.02 -0.01,0 -0.02,0 -0.03,0 -0.03,0 -0.03,0 -0.07,-0 -0.01,-0.01 -0.03,-0.03 -0.04,-0.04z"/>
  <path class="fil89" d="M2.15 4.77c0,0 0.01,0 0.01,0 0,0.06 0.01,0.11 0.01,0.17 0.02,-0 0.03,-0 0.05,-0 0.04,-0 0.07,0 0.11,0.03 -0,0.01 -0.01,0.03 -0.01,0.04 -0.06,-0 -0.11,-0.01 -0.17,-0.01 0,-0.07 0,-0.15 0,-0.22z"/>
  <path class="fil90" d="M2.32 2.79c0.01,0 0.03,0.01 0.04,0.01 0,0.01 0,0.02 0,0.03 -0.01,0 -0.03,0 -0.04,0 0,0.01 0,0.02 0,0.03 0,0.08 -0,0.15 -0.01,0.23 -0,0 -0.01,0 -0.01,0 -0,-0.01 -0,-0.02 -0,-0.03 -0.01,-0.08 -0.01,-0.15 -0.04,-0.23 0.02,-0 0.04,-0.01 0.07,-0.01 0,-0.01 0,-0.02 0,-0.03z"/>
  <path class="fil91" d="M4.25 5.49c0.01,0 0.03,0 0.04,0 0.01,0 0.03,0 0.04,0 0.01,0 0.03,0 0.04,0 0.05,0 0.09,0 0.14,0 0.03,0 0.06,0 0.09,0 0.08,0 0.15,0 0.23,0 0,0 0,0.01 0,0.01 -0.21,0 -0.41,0 -0.63,0 0,0.01 0,0.02 0,0.03 -0.02,-0.01 -0.03,-0.02 -0.05,-0.03 0.03,-0.02 0.05,-0.01 0.09,-0.01z"/>
  <path class="fil92" d="M1.95 5.49c0.01,0 0.03,0 0.04,0 0.01,0 0.03,0 0.04,0 0.01,0 0.03,0 0.04,0 0.05,0 0.09,0 0.14,0 0.03,0 0.06,0 0.09,0 0.08,0 0.15,0 0.23,0 0,0 0,0.01 0,0.01 -0.21,0 -0.41,0 -0.63,0 0,0.01 0,0.02 0,0.03 -0.02,-0.01 -0.03,-0.02 -0.05,-0.03 0.03,-0.02 0.05,-0.01 0.09,-0.01z"/>
  <path class="fil93" d="M2.71 3.05c0,0 0.01,0 0.01,0 0.01,0.07 0.01,0.12 0.01,0.2 -0.14,0 -0.28,0 -0.43,0 0,-0 0,-0.01 0,-0.01 0.13,0 0.26,0 0.39,0 0,-0.06 0.01,-0.12 0.01,-0.18z"/>
  <path class="fil94" d="M3.52 4.94c0.01,0.01 0.01,0.02 0.02,0.03 0.03,0.03 0.03,0.03 0.07,0.03 0.01,-0 0.03,-0 0.04,-0.01 0.01,-0 0.03,-0 0.04,-0.01 0.01,-0 0.02,-0 0.03,-0 -0,0.02 -0.01,0.03 -0.01,0.05 -0.03,0 -0.06,0 -0.09,0 -0.02,0 -0.03,0 -0.05,0 -0.04,-0 -0.04,-0 -0.05,-0.01 -0,-0.03 -0,-0.05 0,-0.08z"/>
  <path class="fil95" d="M2.74 4.96c0.01,0 0.02,0 0.03,0 0.04,0 0.09,0 0.13,0 0,0.01 0,0.03 0,0.04 -0.08,0.01 -0.08,0.01 -0.16,0.01 0,-0.01 0,-0.02 0,-0.03 -0.03,0 -0.07,0 -0.1,0 -0,-0.01 -0.01,-0.02 -0.01,-0.03 0.04,-0.02 0.07,-0.01 0.12,0z"/>
  <path class="fil96" d="M1.01 3.8c0,0.02 0.01,0.03 0.01,0.05 0.03,0 0.07,0 0.1,0 0,-0.01 0,-0.02 0,-0.03 0.03,-0 0.06,-0 0.1,0.01 0.04,0.01 0.07,0.01 0.11,0.01 0.01,0 0.02,0 0.04,0 0.03,0 0.03,0 0.06,-0.01 0,0.01 0,0.03 0,0.04 -0.14,0 -0.28,0 -0.42,0 0,-0.02 0,-0.04 0,-0.07z"/>
  <path class="fil97" d="M6.28 5.41c0.02,0 0.03,0 0.05,0.01 0,-0 0.01,-0.01 0.01,-0.01 0.02,-0 0.04,-0 0.07,-0 0.01,0 0.02,0 0.04,0 0.01,0 0.02,0 0.03,0 0,0.01 0.01,0.03 0.01,0.04 -0.04,0 -0.09,0 -0.13,0 -0.01,0 -0.02,0 -0.04,0 -0.01,0 -0.02,0 -0.04,0 -0.01,0 -0.02,0 -0.03,0 -0.03,-0 -0.03,-0 -0.07,-0.03 0.04,-0.01 0.05,-0.01 0.09,-0.01z"/>
  <path class="fil98" d="M4.37 3.95c0.01,0 0.03,0 0.04,0 -0.01,0.16 -0.02,0.32 -0.03,0.48 -0,0 -0.01,0 -0.01,0 0,-0.16 0,-0.32 0,-0.48z"/>
  <path class="fil99" d="M5.62 2.14c0,0 0.01,0 0.01,0 0,0.01 0,0.02 0,0.02 0,0.01 0,0.02 0,0.03 0,0.01 0,0.02 0,0.03 0,0.03 0,0.03 0.03,0.05 -0.06,0 -0.11,0 -0.17,0 -0,-0.01 -0.01,-0.02 -0.01,-0.03 0.01,-0 0.01,-0.01 0.02,-0.01 0.06,-0.03 0.06,-0.03 0.1,-0.08 0,-0.01 0,-0.02 0.01,-0.03z"/>
  <path class="fil100" d="M4.35 3.51c0.01,0 0.03,0 0.04,0 0,0.03 0,0.06 0,0.1 0,0.01 0,0.01 0,0.03 0,0.03 0,0.03 -0,0.07 -0.01,0.01 -0.03,0.03 -0.04,0.04 0,-0.08 0,-0.15 0,-0.23z"/>
  <path class="fil101" d="M1.07 2.83c0.08,0 0.15,0 0.23,0 -0.04,0.02 -0.07,0.03 -0.12,0.04 -0.05,0.01 -0.05,0.01 -0.09,0.03 -0.01,0.01 -0.02,0.03 -0.03,0.04 0,-0.03 0,-0.07 0,-0.1z"/>
  <path class="fil102" d="M3.86 3.15c0.04,0.01 0.05,0.02 0.07,0.06 0,0.01 0.01,0.02 0.01,0.03 0.01,0 0.02,0 0.03,0 0.01,0.01 0.01,0.02 0.02,0.03 0.02,0.04 0.04,0.05 0.07,0.07 -0,0.02 -0.01,0.03 -0.01,0.05 -0.01,-0 -0.03,-0.01 -0.04,-0.01 0.01,0 0.02,0 0.03,0 -0.01,-0.01 -0.02,-0.02 -0.03,-0.03 -0.01,-0.01 -0.02,-0.03 -0.03,-0.04 -0.01,-0.01 -0.02,-0.03 -0.03,-0.04 -0.03,-0.04 -0.03,-0.04 -0.04,-0.07 -0.01,0 -0.02,0 -0.03,0 -0,-0.02 -0.01,-0.03 -0.01,-0.05z"/>
  <path class="fil103" d="M4.4 5.71c0.12,0 0.23,0 0.35,0 0,0.05 0,0.09 0,0.14 -0,0 -0.01,0 -0.01,0 -0,-0.03 -0.01,-0.05 -0.01,-0.08 -0,-0.01 -0,-0.02 -0.01,-0.02 -0.03,-0.02 -0.06,-0.02 -0.09,-0.02 -0.01,-0 -0.03,-0 -0.04,-0 -0.01,-0 -0.03,-0 -0.04,-0 -0.02,-0 -0.02,-0 -0.04,-0 -0.04,-0 -0.07,-0 -0.11,-0 0,-0 0,-0.01 0,-0.01z"/>
  <path class="fil104" d="M2.19 4.06c0.06,-0 0.11,-0 0.17,0.01 0,0 0,0.01 0,0.01 -0.05,0 -0.09,0 -0.14,0 0,0.05 0,0.09 0,0.14 -0,0 -0.01,0 -0.01,0 -0,-0.02 -0.01,-0.05 -0.01,-0.07 -0,-0.01 -0.01,-0.03 -0.01,-0.04 -0,-0.03 -0,-0.03 0.01,-0.06z"/>
  <path class="fil69" d="M4.65 3.22c0.03,0 0.05,0 0.08,0 -0,0.01 -0.01,0.02 -0.01,0.03 -0.01,0 -0.02,0 -0.03,0 -0,0.01 -0.01,0.02 -0.01,0.03 -0.1,0.04 -0.2,0.04 -0.3,0.04 0,-0 0,-0.01 0,-0.01 0.02,-0 0.02,-0 0.04,-0.01 0.02,-0 0.04,-0 0.06,-0.01 0.01,-0 0.02,-0 0.03,-0 0.05,-0.01 0.1,-0.01 0.14,-0.02 0,-0.01 0,-0.03 0,-0.04z"/>
  <path class="fil69" d="M4 2.96c0.02,0.03 0.03,0.05 0.04,0.09 0.01,-0 0.02,-0.01 0.02,-0.01 0.03,-0.01 0.03,-0.01 0.07,0 -0,0.01 -0.01,0.02 -0.01,0.03 -0.01,0 -0.02,0 -0.03,0 0,0.02 0,0.04 0,0.07 -0.05,-0.02 -0.06,-0.04 -0.08,-0.08 -0.01,-0.03 -0.01,-0.06 -0.01,-0.09z"/>
  <path class="fil69" d="M4.17 2.43c0.01,0 0.02,0.01 0.03,0.01 -0.01,0.01 -0.02,0.01 -0.02,0.02 -0.06,0.06 -0.11,0.12 -0.15,0.2 -0.01,0.03 -0.01,0.03 -0.04,0.07 0.01,-0.08 0.03,-0.14 0.08,-0.2 0.01,-0.01 0.02,-0.02 0.02,-0.03 0.02,-0.03 0.05,-0.05 0.08,-0.07z"/>
  <path class="fil105" d="M2.3 4.03c0.01,-0 0.02,-0 0.03,-0 0.02,0 0.02,0 0.03,0 0.01,-0 0.02,-0 0.03,-0 0.01,0 0.02,0 0.03,0 0.01,0 0.02,0 0.03,0 0.02,0 0.02,0 0.05,0.03 -0.01,-0 -0.03,-0 -0.04,-0 -0.04,-0 -0.07,0 -0.11,0.01 -0.05,0.01 -0.1,0 -0.15,-0.01 0.04,-0.03 0.05,-0.03 0.09,-0.03z"/>
  <path class="fil106" d="M4.27 5.72c0.03,0.01 0.03,0.01 0.05,0.01 -0.01,0.02 -0.01,0.02 -0.03,0.04 -0,0.03 -0,0.06 0,0.09 0.06,0.01 0.06,0.01 0.12,0.03 0,0 0,0.01 0,0.01 -0.05,0 -0.1,0 -0.16,0 0,-0.06 0.01,-0.12 0.01,-0.18z"/>
  <path class="fil107" d="M5.17 2.46c-0.01,0 -0.03,0.01 -0.04,0.01 -0.02,0.04 -0.02,0.04 -0.03,0.08 -0.01,-0 -0.03,-0.01 -0.04,-0.01 0,-0.01 0,-0.02 0,-0.03 -0.02,-0.01 -0.03,-0.02 -0.05,-0.03 0.06,-0.03 0.09,-0.04 0.16,-0.03z"/>
  <path class="fil108" d="M5.46 1.96c0.02,0.03 0.03,0.05 0.03,0.09 -0.04,0.03 -0.06,0.03 -0.12,0.03 0,0.01 0,0.02 0,0.03 -0.02,-0 -0.03,-0.01 -0.05,-0.01 0.01,-0 0.01,-0.01 0.02,-0.01 0.05,-0.02 0.08,-0.04 0.11,-0.09 0,-0.01 0.01,-0.02 0.01,-0.04z"/>
  <path class="fil109" d="M0.99 4.1c0.03,0.01 0.03,0.01 0.05,0.01 -0.01,0.01 -0.01,0.01 -0.02,0.02 -0.05,0.07 -0.05,0.15 -0.06,0.23 -0,0 -0.01,0 -0.01,0 -0,-0.09 0,-0.17 0.03,-0.25 0,-0 0.01,-0.01 0.01,-0.01z"/>
  <path class="fil110" d="M2.63 2.23c0,0 0.01,0 0.01,0 0,0.06 0,0.12 0,0.18 -0.01,-0.01 -0.02,-0.02 -0.04,-0.02 -0.03,-0.02 -0.06,-0.04 -0.09,-0.05 0,-0.01 0,-0.02 0,-0.03 0.04,0.01 0.08,0.03 0.12,0.04 0,-0.04 0,-0.08 0,-0.12z"/>
  <path class="fil111" d="M2.15 4.99c0.06,0 0.11,0 0.17,0 0,0.01 0,0.02 0,0.03 -0.04,0.01 -0.07,0.01 -0.11,0.01 -0.02,-0 -0.02,-0 -0.04,-0 -0.01,-0 -0.02,-0 -0.03,-0 0,-0.01 0,-0.03 0,-0.04z"/>
  <path class="fil112" d="M3.12 4.84c0,0 0.01,0 0.01,0 0,0.05 0.01,0.1 0.01,0.16 0.06,0 0.11,0 0.17,0 0,0.01 0,0.02 0,0.03 -0.06,0 -0.13,0 -0.2,0 0,-0.06 0,-0.12 0,-0.18z"/>
  <path class="fil113" d="M3.59 4.9c0.01,0 0.03,0 0.04,0 0.02,0 0.02,0 0.04,0 0.01,0 0.02,0 0.03,0 0,0.01 0.01,0.03 0.01,0.04 -0.12,0.02 -0.12,0.02 -0.18,-0.01 0.03,-0.03 0.03,-0.03 0.06,-0.03z"/>
  <path class="fil114" d="M3.69 4.28c0.03,0.05 0.03,0.05 0.03,0.07 -0.06,0 -0.11,0 -0.17,0 0.01,-0.02 0.02,-0.03 0.03,-0.05 0.01,0 0.02,0.01 0.03,0.01 0.04,0.01 0.05,-0 0.09,-0.02z"/>
  <path class="fil115" d="M5.21 2.43c0,0.04 0,0.04 -0.02,0.06 -0.02,0.02 -0.02,0.02 -0.06,0.03 -0.02,-0.03 -0.01,-0.06 -0.01,-0.09 0.04,-0.01 0.05,-0.01 0.09,0z"/>
  <path class="fil116" d="M6.31 5.46c0.09,-0 0.09,-0 0.13,0.03 0,0.01 0,0.02 0,0.03 0.02,-0 0.03,-0.01 0.05,-0.01 -0,0.02 -0.01,0.03 -0.01,0.05 -0.01,-0.01 -0.02,-0.01 -0.03,-0.02 -0.04,-0.02 -0.04,-0.02 -0.09,-0.04 -0.04,-0.01 -0.04,-0.01 -0.05,-0.04z"/>
  <path class="fil113" d="M4.48 4.9c0.01,0 0.03,0 0.04,0 0.01,0 0.01,0 0.03,0 -0,0.01 -0.01,0.03 -0.01,0.04 -0.06,0 -0.11,0 -0.17,0 0,-0.01 0,-0.02 0,-0.03 0.04,-0.01 0.07,-0.01 0.11,-0.01z"/>
  <path class="fil117" d="M6.32 5.45c0.06,0 0.11,0 0.17,0 -0,0.03 -0.01,0.05 -0.01,0.08 -0.01,-0 -0.03,-0.01 -0.04,-0.01 0,-0.01 0,-0.02 0,-0.03 -0.06,-0.01 -0.06,-0.01 -0.12,-0.03 0,-0 0,-0.01 0,-0.01z"/>
  <path class="fil118" d="M4.34 4.75c0,0 0.01,0 0.01,0 0,0.09 0,0.18 0,0.27 0.02,0 0.03,0.01 0.05,0.01 -0,0.01 -0.01,0.02 -0.01,0.03 -0.02,-0 -0.03,-0.01 -0.05,-0.01 0,-0.1 0,-0.2 0,-0.3z"/>
  <path class="fil119" d="M1.11 4.1c0.1,0 0.21,0 0.31,0 0,0 0,0.01 0,0.01 -0.04,0.01 -0.08,0.01 -0.12,0.01 -0.02,0 -0.02,0 -0.03,0 -0.06,0.01 -0.1,0.01 -0.16,-0.02 0,-0 0,-0.01 0,-0.01z"/>
  <path class="fil120" d="M1.14 2.92c0,0.01 0,0.02 0,0.03 -0.01,0 -0.02,0 -0.03,0 0,0.01 0.01,0.03 0.01,0.04 -0.01,0.02 -0.01,0.02 -0.03,0.04 -0.01,0.03 -0.01,0.06 -0.01,0.09 -0,0 -0.01,0 -0.01,0 0,-0.06 0,-0.12 0,-0.18 0.03,-0.01 0.03,-0.01 0.07,-0.01z"/>
  <path class="fil121" d="M1.02 2.83c0.01,0 0.03,0 0.04,0 -0,0.09 -0.01,0.19 -0.01,0.29 -0,0 -0.01,0 -0.01,0 -0,-0.09 -0.01,-0.19 -0.01,-0.29z"/>
  <path class="fil122" d="M4.29 3.03c0.08,0.01 0.16,0.03 0.23,0.05 0,0 0,0.01 0,0.01 -0.09,0.01 -0.16,0 -0.23,-0.05 0,-0 0,-0.01 0,-0.01z"/>
  <path class="fil123" d="M2.7 4.93c0.03,-0 0.06,-0 0.08,-0 0.02,-0 0.03,-0 0.05,-0 0.04,0 0.04,0 0.07,0.03 -0.05,0.02 -0.08,0.01 -0.13,0 -0,0.01 -0.01,0.02 -0.01,0.03 -0.02,-0.02 -0.03,-0.03 -0.05,-0.05z"/>
  <path class="fil124" d="M2.28 2.86c0.01,0 0.02,0 0.03,0 0,0.08 0,0.15 0,0.23 -0,0 -0.01,0 -0.01,0 -0,-0.01 -0,-0.02 -0,-0.03 -0,-0.01 -0,-0.03 -0,-0.04 -0,-0.01 -0,-0.03 -0,-0.04 -0,-0.04 -0,-0.04 -0.01,-0.08 -0,-0.01 -0,-0.02 -0.01,-0.03 0,-0 0.01,-0.01 0.01,-0.01z"/>
  <path class="fil125" d="M2.48 4.93c0.06,0 0.11,0 0.17,0 0,0.01 0,0.02 0,0.03 -0.02,0 -0.02,0 -0.04,0.01 -0.04,0 -0.04,0 -0.07,0.02 0,-0.01 0,-0.02 0,-0.03 -0.02,0 -0.03,0 -0.05,0 0,-0.01 0,-0.02 0,-0.03z"/>
  <path class="fil126" d="M4.2 2.75c0,0 0.01,0 0.01,0 0.02,0.07 0.03,0.13 0.03,0.21 -0.04,-0.05 -0.04,-0.08 -0.04,-0.14 0,-0.01 0,-0.03 0,-0.04 0,-0.01 0,-0.02 0,-0.03z"/>
  <path class="fil127" d="M4.26 2.69c0,0 0.01,0 0.01,0 0,0.02 0,0.04 0,0.07 -0.01,0 -0.02,0 -0.03,0 -0,0.03 -0.01,0.05 -0.01,0.08 -0.01,0 -0.02,0 -0.03,0 0,-0.03 0,-0.05 0,-0.08 0.01,0 0.02,0 0.03,0 0,-0.01 0,-0.01 0.01,-0.03 0.01,-0.03 0.01,-0.03 0.02,-0.04z"/>
  <path class="fil128" d="M2.26 3.46c0,0 0.01,0 0.01,0 0,0.03 0,0.05 0,0.08 -0.01,0 -0.02,0 -0.03,0 0,0.01 0,0.02 0,0.03 -0.01,0 -0.03,0 -0.04,0 0,-0.02 0.01,-0.04 0.01,-0.07 0.01,0 0.02,0 0.03,0 0,-0.01 0.01,-0.03 0.01,-0.04z"/>
  <path class="fil129" d="M2.35 2.85c0.04,0 0.08,0 0.12,0 -0.03,0.01 -0.05,0.03 -0.08,0.04 -0.03,0.01 -0.04,0.03 -0.06,0.05 0.01,-0.03 0.02,-0.06 0.03,-0.09z"/>
  <path class="fil130" d="M4.7 2.77c0,0 0.01,0 0.01,0 0.01,0.09 -0,0.15 -0.05,0.23 -0.01,-0.02 -0.01,-0.02 -0.01,-0.05 0.01,-0.01 0.01,-0.02 0.02,-0.03 0.03,-0.05 0.03,-0.1 0.03,-0.15z"/>
  <path class="fil131" d="M5.46 2.27c0.05,0 0.1,0 0.16,0 -0.03,0.03 -0.06,0.03 -0.1,0.04 -0.01,-0 -0.02,-0.01 -0.03,-0.01 -0,0.01 -0.01,0.02 -0.01,0.03 -0.01,-0 -0.02,-0.01 -0.03,-0.01 0,-0.01 0.01,-0.03 0.01,-0.04z"/>
  <path class="fil132" d="M4.3 2.61c0.01,0 0.02,0.01 0.03,0.01 -0.01,0.01 -0.01,0.01 -0.02,0.02 -0.01,0.01 -0.01,0.02 -0.02,0.02 -0.01,0.01 -0.01,0.02 -0.02,0.02 -0.02,0.02 -0.02,0.02 -0.03,0.06 -0.01,-0 -0.02,-0.01 -0.03,-0.01 0.02,-0.05 0.05,-0.09 0.09,-0.13z"/>
  <path class="fil133" d="M2.54 2.85c0.05,0 0.09,0 0.14,0 0,0.02 0,0.03 0,0.05 -0.01,0 -0.02,0 -0.03,0 0,-0.01 0,-0.02 0,-0.03 -0.04,-0 -0.08,-0.01 -0.12,-0.01 0,-0 0,-0.01 0,-0.01z"/>
  <path class="fil134" d="M2.98 2.06c-0.05,0.03 -0.09,0.04 -0.14,0.03 -0,0.01 -0.01,0.03 -0.01,0.04 -0.01,-0.02 -0.02,-0.03 -0.03,-0.05 0.12,-0.01 0.12,-0.01 0.18,-0.01z"/>
  <path class="fil135" d="M3.95 3.28c0.04,0.02 0.07,0.04 0.1,0.07 -0,0.02 -0.01,0.03 -0.01,0.05 -0.01,-0 -0.03,-0.01 -0.04,-0.01 0.01,0 0.02,0 0.03,0 -0.03,-0.03 -0.05,-0.07 -0.08,-0.1z"/>
  <path class="fil136" d="M2.74 3.07c0,0 0.01,0 0.01,0 0,0.01 0,0.02 0,0.02 0,0.01 0,0.02 0.01,0.03 0,0.01 0,0.02 0.01,0.03 0.01,0.03 0.01,0.03 0.03,0.07 -0.02,0 -0.03,0.01 -0.05,0.01 -0.01,-0.04 -0.01,-0.07 -0.01,-0.11 0,-0.01 0,-0.02 0,-0.03 0,-0.01 0,-0.02 0,-0.02z"/>
  <path class="fil137" d="M2.67 2.65c-0,0.01 -0.01,0.02 -0.01,0.03 -0.03,0 -0.07,0 -0.1,0 -0,-0.01 -0.01,-0.02 -0.01,-0.03 0.09,-0.01 0.09,-0.01 0.13,0z"/>
  <path class="fil138" d="M5.56 2.22c0.01,0.02 0.02,0.03 0.03,0.05 -0.03,0 -0.06,0.01 -0.09,0.01 -0,-0.01 -0.01,-0.02 -0.01,-0.03 0.03,-0.01 0.05,-0.03 0.08,-0.04z"/>
  <path class="fil139" d="M2.91 4.86c0.02,0.01 0.02,0.01 0.04,0.03 -0,0.03 -0.01,0.07 -0.01,0.1 -0.03,-0.03 -0.03,-0.03 -0.03,-0.05 0,-0.03 0,-0.05 0,-0.08z"/>
  <path class="fil140" d="M4.61 2.62c0.02,0.02 0.04,0.03 0.07,0.05 -0,0.02 -0.01,0.03 -0.01,0.05 -0.05,-0.06 -0.05,-0.06 -0.05,-0.1z"/>
  <path class="fil141" d="M2.66 2.57c0,0.02 0.01,0.03 0.01,0.05 -0.05,0 -0.1,0 -0.16,0 0,-0 0,-0.01 0,-0.01 0.01,-0 0.02,-0 0.02,-0 0.01,-0 0.02,-0 0.03,-0 0.01,-0 0.02,-0 0.03,-0 0.03,-0 0.03,-0 0.05,-0.03z"/>
  <path class="fil69" d="M4.17 2.43c0.01,0 0.02,0.01 0.03,0.01 -0.03,0.03 -0.06,0.06 -0.09,0.09 -0,-0.01 -0.01,-0.02 -0.01,-0.03 0.03,-0.03 0.05,-0.05 0.08,-0.08z"/>
  <path class="fil142" d="M5.21 2.43c-0.01,0.03 -0.01,0.03 -0.04,0.04 -0.03,-0.01 -0.03,-0.01 -0.05,-0.01 0,-0.01 0,-0.02 0,-0.03 0.04,-0.01 0.05,-0.01 0.09,0z"/>
  <path class="fil143" d="M5.32 2.12c-0.01,0 -0.02,0 -0.03,0 0,0.01 0,0.03 0,0.04 -0.03,0 -0.06,0 -0.09,0 0.04,-0.04 0.06,-0.06 0.12,-0.04z"/>
  <path class="fil144" d="M5.37 2.08c0.02,0 0.04,0 0.07,0 -0.02,0.03 -0.02,0.03 -0.05,0.05 -0.04,-0 -0.04,-0 -0.07,-0.01 0.02,-0 0.03,-0.01 0.05,-0.01 0,-0.01 0,-0.02 0,-0.03z"/>
  <path class="fil145" d="M1.81 6.71c0.04,0.01 0.04,0.01 0.04,0.01l-0.04 -0.01z"/>
  <path class="fil145" d="M1.92 6.71c0.03,0.01 0.03,0.01 0.03,0.01l-0.03 -0.01z"/>
 </g>
</svg>
